  0
SECTION
  2
HEADER
  9
$ACADVER
  1
AC1014
  9
$HANDSEED
  5
FFFF
  9
$MEASUREMENT
 70
     1
  0
ENDSEC
  0
SECTION
  2
TABLES
  0
TABLE
  2
VPORT
  5
8
330
0
100
AcDbSymbolTable
 70
     4
  0
VPORT
  5
2E
330
8
100
AcDbSymbolTableRecord
100
AcDbViewportTableRecord
  2
*ACTIVE
 70
     0
 10
0.0
 20
0.0
 11
1.0
 21
1.0
 12
210.0
 22
148.5
 13
0.0
 23
0.0
 14
10.0
 24
10.0
 15
10.0
 25
10.0
 16
0.0
 26
0.0
 36
1.0
 17
0.0
 27
0.0
 37
0.0
 40
341.0
 41
1.24
 42
50.0
 43
0.0
 44
0.0
 50
0.0
 51
0.0
 71
     0
 72
   100
 73
     1
 74
     3
 75
     0
 76
     0
 77
     0
 78
     0
  0
ENDTAB
  0
TABLE
  2
LTYPE
  5
5
330
0
100
AcDbSymbolTable
 70
     1
  0
LTYPE
  5
14
330
5
100
AcDbSymbolTableRecord
100
AcDbLinetypeTableRecord
  2
BYBLOCK
 70
     0
  3

 72
    65
 73
     0
 40
0.0
  0
LTYPE
  5
15
330
5
100
AcDbSymbolTableRecord
100
AcDbLinetypeTableRecord
  2
BYLAYER
 70
     0
  3

 72
    65
 73
     0
 40
0.0
  0
LTYPE
  5
16
330
5
100
AcDbSymbolTableRecord
100
AcDbLinetypeTableRecord
  2
CONTINUOUS
 70
     0
  3
Solid line
 72
    65
 73
     0
 40
0.0
  0
ENDTAB
  0
TABLE
  2
LAYER
  5
2
100
AcDbSymbolTable
 70
1
  0
LAYER
  5
50
100
AcDbSymbolTableRecord
100
AcDbLayerTableRecord
  2
0
 70
0
  6
CONTINUOUS
  0
ENDTAB
  0
TABLE
  2
STYLE
  5
3
330
0
100
AcDbSymbolTable
 70
     1
  0
STYLE
  5
11
330
3
100
AcDbSymbolTableRecord
100
AcDbTextStyleTableRecord
  2
STANDARD
 70
     0
 40
0.0
 41
1.0
 50
0.0
 71
     0
 42
2.5
  3
txt
  4

  0
ENDTAB
  0
TABLE
  2
VIEW
  5
6
330
0
100
AcDbSymbolTable
 70
     0
  0
ENDTAB
  0
TABLE
  2
UCS
  5
7
330
0
100
AcDbSymbolTable
 70
     0
  0
ENDTAB
  0
TABLE
  2
APPID
  5
9
330
0
100
AcDbSymbolTable
 70
     2
  0
APPID
  5
12
330
9
100
AcDbSymbolTableRecord
100
AcDbRegAppTableRecord
  2
ACAD
 70
     0
  0
ENDTAB
  0
TABLE
  2
DIMSTYLE
  5
A
330
0
100
AcDbSymbolTable
 70
     1
  0
DIMSTYLE
105
27
330
A
100
AcDbSymbolTableRecord
100
AcDbDimStyleTableRecord
  2
ISO-25
 70
     0
  3

  4

  5

  6

  7

 40
1.0
 41
2.5
 42
0.625
 43
3.75
 44
1.25
 45
0.0
 46
0.0
 47
0.0
 48
0.0
140
2.5
141
2.5
142
0.0
143
0.03937007874016
144
1.0
145
0.0
146
1.0
147
0.625
 71
     0
 72
     0
 73
     0
 74
     0
 75
     0
 76
     0
 77
     1
 78
     8
170
     0
171
     3
172
     1
173
     0
174
     0
175
     0
176
     0
177
     0
178
     0
270
     2
271
     2
272
     2
273
     2
274
     3
340
11
275
     0
280
     0
281
     0
282
     0
283
     0
284
     8
285
     0
286
     0
287
     3
288
     0
  0
ENDTAB
  0
TABLE
  2
BLOCK_RECORD
  5
1
330
0
100
AcDbSymbolTable
 70
     1
  0
BLOCK_RECORD
  5
1F
330
1
100
AcDbSymbolTableRecord
100
AcDbBlockTableRecord
  2
*MODEL_SPACE
  0
BLOCK_RECORD
  5
1B
330
1
100
AcDbSymbolTableRecord
100
AcDbBlockTableRecord
  2
*PAPER_SPACE
  0
ENDTAB
  0
ENDSEC
  0
SECTION
  2
BLOCKS
  0
BLOCK
  5
20
330
1F
100
AcDbEntity
  8
0
100
AcDbBlockBegin
  2
*MODEL_SPACE
 70
     0
 10
0.0
 20
0.0
 30
0.0
  3
*MODEL_SPACE
  1

  0
ENDBLK
  5
21
330
1F
100
AcDbEntity
  8
0
100
AcDbBlockEnd
  0
BLOCK
  5
1C
330
1B
100
AcDbEntity
 67
     1
  8
0
100
AcDbBlockBegin
  2
*PAPER_SPACE
  1

  0
ENDBLK
  5
1D
330
1B
100
AcDbEntity
 67
     1
  8
0
100
AcDbBlockEnd
  0
ENDSEC
  0
SECTION
  2
ENTITIES
  0
SPLINE
  5
100
100
AcDbEntity
  8
0
 62
7
100
AcDbSpline
 70
8
 71
3
 72
8
 73
4
 74
0
 40
0
 40
0
 40
0
 40
0
 40
1
 40
1
 40
1
 40
1
 10
36.598564
 20
68.394666
 30
0.0
 10
36.598794
 20
68.918809
 30
0.0
 10
36.319299
 20
69.403235
 30
0.0
 10
35.865416
 20
69.665373
 30
0.0
  0
SPLINE
  5
101
100
AcDbEntity
  8
0
 62
7
100
AcDbSpline
 70
8
 71
3
 72
8
 73
4
 74
0
 40
0
 40
0
 40
0
 40
0
 40
1
 40
1
 40
1
 40
1
 10
35.865416
 20
69.665373
 30
0.0
 10
35.411534
 20
69.927511
 30
0.0
 10
34.852261
 20
69.927511
 30
0.0
 10
34.398378
 20
69.665373
 30
0.0
  0
SPLINE
  5
102
100
AcDbEntity
  8
0
 62
7
100
AcDbSpline
 70
8
 71
3
 72
8
 73
4
 74
0
 40
0
 40
0
 40
0
 40
0
 40
1
 40
1
 40
1
 40
1
 10
34.398378
 20
69.665373
 30
0.0
 10
33.944495
 20
69.403235
 30
0.0
 10
33.665001
 20
68.918809
 30
0.0
 10
33.665231
 20
68.394666
 30
0.0
  0
SPLINE
  5
103
100
AcDbEntity
  8
0
 62
7
100
AcDbSpline
 70
8
 71
3
 72
8
 73
4
 74
0
 40
0
 40
0
 40
0
 40
0
 40
1
 40
1
 40
1
 40
1
 10
33.665231
 20
68.394666
 30
0.0
 10
33.665001
 20
67.870523
 30
0.0
 10
33.944495
 20
67.386097
 30
0.0
 10
34.398378
 20
67.123959
 30
0.0
  0
SPLINE
  5
104
100
AcDbEntity
  8
0
 62
7
100
AcDbSpline
 70
8
 71
3
 72
8
 73
4
 74
0
 40
0
 40
0
 40
0
 40
0
 40
1
 40
1
 40
1
 40
1
 10
34.398378
 20
67.123959
 30
0.0
 10
34.852261
 20
66.861822
 30
0.0
 10
35.411534
 20
66.861822
 30
0.0
 10
35.865416
 20
67.123959
 30
0.0
  0
SPLINE
  5
105
100
AcDbEntity
  8
0
 62
7
100
AcDbSpline
 70
8
 71
3
 72
8
 73
4
 74
0
 40
0
 40
0
 40
0
 40
0
 40
1
 40
1
 40
1
 40
1
 10
35.865416
 20
67.123959
 30
0.0
 10
36.319299
 20
67.386097
 30
0.0
 10
36.598794
 20
67.870523
 30
0.0
 10
36.598564
 20
68.394666
 30
0.0
  0
LINE
  5
106
100
AcDbEntity
  8
0
 62
7
100
AcDbLine
 10
36.598564
 20
68.394666
 30
0.0
 11
36.598564
 21
68.394666
 31
0.0
  0
SPLINE
  5
107
100
AcDbEntity
  8
0
 62
7
100
AcDbSpline
 70
8
 71
3
 72
8
 73
4
 74
0
 40
0
 40
0
 40
0
 40
0
 40
1
 40
1
 40
1
 40
1
 10
98.465231
 20
68.394666
 30
0.0
 10
98.465461
 20
68.918809
 30
0.0
 10
98.185966
 20
69.403235
 30
0.0
 10
97.732083
 20
69.665373
 30
0.0
  0
SPLINE
  5
108
100
AcDbEntity
  8
0
 62
7
100
AcDbSpline
 70
8
 71
3
 72
8
 73
4
 74
0
 40
0
 40
0
 40
0
 40
0
 40
1
 40
1
 40
1
 40
1
 10
97.732083
 20
69.665373
 30
0.0
 10
97.278201
 20
69.927511
 30
0.0
 10
96.718928
 20
69.927511
 30
0.0
 10
96.265045
 20
69.665373
 30
0.0
  0
SPLINE
  5
109
100
AcDbEntity
  8
0
 62
7
100
AcDbSpline
 70
8
 71
3
 72
8
 73
4
 74
0
 40
0
 40
0
 40
0
 40
0
 40
1
 40
1
 40
1
 40
1
 10
96.265045
 20
69.665373
 30
0.0
 10
95.811163
 20
69.403235
 30
0.0
 10
95.531668
 20
68.918809
 30
0.0
 10
95.531898
 20
68.394666
 30
0.0
  0
SPLINE
  5
10a
100
AcDbEntity
  8
0
 62
7
100
AcDbSpline
 70
8
 71
3
 72
8
 73
4
 74
0
 40
0
 40
0
 40
0
 40
0
 40
1
 40
1
 40
1
 40
1
 10
95.531898
 20
68.394666
 30
0.0
 10
95.531668
 20
67.870523
 30
0.0
 10
95.811163
 20
67.386097
 30
0.0
 10
96.265045
 20
67.123959
 30
0.0
  0
SPLINE
  5
10b
100
AcDbEntity
  8
0
 62
7
100
AcDbSpline
 70
8
 71
3
 72
8
 73
4
 74
0
 40
0
 40
0
 40
0
 40
0
 40
1
 40
1
 40
1
 40
1
 10
96.265045
 20
67.123959
 30
0.0
 10
96.718928
 20
66.861822
 30
0.0
 10
97.278201
 20
66.861822
 30
0.0
 10
97.732083
 20
67.123959
 30
0.0
  0
SPLINE
  5
10c
100
AcDbEntity
  8
0
 62
7
100
AcDbSpline
 70
8
 71
3
 72
8
 73
4
 74
0
 40
0
 40
0
 40
0
 40
0
 40
1
 40
1
 40
1
 40
1
 10
97.732083
 20
67.123959
 30
0.0
 10
98.185966
 20
67.386097
 30
0.0
 10
98.465461
 20
67.870523
 30
0.0
 10
98.465231
 20
68.394666
 30
0.0
  0
LINE
  5
10d
100
AcDbEntity
  8
0
 62
7
100
AcDbLine
 10
98.465231
 20
68.394666
 30
0.0
 11
98.465231
 21
68.394666
 31
0.0
  0
SPLINE
  5
10e
100
AcDbEntity
  8
0
 62
7
100
AcDbSpline
 70
8
 71
3
 72
8
 73
4
 74
0
 40
0
 40
0
 40
0
 40
0
 40
1
 40
1
 40
1
 40
1
 10
36.598564
 20
16.128008
 30
0.0
 10
36.598794
 20
16.652151
 30
0.0
 10
36.319299
 20
17.136577
 30
0.0
 10
35.865416
 20
17.398715
 30
0.0
  0
SPLINE
  5
10f
100
AcDbEntity
  8
0
 62
7
100
AcDbSpline
 70
8
 71
3
 72
8
 73
4
 74
0
 40
0
 40
0
 40
0
 40
0
 40
1
 40
1
 40
1
 40
1
 10
35.865416
 20
17.398715
 30
0.0
 10
35.411534
 20
17.660853
 30
0.0
 10
34.852261
 20
17.660853
 30
0.0
 10
34.398378
 20
17.398715
 30
0.0
  0
SPLINE
  5
110
100
AcDbEntity
  8
0
 62
7
100
AcDbSpline
 70
8
 71
3
 72
8
 73
4
 74
0
 40
0
 40
0
 40
0
 40
0
 40
1
 40
1
 40
1
 40
1
 10
34.398378
 20
17.398715
 30
0.0
 10
33.944495
 20
17.136577
 30
0.0
 10
33.665001
 20
16.652151
 30
0.0
 10
33.665231
 20
16.128008
 30
0.0
  0
SPLINE
  5
111
100
AcDbEntity
  8
0
 62
7
100
AcDbSpline
 70
8
 71
3
 72
8
 73
4
 74
0
 40
0
 40
0
 40
0
 40
0
 40
1
 40
1
 40
1
 40
1
 10
33.665231
 20
16.128008
 30
0.0
 10
33.665001
 20
15.603865
 30
0.0
 10
33.944495
 20
15.119439
 30
0.0
 10
34.398378
 20
14.857301
 30
0.0
  0
SPLINE
  5
112
100
AcDbEntity
  8
0
 62
7
100
AcDbSpline
 70
8
 71
3
 72
8
 73
4
 74
0
 40
0
 40
0
 40
0
 40
0
 40
1
 40
1
 40
1
 40
1
 10
34.398378
 20
14.857301
 30
0.0
 10
34.852261
 20
14.595163
 30
0.0
 10
35.411534
 20
14.595163
 30
0.0
 10
35.865416
 20
14.857301
 30
0.0
  0
SPLINE
  5
113
100
AcDbEntity
  8
0
 62
7
100
AcDbSpline
 70
8
 71
3
 72
8
 73
4
 74
0
 40
0
 40
0
 40
0
 40
0
 40
1
 40
1
 40
1
 40
1
 10
35.865416
 20
14.857301
 30
0.0
 10
36.319299
 20
15.119439
 30
0.0
 10
36.598794
 20
15.603865
 30
0.0
 10
36.598564
 20
16.128008
 30
0.0
  0
LINE
  5
114
100
AcDbEntity
  8
0
 62
7
100
AcDbLine
 10
36.598564
 20
16.128008
 30
0.0
 11
36.598564
 21
16.128008
 31
0.0
  0
SPLINE
  5
115
100
AcDbEntity
  8
0
 62
7
100
AcDbSpline
 70
8
 71
3
 72
8
 73
4
 74
0
 40
0
 40
0
 40
0
 40
0
 40
1
 40
1
 40
1
 40
1
 10
15.187364
 20
94.013865
 30
0.0
 10
15.187596
 20
94.547536
 30
0.0
 10
14.903019
 20
95.040768
 30
0.0
 10
14.440885
 20
95.307671
 30
0.0
  0
SPLINE
  5
116
100
AcDbEntity
  8
0
 62
7
100
AcDbSpline
 70
8
 71
3
 72
8
 73
4
 74
0
 40
0
 40
0
 40
0
 40
0
 40
1
 40
1
 40
1
 40
1
 10
14.440885
 20
95.307671
 30
0.0
 10
13.978750
 20
95.574574
 30
0.0
 10
13.409311
 20
95.574574
 30
0.0
 10
12.947176
 20
95.307671
 30
0.0
  0
SPLINE
  5
117
100
AcDbEntity
  8
0
 62
7
100
AcDbSpline
 70
8
 71
3
 72
8
 73
4
 74
0
 40
0
 40
0
 40
0
 40
0
 40
1
 40
1
 40
1
 40
1
 10
12.947176
 20
95.307671
 30
0.0
 10
12.485042
 20
95.040768
 30
0.0
 10
12.200465
 20
94.547536
 30
0.0
 10
12.200697
 20
94.013865
 30
0.0
  0
SPLINE
  5
118
100
AcDbEntity
  8
0
 62
7
100
AcDbSpline
 70
8
 71
3
 72
8
 73
4
 74
0
 40
0
 40
0
 40
0
 40
0
 40
1
 40
1
 40
1
 40
1
 10
12.200697
 20
94.013865
 30
0.0
 10
12.200465
 20
93.480194
 30
0.0
 10
12.485042
 20
92.986962
 30
0.0
 10
12.947176
 20
92.720060
 30
0.0
  0
SPLINE
  5
119
100
AcDbEntity
  8
0
 62
7
100
AcDbSpline
 70
8
 71
3
 72
8
 73
4
 74
0
 40
0
 40
0
 40
0
 40
0
 40
1
 40
1
 40
1
 40
1
 10
12.947176
 20
92.720060
 30
0.0
 10
13.409311
 20
92.453157
 30
0.0
 10
13.978750
 20
92.453157
 30
0.0
 10
14.440885
 20
92.720060
 30
0.0
  0
SPLINE
  5
11a
100
AcDbEntity
  8
0
 62
7
100
AcDbSpline
 70
8
 71
3
 72
8
 73
4
 74
0
 40
0
 40
0
 40
0
 40
0
 40
1
 40
1
 40
1
 40
1
 10
14.440885
 20
92.720060
 30
0.0
 10
14.903019
 20
92.986962
 30
0.0
 10
15.187596
 20
93.480194
 30
0.0
 10
15.187364
 20
94.013865
 30
0.0
  0
LINE
  5
11b
100
AcDbEntity
  8
0
 62
7
100
AcDbLine
 10
15.187364
 20
94.013865
 30
0.0
 11
15.187364
 21
94.013865
 31
0.0
  0
SPLINE
  5
11c
100
AcDbEntity
  8
0
 62
7
100
AcDbSpline
 70
8
 71
3
 72
8
 73
4
 74
0
 40
0
 40
0
 40
0
 40
0
 40
1
 40
1
 40
1
 40
1
 10
98.500430
 20
94.013865
 30
0.0
 10
98.501086
 20
94.547819
 30
0.0
 10
98.216602
 20
95.041494
 30
0.0
 10
97.754294
 20
95.308660
 30
0.0
  0
SPLINE
  5
11d
100
AcDbEntity
  8
0
 62
7
100
AcDbSpline
 70
8
 71
3
 72
8
 73
4
 74
0
 40
0
 40
0
 40
0
 40
0
 40
1
 40
1
 40
1
 40
1
 10
97.754294
 20
95.308660
 30
0.0
 10
97.291986
 20
95.575827
 30
0.0
 10
96.722209
 20
95.575827
 30
0.0
 10
96.259900
 20
95.308660
 30
0.0
  0
SPLINE
  5
11e
100
AcDbEntity
  8
0
 62
7
100
AcDbSpline
 70
8
 71
3
 72
8
 73
4
 74
0
 40
0
 40
0
 40
0
 40
0
 40
1
 40
1
 40
1
 40
1
 10
96.259900
 20
95.308660
 30
0.0
 10
95.797592
 20
95.041494
 30
0.0
 10
95.513108
 20
94.547819
 30
0.0
 10
95.513765
 20
94.013865
 30
0.0
  0
SPLINE
  5
11f
100
AcDbEntity
  8
0
 62
7
100
AcDbSpline
 70
8
 71
3
 72
8
 73
4
 74
0
 40
0
 40
0
 40
0
 40
0
 40
1
 40
1
 40
1
 40
1
 10
95.513765
 20
94.013865
 30
0.0
 10
95.513108
 20
93.479912
 30
0.0
 10
95.797592
 20
92.986237
 30
0.0
 10
96.259900
 20
92.719071
 30
0.0
  0
SPLINE
  5
120
100
AcDbEntity
  8
0
 62
7
100
AcDbSpline
 70
8
 71
3
 72
8
 73
4
 74
0
 40
0
 40
0
 40
0
 40
0
 40
1
 40
1
 40
1
 40
1
 10
96.259900
 20
92.719071
 30
0.0
 10
96.722209
 20
92.451904
 30
0.0
 10
97.291986
 20
92.451904
 30
0.0
 10
97.754294
 20
92.719071
 30
0.0
  0
SPLINE
  5
121
100
AcDbEntity
  8
0
 62
7
100
AcDbSpline
 70
8
 71
3
 72
8
 73
4
 74
0
 40
0
 40
0
 40
0
 40
0
 40
1
 40
1
 40
1
 40
1
 10
97.754294
 20
92.719071
 30
0.0
 10
98.216602
 20
92.986237
 30
0.0
 10
98.501086
 20
93.479912
 30
0.0
 10
98.500430
 20
94.013865
 30
0.0
  0
LINE
  5
122
100
AcDbEntity
  8
0
 62
7
100
AcDbLine
 10
98.500430
 20
94.013865
 30
0.0
 11
98.500430
 21
94.013865
 31
0.0
  0
SPLINE
  5
123
100
AcDbEntity
  8
0
 62
7
100
AcDbSpline
 70
8
 71
3
 72
8
 73
4
 74
0
 40
0
 40
0
 40
0
 40
0
 40
1
 40
1
 40
1
 40
1
 10
98.465231
 20
16.128008
 30
0.0
 10
98.465461
 20
16.652151
 30
0.0
 10
98.185966
 20
17.136577
 30
0.0
 10
97.732083
 20
17.398715
 30
0.0
  0
SPLINE
  5
124
100
AcDbEntity
  8
0
 62
7
100
AcDbSpline
 70
8
 71
3
 72
8
 73
4
 74
0
 40
0
 40
0
 40
0
 40
0
 40
1
 40
1
 40
1
 40
1
 10
97.732083
 20
17.398715
 30
0.0
 10
97.278201
 20
17.660853
 30
0.0
 10
96.718928
 20
17.660853
 30
0.0
 10
96.265045
 20
17.398715
 30
0.0
  0
SPLINE
  5
125
100
AcDbEntity
  8
0
 62
7
100
AcDbSpline
 70
8
 71
3
 72
8
 73
4
 74
0
 40
0
 40
0
 40
0
 40
0
 40
1
 40
1
 40
1
 40
1
 10
96.265045
 20
17.398715
 30
0.0
 10
95.811163
 20
17.136577
 30
0.0
 10
95.531668
 20
16.652151
 30
0.0
 10
95.531898
 20
16.128008
 30
0.0
  0
SPLINE
  5
126
100
AcDbEntity
  8
0
 62
7
100
AcDbSpline
 70
8
 71
3
 72
8
 73
4
 74
0
 40
0
 40
0
 40
0
 40
0
 40
1
 40
1
 40
1
 40
1
 10
95.531898
 20
16.128008
 30
0.0
 10
95.531668
 20
15.603865
 30
0.0
 10
95.811163
 20
15.119439
 30
0.0
 10
96.265045
 20
14.857301
 30
0.0
  0
SPLINE
  5
127
100
AcDbEntity
  8
0
 62
7
100
AcDbSpline
 70
8
 71
3
 72
8
 73
4
 74
0
 40
0
 40
0
 40
0
 40
0
 40
1
 40
1
 40
1
 40
1
 10
96.265045
 20
14.857301
 30
0.0
 10
96.718928
 20
14.595163
 30
0.0
 10
97.278201
 20
14.595163
 30
0.0
 10
97.732083
 20
14.857301
 30
0.0
  0
SPLINE
  5
128
100
AcDbEntity
  8
0
 62
7
100
AcDbSpline
 70
8
 71
3
 72
8
 73
4
 74
0
 40
0
 40
0
 40
0
 40
0
 40
1
 40
1
 40
1
 40
1
 10
97.732083
 20
14.857301
 30
0.0
 10
98.185966
 20
15.119439
 30
0.0
 10
98.465461
 20
15.603865
 30
0.0
 10
98.465231
 20
16.128008
 30
0.0
  0
LINE
  5
129
100
AcDbEntity
  8
0
 62
7
100
AcDbLine
 10
98.465231
 20
16.128008
 30
0.0
 11
98.465231
 21
16.128008
 31
0.0
  0
SPLINE
  5
12a
100
AcDbEntity
  8
0
 62
7
100
AcDbSpline
 70
8
 71
3
 72
8
 73
4
 74
0
 40
0
 40
0
 40
0
 40
0
 40
1
 40
1
 40
1
 40
1
 10
100.207098
 20
99.347199
 30
0.0
 10
101.385305
 20
99.347198
 30
0.0
 10
102.340431
 20
98.392072
 30
0.0
 10
102.340430
 20
97.213865
 30
0.0
  0
SPLINE
  5
12b
100
AcDbEntity
  8
0
 62
7
100
AcDbSpline
 70
8
 71
3
 72
8
 73
4
 74
0
 40
0
 40
0
 40
0
 40
0
 40
1
 40
1
 40
1
 40
1
 10
102.340430
 20
97.213865
 30
0.0
 10
102.340430
 20
97.213865
 30
0.0
 10
102.340430
 20
12.928003
 30
0.0
 10
102.340430
 20
12.928003
 30
0.0
  0
SPLINE
  5
12c
100
AcDbEntity
  8
0
 62
7
100
AcDbSpline
 70
8
 71
3
 72
8
 73
4
 74
0
 40
0
 40
0
 40
0
 40
0
 40
1
 40
1
 40
1
 40
1
 10
102.340430
 20
12.928003
 30
0.0
 10
102.340433
 20
12.362206
 30
0.0
 10
102.115674
 20
11.819581
 30
0.0
 10
101.715596
 20
11.419501
 30
0.0
  0
SPLINE
  5
12d
100
AcDbEntity
  8
0
 62
7
100
AcDbSpline
 70
8
 71
3
 72
8
 73
4
 74
0
 40
0
 40
0
 40
0
 40
0
 40
1
 40
1
 40
1
 40
1
 10
101.715596
 20
11.419501
 30
0.0
 10
101.315518
 20
11.019421
 30
0.0
 10
100.772895
 20
10.794657
 30
0.0
 10
100.207098
 20
10.794657
 30
0.0
  0
SPLINE
  5
12e
100
AcDbEntity
  8
0
 62
7
100
AcDbSpline
 70
8
 71
3
 72
8
 73
4
 74
0
 40
0
 40
0
 40
0
 40
0
 40
1
 40
1
 40
1
 40
1
 10
100.207098
 20
10.794657
 30
0.0
 10
100.207098
 20
10.794657
 30
0.0
 10
10.494031
 20
10.794657
 30
0.0
 10
10.494031
 20
10.794657
 30
0.0
  0
SPLINE
  5
12f
100
AcDbEntity
  8
0
 62
7
100
AcDbSpline
 70
8
 71
3
 72
8
 73
4
 74
0
 40
0
 40
0
 40
0
 40
0
 40
1
 40
1
 40
1
 40
1
 10
10.494031
 20
10.794657
 30
0.0
 10
9.928233
 20
10.794657
 30
0.0
 10
9.385610
 20
11.019420
 30
0.0
 10
8.985531
 20
11.419500
 30
0.0
  0
SPLINE
  5
130
100
AcDbEntity
  8
0
 62
7
100
AcDbSpline
 70
8
 71
3
 72
8
 73
4
 74
0
 40
0
 40
0
 40
0
 40
0
 40
1
 40
1
 40
1
 40
1
 10
8.985531
 20
11.419500
 30
0.0
 10
8.585453
 20
11.819581
 30
0.0
 10
8.360694
 20
12.362206
 30
0.0
 10
8.360697
 20
12.928003
 30
0.0
  0
SPLINE
  5
131
100
AcDbEntity
  8
0
 62
7
100
AcDbSpline
 70
8
 71
3
 72
8
 73
4
 74
0
 40
0
 40
0
 40
0
 40
0
 40
1
 40
1
 40
1
 40
1
 10
8.360697
 20
12.928003
 30
0.0
 10
8.360697
 20
12.928003
 30
0.0
 10
8.360697
 20
97.213865
 30
0.0
 10
8.360697
 20
97.213865
 30
0.0
  0
SPLINE
  5
132
100
AcDbEntity
  8
0
 62
7
100
AcDbSpline
 70
8
 71
3
 72
8
 73
4
 74
0
 40
0
 40
0
 40
0
 40
0
 40
1
 40
1
 40
1
 40
1
 10
8.360697
 20
97.213865
 30
0.0
 10
8.360697
 20
97.779660
 30
0.0
 10
8.585458
 20
98.322282
 30
0.0
 10
8.985535
 20
98.722360
 30
0.0
  0
SPLINE
  5
133
100
AcDbEntity
  8
0
 62
7
100
AcDbSpline
 70
8
 71
3
 72
8
 73
4
 74
0
 40
0
 40
0
 40
0
 40
0
 40
1
 40
1
 40
1
 40
1
 10
8.985535
 20
98.722360
 30
0.0
 10
9.385613
 20
99.122438
 30
0.0
 10
9.928235
 20
99.347199
 30
0.0
 10
10.494031
 20
99.347199
 30
0.0
  0
LINE
  5
134
100
AcDbEntity
  8
0
 62
7
100
AcDbLine
 10
10.494031
 20
99.347199
 30
0.0
 11
100.207098
 21
99.347199
 31
0.0
  0
SPLINE
  5
135
100
AcDbEntity
  8
0
 62
7
100
AcDbSpline
 70
8
 71
3
 72
8
 73
4
 74
0
 40
0
 40
0
 40
0
 40
0
 40
1
 40
1
 40
1
 40
1
 10
130.166556
 20
114.956642
 30
0.0
 10
130.166556
 20
116.094950
 30
0.0
 10
129.556582
 20
117.146789
 30
0.0
 10
128.566406
 20
117.715943
 30
0.0
  0
SPLINE
  5
136
100
AcDbEntity
  8
0
 62
7
100
AcDbSpline
 70
8
 71
3
 72
8
 73
4
 74
0
 40
0
 40
0
 40
0
 40
0
 40
1
 40
1
 40
1
 40
1
 10
128.566406
 20
117.715943
 30
0.0
 10
127.576230
 20
118.285097
 30
0.0
 10
126.356282
 20
118.285097
 30
0.0
 10
125.366106
 20
117.715943
 30
0.0
  0
SPLINE
  5
137
100
AcDbEntity
  8
0
 62
7
100
AcDbSpline
 70
8
 71
3
 72
8
 73
4
 74
0
 40
0
 40
0
 40
0
 40
0
 40
1
 40
1
 40
1
 40
1
 10
125.366106
 20
117.715943
 30
0.0
 10
124.375930
 20
117.146789
 30
0.0
 10
123.765956
 20
116.094950
 30
0.0
 10
123.765956
 20
114.956642
 30
0.0
  0
SPLINE
  5
138
100
AcDbEntity
  8
0
 62
7
100
AcDbSpline
 70
8
 71
3
 72
8
 73
4
 74
0
 40
0
 40
0
 40
0
 40
0
 40
1
 40
1
 40
1
 40
1
 10
123.765956
 20
114.956642
 30
0.0
 10
123.765956
 20
113.818335
 30
0.0
 10
124.375930
 20
112.766495
 30
0.0
 10
125.366106
 20
112.197341
 30
0.0
  0
SPLINE
  5
139
100
AcDbEntity
  8
0
 62
7
100
AcDbSpline
 70
8
 71
3
 72
8
 73
4
 74
0
 40
0
 40
0
 40
0
 40
0
 40
1
 40
1
 40
1
 40
1
 10
125.366106
 20
112.197341
 30
0.0
 10
126.356282
 20
111.628188
 30
0.0
 10
127.576230
 20
111.628188
 30
0.0
 10
128.566406
 20
112.197341
 30
0.0
  0
SPLINE
  5
13a
100
AcDbEntity
  8
0
 62
7
100
AcDbSpline
 70
8
 71
3
 72
8
 73
4
 74
0
 40
0
 40
0
 40
0
 40
0
 40
1
 40
1
 40
1
 40
1
 10
128.566406
 20
112.197341
 30
0.0
 10
129.556582
 20
112.766495
 30
0.0
 10
130.166556
 20
113.818335
 30
0.0
 10
130.166556
 20
114.956642
 30
0.0
  0
LINE
  5
13b
100
AcDbEntity
  8
0
 62
7
100
AcDbLine
 10
130.166556
 20
114.956642
 30
0.0
 11
130.166556
 21
114.956642
 31
0.0
  0
SPLINE
  5
13c
100
AcDbEntity
  8
0
 62
7
100
AcDbSpline
 70
8
 71
3
 72
8
 73
4
 74
0
 40
0
 40
0
 40
0
 40
0
 40
1
 40
1
 40
1
 40
1
 10
180.432923
 20
109.221463
 30
0.0
 10
180.432923
 20
109.745453
 30
0.0
 10
180.153378
 20
110.229639
 30
0.0
 10
179.699590
 20
110.491634
 30
0.0
  0
SPLINE
  5
13d
100
AcDbEntity
  8
0
 62
7
100
AcDbSpline
 70
8
 71
3
 72
8
 73
4
 74
0
 40
0
 40
0
 40
0
 40
0
 40
1
 40
1
 40
1
 40
1
 10
179.699590
 20
110.491634
 30
0.0
 10
179.245801
 20
110.753629
 30
0.0
 10
178.686711
 20
110.753629
 30
0.0
 10
178.232923
 20
110.491634
 30
0.0
  0
SPLINE
  5
13e
100
AcDbEntity
  8
0
 62
7
100
AcDbSpline
 70
8
 71
3
 72
8
 73
4
 74
0
 40
0
 40
0
 40
0
 40
0
 40
1
 40
1
 40
1
 40
1
 10
178.232923
 20
110.491634
 30
0.0
 10
177.779135
 20
110.229639
 30
0.0
 10
177.499590
 20
109.745453
 30
0.0
 10
177.499590
 20
109.221463
 30
0.0
  0
SPLINE
  5
13f
100
AcDbEntity
  8
0
 62
7
100
AcDbSpline
 70
8
 71
3
 72
8
 73
4
 74
0
 40
0
 40
0
 40
0
 40
0
 40
1
 40
1
 40
1
 40
1
 10
177.499590
 20
109.221463
 30
0.0
 10
177.499590
 20
108.697474
 30
0.0
 10
177.779135
 20
108.213287
 30
0.0
 10
178.232923
 20
107.951293
 30
0.0
  0
SPLINE
  5
140
100
AcDbEntity
  8
0
 62
7
100
AcDbSpline
 70
8
 71
3
 72
8
 73
4
 74
0
 40
0
 40
0
 40
0
 40
0
 40
1
 40
1
 40
1
 40
1
 10
178.232923
 20
107.951293
 30
0.0
 10
178.686711
 20
107.689298
 30
0.0
 10
179.245801
 20
107.689298
 30
0.0
 10
179.699590
 20
107.951293
 30
0.0
  0
SPLINE
  5
141
100
AcDbEntity
  8
0
 62
7
100
AcDbSpline
 70
8
 71
3
 72
8
 73
4
 74
0
 40
0
 40
0
 40
0
 40
0
 40
1
 40
1
 40
1
 40
1
 10
179.699590
 20
107.951293
 30
0.0
 10
180.153378
 20
108.213287
 30
0.0
 10
180.432923
 20
108.697474
 30
0.0
 10
180.432923
 20
109.221463
 30
0.0
  0
LINE
  5
142
100
AcDbEntity
  8
0
 62
7
100
AcDbLine
 10
180.432923
 20
109.221463
 30
0.0
 11
180.432923
 21
109.221463
 31
0.0
  0
SPLINE
  5
143
100
AcDbEntity
  8
0
 62
7
100
AcDbSpline
 70
8
 71
3
 72
8
 73
4
 74
0
 40
0
 40
0
 40
0
 40
0
 40
1
 40
1
 40
1
 40
1
 10
118.566257
 20
109.221463
 30
0.0
 10
118.566487
 20
109.745606
 30
0.0
 10
118.286993
 20
110.230032
 30
0.0
 10
117.833110
 20
110.492170
 30
0.0
  0
SPLINE
  5
144
100
AcDbEntity
  8
0
 62
7
100
AcDbSpline
 70
8
 71
3
 72
8
 73
4
 74
0
 40
0
 40
0
 40
0
 40
0
 40
1
 40
1
 40
1
 40
1
 10
117.833110
 20
110.492170
 30
0.0
 10
117.379227
 20
110.754308
 30
0.0
 10
116.819954
 20
110.754308
 30
0.0
 10
116.366072
 20
110.492170
 30
0.0
  0
SPLINE
  5
145
100
AcDbEntity
  8
0
 62
7
100
AcDbSpline
 70
8
 71
3
 72
8
 73
4
 74
0
 40
0
 40
0
 40
0
 40
0
 40
1
 40
1
 40
1
 40
1
 10
116.366072
 20
110.492170
 30
0.0
 10
115.912189
 20
110.230032
 30
0.0
 10
115.632694
 20
109.745606
 30
0.0
 10
115.632924
 20
109.221463
 30
0.0
  0
SPLINE
  5
146
100
AcDbEntity
  8
0
 62
7
100
AcDbSpline
 70
8
 71
3
 72
8
 73
4
 74
0
 40
0
 40
0
 40
0
 40
0
 40
1
 40
1
 40
1
 40
1
 10
115.632924
 20
109.221463
 30
0.0
 10
115.632694
 20
108.697321
 30
0.0
 10
115.912189
 20
108.212894
 30
0.0
 10
116.366072
 20
107.950757
 30
0.0
  0
SPLINE
  5
147
100
AcDbEntity
  8
0
 62
7
100
AcDbSpline
 70
8
 71
3
 72
8
 73
4
 74
0
 40
0
 40
0
 40
0
 40
0
 40
1
 40
1
 40
1
 40
1
 10
116.366072
 20
107.950757
 30
0.0
 10
116.819954
 20
107.688619
 30
0.0
 10
117.379227
 20
107.688619
 30
0.0
 10
117.833110
 20
107.950757
 30
0.0
  0
SPLINE
  5
148
100
AcDbEntity
  8
0
 62
7
100
AcDbSpline
 70
8
 71
3
 72
8
 73
4
 74
0
 40
0
 40
0
 40
0
 40
0
 40
1
 40
1
 40
1
 40
1
 10
117.833110
 20
107.950757
 30
0.0
 10
118.286993
 20
108.212894
 30
0.0
 10
118.566487
 20
108.697321
 30
0.0
 10
118.566257
 20
109.221463
 30
0.0
  0
LINE
  5
149
100
AcDbEntity
  8
0
 62
7
100
AcDbLine
 10
118.566257
 20
109.221463
 30
0.0
 11
118.566257
 21
109.221463
 31
0.0
  0
SPLINE
  5
14a
100
AcDbEntity
  8
0
 62
7
100
AcDbSpline
 70
8
 71
3
 72
8
 73
4
 74
0
 40
0
 40
0
 40
0
 40
0
 40
1
 40
1
 40
1
 40
1
 10
118.584390
 20
187.107318
 30
0.0
 10
118.584390
 20
187.640835
 30
0.0
 10
118.299762
 20
188.133824
 30
0.0
 10
117.837723
 20
188.400583
 30
0.0
  0
SPLINE
  5
14b
100
AcDbEntity
  8
0
 62
7
100
AcDbSpline
 70
8
 71
3
 72
8
 73
4
 74
0
 40
0
 40
0
 40
0
 40
0
 40
1
 40
1
 40
1
 40
1
 10
117.837723
 20
188.400583
 30
0.0
 10
117.375684
 20
188.667341
 30
0.0
 10
116.806429
 20
188.667341
 30
0.0
 10
116.344390
 20
188.400583
 30
0.0
  0
SPLINE
  5
14c
100
AcDbEntity
  8
0
 62
7
100
AcDbSpline
 70
8
 71
3
 72
8
 73
4
 74
0
 40
0
 40
0
 40
0
 40
0
 40
1
 40
1
 40
1
 40
1
 10
116.344390
 20
188.400583
 30
0.0
 10
115.882350
 20
188.133824
 30
0.0
 10
115.597723
 20
187.640835
 30
0.0
 10
115.597723
 20
187.107318
 30
0.0
  0
SPLINE
  5
14d
100
AcDbEntity
  8
0
 62
7
100
AcDbSpline
 70
8
 71
3
 72
8
 73
4
 74
0
 40
0
 40
0
 40
0
 40
0
 40
1
 40
1
 40
1
 40
1
 10
115.597723
 20
187.107318
 30
0.0
 10
115.597723
 20
186.573801
 30
0.0
 10
115.882350
 20
186.080811
 30
0.0
 10
116.344390
 20
185.814053
 30
0.0
  0
SPLINE
  5
14e
100
AcDbEntity
  8
0
 62
7
100
AcDbSpline
 70
8
 71
3
 72
8
 73
4
 74
0
 40
0
 40
0
 40
0
 40
0
 40
1
 40
1
 40
1
 40
1
 10
116.344390
 20
185.814053
 30
0.0
 10
116.806429
 20
185.547294
 30
0.0
 10
117.375684
 20
185.547294
 30
0.0
 10
117.837723
 20
185.814053
 30
0.0
  0
SPLINE
  5
14f
100
AcDbEntity
  8
0
 62
7
100
AcDbSpline
 70
8
 71
3
 72
8
 73
4
 74
0
 40
0
 40
0
 40
0
 40
0
 40
1
 40
1
 40
1
 40
1
 10
117.837723
 20
185.814053
 30
0.0
 10
118.299762
 20
186.080811
 30
0.0
 10
118.584390
 20
186.573801
 30
0.0
 10
118.584390
 20
187.107318
 30
0.0
  0
LINE
  5
150
100
AcDbEntity
  8
0
 62
7
100
AcDbLine
 10
118.584390
 20
187.107318
 30
0.0
 11
118.584390
 21
187.107318
 31
0.0
  0
SPLINE
  5
151
100
AcDbEntity
  8
0
 62
7
100
AcDbSpline
 70
8
 71
3
 72
8
 73
4
 74
0
 40
0
 40
0
 40
0
 40
0
 40
1
 40
1
 40
1
 40
1
 10
201.897456
 20
187.107318
 30
0.0
 10
201.897688
 20
187.640989
 30
0.0
 10
201.613111
 20
188.134221
 30
0.0
 10
201.150977
 20
188.401123
 30
0.0
  0
SPLINE
  5
152
100
AcDbEntity
  8
0
 62
7
100
AcDbSpline
 70
8
 71
3
 72
8
 73
4
 74
0
 40
0
 40
0
 40
0
 40
0
 40
1
 40
1
 40
1
 40
1
 10
201.150977
 20
188.401123
 30
0.0
 10
200.688843
 20
188.668026
 30
0.0
 10
200.119403
 20
188.668026
 30
0.0
 10
199.657269
 20
188.401123
 30
0.0
  0
SPLINE
  5
153
100
AcDbEntity
  8
0
 62
7
100
AcDbSpline
 70
8
 71
3
 72
8
 73
4
 74
0
 40
0
 40
0
 40
0
 40
0
 40
1
 40
1
 40
1
 40
1
 10
199.657269
 20
188.401123
 30
0.0
 10
199.195135
 20
188.134221
 30
0.0
 10
198.910558
 20
187.640989
 30
0.0
 10
198.910790
 20
187.107318
 30
0.0
  0
SPLINE
  5
154
100
AcDbEntity
  8
0
 62
7
100
AcDbSpline
 70
8
 71
3
 72
8
 73
4
 74
0
 40
0
 40
0
 40
0
 40
0
 40
1
 40
1
 40
1
 40
1
 10
198.910790
 20
187.107318
 30
0.0
 10
198.910558
 20
186.573647
 30
0.0
 10
199.195135
 20
186.080415
 30
0.0
 10
199.657269
 20
185.813512
 30
0.0
  0
SPLINE
  5
155
100
AcDbEntity
  8
0
 62
7
100
AcDbSpline
 70
8
 71
3
 72
8
 73
4
 74
0
 40
0
 40
0
 40
0
 40
0
 40
1
 40
1
 40
1
 40
1
 10
199.657269
 20
185.813512
 30
0.0
 10
200.119403
 20
185.546609
 30
0.0
 10
200.688843
 20
185.546609
 30
0.0
 10
201.150977
 20
185.813512
 30
0.0
  0
SPLINE
  5
156
100
AcDbEntity
  8
0
 62
7
100
AcDbSpline
 70
8
 71
3
 72
8
 73
4
 74
0
 40
0
 40
0
 40
0
 40
0
 40
1
 40
1
 40
1
 40
1
 10
201.150977
 20
185.813512
 30
0.0
 10
201.613111
 20
186.080415
 30
0.0
 10
201.897688
 20
186.573647
 30
0.0
 10
201.897456
 20
187.107318
 30
0.0
  0
LINE
  5
157
100
AcDbEntity
  8
0
 62
7
100
AcDbLine
 10
201.897456
 20
187.107318
 30
0.0
 11
201.897456
 21
187.107318
 31
0.0
  0
SPLINE
  5
158
100
AcDbEntity
  8
0
 62
7
100
AcDbSpline
 70
8
 71
3
 72
8
 73
4
 74
0
 40
0
 40
0
 40
0
 40
0
 40
1
 40
1
 40
1
 40
1
 10
197.782256
 20
181.349448
 30
0.0
 10
197.782716
 20
183.445713
 30
0.0
 10
196.664636
 20
185.382938
 30
0.0
 10
194.849295
 20
186.431203
 30
0.0
  0
SPLINE
  5
159
100
AcDbEntity
  8
0
 62
7
100
AcDbSpline
 70
8
 71
3
 72
8
 73
4
 74
0
 40
0
 40
0
 40
0
 40
0
 40
1
 40
1
 40
1
 40
1
 10
194.849295
 20
186.431203
 30
0.0
 10
193.033953
 20
187.479468
 30
0.0
 10
190.797227
 20
187.479468
 30
0.0
 10
188.981885
 20
186.431203
 30
0.0
  0
SPLINE
  5
15a
100
AcDbEntity
  8
0
 62
7
100
AcDbSpline
 70
8
 71
3
 72
8
 73
4
 74
0
 40
0
 40
0
 40
0
 40
0
 40
1
 40
1
 40
1
 40
1
 10
188.981885
 20
186.431203
 30
0.0
 10
187.166543
 20
185.382938
 30
0.0
 10
186.048463
 20
183.445713
 30
0.0
 10
186.048923
 20
181.349448
 30
0.0
  0
SPLINE
  5
15b
100
AcDbEntity
  8
0
 62
7
100
AcDbSpline
 70
8
 71
3
 72
8
 73
4
 74
0
 40
0
 40
0
 40
0
 40
0
 40
1
 40
1
 40
1
 40
1
 10
186.048923
 20
181.349448
 30
0.0
 10
186.048463
 20
179.253184
 30
0.0
 10
187.166543
 20
177.315959
 30
0.0
 10
188.981885
 20
176.267693
 30
0.0
  0
SPLINE
  5
15c
100
AcDbEntity
  8
0
 62
7
100
AcDbSpline
 70
8
 71
3
 72
8
 73
4
 74
0
 40
0
 40
0
 40
0
 40
0
 40
1
 40
1
 40
1
 40
1
 10
188.981885
 20
176.267693
 30
0.0
 10
190.797227
 20
175.219428
 30
0.0
 10
193.033953
 20
175.219428
 30
0.0
 10
194.849295
 20
176.267693
 30
0.0
  0
SPLINE
  5
15d
100
AcDbEntity
  8
0
 62
7
100
AcDbSpline
 70
8
 71
3
 72
8
 73
4
 74
0
 40
0
 40
0
 40
0
 40
0
 40
1
 40
1
 40
1
 40
1
 10
194.849295
 20
176.267693
 30
0.0
 10
196.664636
 20
177.315959
 30
0.0
 10
197.782716
 20
179.253184
 30
0.0
 10
197.782256
 20
181.349448
 30
0.0
  0
LINE
  5
15e
100
AcDbEntity
  8
0
 62
7
100
AcDbLine
 10
197.782256
 20
181.349448
 30
0.0
 11
197.782256
 21
181.349448
 31
0.0
  0
SPLINE
  5
15f
100
AcDbEntity
  8
0
 62
7
100
AcDbSpline
 70
8
 71
3
 72
8
 73
4
 74
0
 40
0
 40
0
 40
0
 40
0
 40
1
 40
1
 40
1
 40
1
 10
181.526256
 20
181.349448
 30
0.0
 10
181.527053
 20
183.445937
 30
0.0
 10
180.409047
 20
185.383513
 30
0.0
 10
178.593567
 20
186.431988
 30
0.0
  0
SPLINE
  5
160
100
AcDbEntity
  8
0
 62
7
100
AcDbSpline
 70
8
 71
3
 72
8
 73
4
 74
0
 40
0
 40
0
 40
0
 40
0
 40
1
 40
1
 40
1
 40
1
 10
178.593567
 20
186.431988
 30
0.0
 10
176.778087
 20
187.480462
 30
0.0
 10
174.541093
 20
187.480462
 30
0.0
 10
172.725613
 20
186.431988
 30
0.0
  0
SPLINE
  5
161
100
AcDbEntity
  8
0
 62
7
100
AcDbSpline
 70
8
 71
3
 72
8
 73
4
 74
0
 40
0
 40
0
 40
0
 40
0
 40
1
 40
1
 40
1
 40
1
 10
172.725613
 20
186.431988
 30
0.0
 10
170.910133
 20
185.383513
 30
0.0
 10
169.792127
 20
183.445937
 30
0.0
 10
169.792924
 20
181.349448
 30
0.0
  0
SPLINE
  5
162
100
AcDbEntity
  8
0
 62
7
100
AcDbSpline
 70
8
 71
3
 72
8
 73
4
 74
0
 40
0
 40
0
 40
0
 40
0
 40
1
 40
1
 40
1
 40
1
 10
169.792924
 20
181.349448
 30
0.0
 10
169.792127
 20
179.252959
 30
0.0
 10
170.910133
 20
177.315383
 30
0.0
 10
172.725613
 20
176.266909
 30
0.0
  0
SPLINE
  5
163
100
AcDbEntity
  8
0
 62
7
100
AcDbSpline
 70
8
 71
3
 72
8
 73
4
 74
0
 40
0
 40
0
 40
0
 40
0
 40
1
 40
1
 40
1
 40
1
 10
172.725613
 20
176.266909
 30
0.0
 10
174.541093
 20
175.218434
 30
0.0
 10
176.778087
 20
175.218434
 30
0.0
 10
178.593567
 20
176.266909
 30
0.0
  0
SPLINE
  5
164
100
AcDbEntity
  8
0
 62
7
100
AcDbSpline
 70
8
 71
3
 72
8
 73
4
 74
0
 40
0
 40
0
 40
0
 40
0
 40
1
 40
1
 40
1
 40
1
 10
178.593567
 20
176.266909
 30
0.0
 10
180.409047
 20
177.315383
 30
0.0
 10
181.527053
 20
179.252959
 30
0.0
 10
181.526256
 20
181.349448
 30
0.0
  0
LINE
  5
165
100
AcDbEntity
  8
0
 62
7
100
AcDbLine
 10
181.526256
 20
181.349448
 30
0.0
 11
181.526256
 21
181.349448
 31
0.0
  0
SPLINE
  5
166
100
AcDbEntity
  8
0
 62
7
100
AcDbSpline
 70
8
 71
3
 72
8
 73
4
 74
0
 40
0
 40
0
 40
0
 40
0
 40
1
 40
1
 40
1
 40
1
 10
151.840923
 20
181.349448
 30
0.0
 10
151.840923
 20
182.492698
 30
0.0
 10
151.231007
 20
183.549105
 30
0.0
 10
150.240923
 20
184.120730
 30
0.0
  0
SPLINE
  5
167
100
AcDbEntity
  8
0
 62
7
100
AcDbSpline
 70
8
 71
3
 72
8
 73
4
 74
0
 40
0
 40
0
 40
0
 40
0
 40
1
 40
1
 40
1
 40
1
 10
150.240923
 20
184.120730
 30
0.0
 10
149.250839
 20
184.692355
 30
0.0
 10
148.031006
 20
184.692355
 30
0.0
 10
147.040922
 20
184.120730
 30
0.0
  0
SPLINE
  5
168
100
AcDbEntity
  8
0
 62
7
100
AcDbSpline
 70
8
 71
3
 72
8
 73
4
 74
0
 40
0
 40
0
 40
0
 40
0
 40
1
 40
1
 40
1
 40
1
 10
147.040922
 20
184.120730
 30
0.0
 10
146.050839
 20
183.549105
 30
0.0
 10
145.440922
 20
182.492698
 30
0.0
 10
145.440922
 20
181.349448
 30
0.0
  0
SPLINE
  5
169
100
AcDbEntity
  8
0
 62
7
100
AcDbSpline
 70
8
 71
3
 72
8
 73
4
 74
0
 40
0
 40
0
 40
0
 40
0
 40
1
 40
1
 40
1
 40
1
 10
145.440922
 20
181.349448
 30
0.0
 10
145.440922
 20
180.206198
 30
0.0
 10
146.050839
 20
179.149791
 30
0.0
 10
147.040922
 20
178.578166
 30
0.0
  0
SPLINE
  5
16a
100
AcDbEntity
  8
0
 62
7
100
AcDbSpline
 70
8
 71
3
 72
8
 73
4
 74
0
 40
0
 40
0
 40
0
 40
0
 40
1
 40
1
 40
1
 40
1
 10
147.040922
 20
178.578166
 30
0.0
 10
148.031006
 20
178.006541
 30
0.0
 10
149.250839
 20
178.006541
 30
0.0
 10
150.240923
 20
178.578166
 30
0.0
  0
SPLINE
  5
16b
100
AcDbEntity
  8
0
 62
7
100
AcDbSpline
 70
8
 71
3
 72
8
 73
4
 74
0
 40
0
 40
0
 40
0
 40
0
 40
1
 40
1
 40
1
 40
1
 10
150.240923
 20
178.578166
 30
0.0
 10
151.231007
 20
179.149791
 30
0.0
 10
151.840923
 20
180.206198
 30
0.0
 10
151.840923
 20
181.349448
 30
0.0
  0
LINE
  5
16c
100
AcDbEntity
  8
0
 62
7
100
AcDbLine
 10
151.840923
 20
181.349448
 30
0.0
 11
151.840923
 21
181.349448
 31
0.0
  0
SPLINE
  5
16d
100
AcDbEntity
  8
0
 62
7
100
AcDbSpline
 70
8
 71
3
 72
8
 73
4
 74
0
 40
0
 40
0
 40
0
 40
0
 40
1
 40
1
 40
1
 40
1
 10
130.166257
 20
181.349448
 30
0.0
 10
130.166257
 20
182.492698
 30
0.0
 10
129.556340
 20
183.549105
 30
0.0
 10
128.566256
 20
184.120730
 30
0.0
  0
SPLINE
  5
16e
100
AcDbEntity
  8
0
 62
7
100
AcDbSpline
 70
8
 71
3
 72
8
 73
4
 74
0
 40
0
 40
0
 40
0
 40
0
 40
1
 40
1
 40
1
 40
1
 10
128.566256
 20
184.120730
 30
0.0
 10
127.576173
 20
184.692355
 30
0.0
 10
126.356339
 20
184.692355
 30
0.0
 10
125.366256
 20
184.120730
 30
0.0
  0
SPLINE
  5
16f
100
AcDbEntity
  8
0
 62
7
100
AcDbSpline
 70
8
 71
3
 72
8
 73
4
 74
0
 40
0
 40
0
 40
0
 40
0
 40
1
 40
1
 40
1
 40
1
 10
125.366256
 20
184.120730
 30
0.0
 10
124.376172
 20
183.549105
 30
0.0
 10
123.766255
 20
182.492698
 30
0.0
 10
123.766255
 20
181.349448
 30
0.0
  0
SPLINE
  5
170
100
AcDbEntity
  8
0
 62
7
100
AcDbSpline
 70
8
 71
3
 72
8
 73
4
 74
0
 40
0
 40
0
 40
0
 40
0
 40
1
 40
1
 40
1
 40
1
 10
123.766255
 20
181.349448
 30
0.0
 10
123.766255
 20
180.206198
 30
0.0
 10
124.376172
 20
179.149791
 30
0.0
 10
125.366256
 20
178.578166
 30
0.0
  0
SPLINE
  5
171
100
AcDbEntity
  8
0
 62
7
100
AcDbSpline
 70
8
 71
3
 72
8
 73
4
 74
0
 40
0
 40
0
 40
0
 40
0
 40
1
 40
1
 40
1
 40
1
 10
125.366256
 20
178.578166
 30
0.0
 10
126.356339
 20
178.006541
 30
0.0
 10
127.576173
 20
178.006541
 30
0.0
 10
128.566256
 20
178.578166
 30
0.0
  0
SPLINE
  5
172
100
AcDbEntity
  8
0
 62
7
100
AcDbSpline
 70
8
 71
3
 72
8
 73
4
 74
0
 40
0
 40
0
 40
0
 40
0
 40
1
 40
1
 40
1
 40
1
 10
128.566256
 20
178.578166
 30
0.0
 10
129.556340
 20
179.149791
 30
0.0
 10
130.166257
 20
180.206198
 30
0.0
 10
130.166257
 20
181.349448
 30
0.0
  0
LINE
  5
173
100
AcDbEntity
  8
0
 62
7
100
AcDbLine
 10
130.166257
 20
181.349448
 30
0.0
 11
130.166257
 21
181.349448
 31
0.0
  0
LINE
  5
174
100
AcDbEntity
  8
0
 62
7
100
AcDbLine
 10
118.640922
 20
122.293460
 30
0.0
 11
198.640923
 21
122.293460
 31
0.0
  0
LINE
  5
175
100
AcDbEntity
  8
0
 62
7
100
AcDbLine
 10
198.640923
 20
122.293460
 30
0.0
 11
198.640923
 21
169.226790
 31
0.0
  0
LINE
  5
176
100
AcDbEntity
  8
0
 62
7
100
AcDbLine
 10
198.640923
 20
169.226790
 30
0.0
 11
118.640922
 21
169.226790
 31
0.0
  0
LINE
  5
177
100
AcDbEntity
  8
0
 62
7
100
AcDbLine
 10
118.640922
 20
169.226790
 30
0.0
 11
118.640922
 21
122.293460
 31
0.0
  0
SPLINE
  5
178
100
AcDbEntity
  8
0
 62
7
100
AcDbSpline
 70
8
 71
3
 72
8
 73
4
 74
0
 40
0
 40
0
 40
0
 40
0
 40
1
 40
1
 40
1
 40
1
 10
149.014256
 20
114.970782
 30
0.0
 10
149.015176
 20
117.067352
 30
0.0
 10
147.897197
 20
119.005058
 30
0.0
 10
146.081666
 20
120.053609
 30
0.0
  0
SPLINE
  5
179
100
AcDbEntity
  8
0
 62
7
100
AcDbSpline
 70
8
 71
3
 72
8
 73
4
 74
0
 40
0
 40
0
 40
0
 40
0
 40
1
 40
1
 40
1
 40
1
 10
146.081666
 20
120.053609
 30
0.0
 10
144.266136
 20
121.102160
 30
0.0
 10
142.029044
 20
121.102160
 30
0.0
 10
140.213514
 20
120.053609
 30
0.0
  0
SPLINE
  5
17a
100
AcDbEntity
  8
0
 62
7
100
AcDbSpline
 70
8
 71
3
 72
8
 73
4
 74
0
 40
0
 40
0
 40
0
 40
0
 40
1
 40
1
 40
1
 40
1
 10
140.213514
 20
120.053609
 30
0.0
 10
138.397983
 20
119.005058
 30
0.0
 10
137.280004
 20
117.067352
 30
0.0
 10
137.280924
 20
114.970782
 30
0.0
  0
SPLINE
  5
17b
100
AcDbEntity
  8
0
 62
7
100
AcDbSpline
 70
8
 71
3
 72
8
 73
4
 74
0
 40
0
 40
0
 40
0
 40
0
 40
1
 40
1
 40
1
 40
1
 10
137.280924
 20
114.970782
 30
0.0
 10
137.280004
 20
112.874211
 30
0.0
 10
138.397983
 20
110.936506
 30
0.0
 10
140.213514
 20
109.887955
 30
0.0
  0
SPLINE
  5
17c
100
AcDbEntity
  8
0
 62
7
100
AcDbSpline
 70
8
 71
3
 72
8
 73
4
 74
0
 40
0
 40
0
 40
0
 40
0
 40
1
 40
1
 40
1
 40
1
 10
140.213514
 20
109.887955
 30
0.0
 10
142.029044
 20
108.839404
 30
0.0
 10
144.266136
 20
108.839404
 30
0.0
 10
146.081666
 20
109.887955
 30
0.0
  0
SPLINE
  5
17d
100
AcDbEntity
  8
0
 62
7
100
AcDbSpline
 70
8
 71
3
 72
8
 73
4
 74
0
 40
0
 40
0
 40
0
 40
0
 40
1
 40
1
 40
1
 40
1
 10
146.081666
 20
109.887955
 30
0.0
 10
147.897197
 20
110.936506
 30
0.0
 10
149.015176
 20
112.874211
 30
0.0
 10
149.014256
 20
114.970782
 30
0.0
  0
LINE
  5
17e
100
AcDbEntity
  8
0
 62
7
100
AcDbLine
 10
149.014256
 20
114.970782
 30
0.0
 11
149.014256
 21
114.970782
 31
0.0
  0
SPLINE
  5
17f
100
AcDbEntity
  8
0
 62
7
100
AcDbSpline
 70
8
 71
3
 72
8
 73
4
 74
0
 40
0
 40
0
 40
0
 40
0
 40
1
 40
1
 40
1
 40
1
 10
111.757722
 20
190.307323
 30
0.0
 10
111.757731
 20
191.485525
 30
0.0
 10
112.712855
 20
192.440641
 30
0.0
 10
113.891057
 20
192.440640
 30
0.0
  0
SPLINE
  5
180
100
AcDbEntity
  8
0
 62
7
100
AcDbSpline
 70
8
 71
3
 72
8
 73
4
 74
0
 40
0
 40
0
 40
0
 40
0
 40
1
 40
1
 40
1
 40
1
 10
113.891057
 20
192.440640
 30
0.0
 10
113.891057
 20
192.440640
 30
0.0
 10
203.604123
 20
192.440640
 30
0.0
 10
203.604123
 20
192.440640
 30
0.0
  0
SPLINE
  5
181
100
AcDbEntity
  8
0
 62
7
100
AcDbSpline
 70
8
 71
3
 72
8
 73
4
 74
0
 40
0
 40
0
 40
0
 40
0
 40
1
 40
1
 40
1
 40
1
 10
203.604123
 20
192.440640
 30
0.0
 10
204.782325
 20
192.440641
 30
0.0
 10
205.737448
 20
191.485524
 30
0.0
 10
205.737457
 20
190.307323
 30
0.0
  0
SPLINE
  5
182
100
AcDbEntity
  8
0
 62
7
100
AcDbSpline
 70
8
 71
3
 72
8
 73
4
 74
0
 40
0
 40
0
 40
0
 40
0
 40
1
 40
1
 40
1
 40
1
 10
205.737457
 20
190.307323
 30
0.0
 10
205.737457
 20
190.307323
 30
0.0
 10
205.737457
 20
106.021458
 30
0.0
 10
205.737457
 20
106.021458
 30
0.0
  0
SPLINE
  5
183
100
AcDbEntity
  8
0
 62
7
100
AcDbSpline
 70
8
 71
3
 72
8
 73
4
 74
0
 40
0
 40
0
 40
0
 40
0
 40
1
 40
1
 40
1
 40
1
 10
205.737457
 20
106.021458
 30
0.0
 10
205.737460
 20
105.455661
 30
0.0
 10
205.512700
 20
104.913036
 30
0.0
 10
205.112622
 20
104.512956
 30
0.0
  0
SPLINE
  5
184
100
AcDbEntity
  8
0
 62
7
100
AcDbSpline
 70
8
 71
3
 72
8
 73
4
 74
0
 40
0
 40
0
 40
0
 40
0
 40
1
 40
1
 40
1
 40
1
 10
205.112622
 20
104.512956
 30
0.0
 10
204.712544
 20
104.112875
 30
0.0
 10
204.169920
 20
103.888112
 30
0.0
 10
203.604123
 20
103.888112
 30
0.0
  0
SPLINE
  5
185
100
AcDbEntity
  8
0
 62
7
100
AcDbSpline
 70
8
 71
3
 72
8
 73
4
 74
0
 40
0
 40
0
 40
0
 40
0
 40
1
 40
1
 40
1
 40
1
 10
203.604123
 20
103.888112
 30
0.0
 10
203.604123
 20
103.888112
 30
0.0
 10
113.891057
 20
103.888112
 30
0.0
 10
113.891057
 20
103.888112
 30
0.0
  0
SPLINE
  5
186
100
AcDbEntity
  8
0
 62
7
100
AcDbSpline
 70
8
 71
3
 72
8
 73
4
 74
0
 40
0
 40
0
 40
0
 40
0
 40
1
 40
1
 40
1
 40
1
 10
113.891057
 20
103.888112
 30
0.0
 10
113.325260
 20
103.888112
 30
0.0
 10
112.782636
 20
104.112875
 30
0.0
 10
112.382557
 20
104.512955
 30
0.0
  0
SPLINE
  5
187
100
AcDbEntity
  8
0
 62
7
100
AcDbSpline
 70
8
 71
3
 72
8
 73
4
 74
0
 40
0
 40
0
 40
0
 40
0
 40
1
 40
1
 40
1
 40
1
 10
112.382557
 20
104.512955
 30
0.0
 10
111.982479
 20
104.913036
 30
0.0
 10
111.757719
 20
105.455661
 30
0.0
 10
111.757722
 20
106.021458
 30
0.0
  0
LINE
  5
188
100
AcDbEntity
  8
0
 62
7
100
AcDbLine
 10
111.757722
 20
106.021458
 30
0.0
 11
111.757722
 21
190.307323
 31
0.0
  0
SPLINE
  5
189
100
AcDbEntity
  8
0
 62
7
100
AcDbSpline
 70
8
 71
3
 72
8
 73
4
 74
0
 40
0
 40
0
 40
0
 40
0
 40
1
 40
1
 40
1
 40
1
 10
27.590809
 20
156.044506
 30
0.0
 10
27.590809
 20
156.520860
 30
0.0
 10
27.336677
 20
156.961030
 30
0.0
 10
26.924143
 20
157.199207
 30
0.0
  0
SPLINE
  5
18a
100
AcDbEntity
  8
0
 62
7
100
AcDbSpline
 70
8
 71
3
 72
8
 73
4
 74
0
 40
0
 40
0
 40
0
 40
0
 40
1
 40
1
 40
1
 40
1
 10
26.924143
 20
157.199207
 30
0.0
 10
26.511608
 20
157.437384
 30
0.0
 10
26.003344
 20
157.437384
 30
0.0
 10
25.590809
 20
157.199207
 30
0.0
  0
SPLINE
  5
18b
100
AcDbEntity
  8
0
 62
7
100
AcDbSpline
 70
8
 71
3
 72
8
 73
4
 74
0
 40
0
 40
0
 40
0
 40
0
 40
1
 40
1
 40
1
 40
1
 10
25.590809
 20
157.199207
 30
0.0
 10
25.178274
 20
156.961030
 30
0.0
 10
24.924142
 20
156.520860
 30
0.0
 10
24.924142
 20
156.044506
 30
0.0
  0
SPLINE
  5
18c
100
AcDbEntity
  8
0
 62
7
100
AcDbSpline
 70
8
 71
3
 72
8
 73
4
 74
0
 40
0
 40
0
 40
0
 40
0
 40
1
 40
1
 40
1
 40
1
 10
24.924142
 20
156.044506
 30
0.0
 10
24.924142
 20
155.568152
 30
0.0
 10
25.178274
 20
155.127983
 30
0.0
 10
25.590809
 20
154.889806
 30
0.0
  0
SPLINE
  5
18d
100
AcDbEntity
  8
0
 62
7
100
AcDbSpline
 70
8
 71
3
 72
8
 73
4
 74
0
 40
0
 40
0
 40
0
 40
0
 40
1
 40
1
 40
1
 40
1
 10
25.590809
 20
154.889806
 30
0.0
 10
26.003344
 20
154.651629
 30
0.0
 10
26.511608
 20
154.651629
 30
0.0
 10
26.924143
 20
154.889806
 30
0.0
  0
SPLINE
  5
18e
100
AcDbEntity
  8
0
 62
7
100
AcDbSpline
 70
8
 71
3
 72
8
 73
4
 74
0
 40
0
 40
0
 40
0
 40
0
 40
1
 40
1
 40
1
 40
1
 10
26.924143
 20
154.889806
 30
0.0
 10
27.336677
 20
155.127983
 30
0.0
 10
27.590809
 20
155.568152
 30
0.0
 10
27.590809
 20
156.044506
 30
0.0
  0
LINE
  5
18f
100
AcDbEntity
  8
0
 62
7
100
AcDbLine
 10
27.590809
 20
156.044506
 30
0.0
 11
27.590809
 21
156.044506
 31
0.0
  0
SPLINE
  5
190
100
AcDbEntity
  8
0
 62
7
100
AcDbSpline
 70
8
 71
3
 72
8
 73
4
 74
0
 40
0
 40
0
 40
0
 40
0
 40
1
 40
1
 40
1
 40
1
 10
28.924143
 20
156.044506
 30
0.0
 10
28.925020
 20
156.997799
 30
0.0
 10
28.416948
 20
157.879053
 30
0.0
 10
27.591519
 20
158.355952
 30
0.0
  0
SPLINE
  5
191
100
AcDbEntity
  8
0
 62
7
100
AcDbSpline
 70
8
 71
3
 72
8
 73
4
 74
0
 40
0
 40
0
 40
0
 40
0
 40
1
 40
1
 40
1
 40
1
 10
27.591519
 20
158.355952
 30
0.0
 10
26.766089
 20
158.832852
 30
0.0
 10
25.748865
 20
158.832852
 30
0.0
 10
24.923436
 20
158.355952
 30
0.0
  0
SPLINE
  5
192
100
AcDbEntity
  8
0
 62
7
100
AcDbSpline
 70
8
 71
3
 72
8
 73
4
 74
0
 40
0
 40
0
 40
0
 40
0
 40
1
 40
1
 40
1
 40
1
 10
24.923436
 20
158.355952
 30
0.0
 10
24.098006
 20
157.879053
 30
0.0
 10
23.589934
 20
156.997799
 30
0.0
 10
23.590812
 20
156.044506
 30
0.0
  0
SPLINE
  5
193
100
AcDbEntity
  8
0
 62
7
100
AcDbSpline
 70
8
 71
3
 72
8
 73
4
 74
0
 40
0
 40
0
 40
0
 40
0
 40
1
 40
1
 40
1
 40
1
 10
23.590812
 20
156.044506
 30
0.0
 10
23.589934
 20
155.091214
 30
0.0
 10
24.098006
 20
154.209960
 30
0.0
 10
24.923436
 20
153.733061
 30
0.0
  0
SPLINE
  5
194
100
AcDbEntity
  8
0
 62
7
100
AcDbSpline
 70
8
 71
3
 72
8
 73
4
 74
0
 40
0
 40
0
 40
0
 40
0
 40
1
 40
1
 40
1
 40
1
 10
24.923436
 20
153.733061
 30
0.0
 10
25.748865
 20
153.256161
 30
0.0
 10
26.766089
 20
153.256161
 30
0.0
 10
27.591519
 20
153.733061
 30
0.0
  0
SPLINE
  5
195
100
AcDbEntity
  8
0
 62
7
100
AcDbSpline
 70
8
 71
3
 72
8
 73
4
 74
0
 40
0
 40
0
 40
0
 40
0
 40
1
 40
1
 40
1
 40
1
 10
27.591519
 20
153.733061
 30
0.0
 10
28.416948
 20
154.209960
 30
0.0
 10
28.925020
 20
155.091214
 30
0.0
 10
28.924143
 20
156.044506
 30
0.0
  0
LINE
  5
196
100
AcDbEntity
  8
0
 62
7
100
AcDbLine
 10
28.924143
 20
156.044506
 30
0.0
 11
28.924143
 21
156.044506
 31
0.0
  0
SPLINE
  5
197
100
AcDbEntity
  8
0
 62
7
100
AcDbSpline
 70
8
 71
3
 72
8
 73
4
 74
0
 40
0
 40
0
 40
0
 40
0
 40
1
 40
1
 40
1
 40
1
 10
76.563608
 20
110.773553
 30
0.0
 10
76.563608
 20
111.297542
 30
0.0
 10
76.284063
 20
111.781729
 30
0.0
 10
75.830275
 20
112.043724
 30
0.0
  0
SPLINE
  5
198
100
AcDbEntity
  8
0
 62
7
100
AcDbSpline
 70
8
 71
3
 72
8
 73
4
 74
0
 40
0
 40
0
 40
0
 40
0
 40
1
 40
1
 40
1
 40
1
 10
75.830275
 20
112.043724
 30
0.0
 10
75.376486
 20
112.305718
 30
0.0
 10
74.817396
 20
112.305718
 30
0.0
 10
74.363608
 20
112.043724
 30
0.0
  0
SPLINE
  5
199
100
AcDbEntity
  8
0
 62
7
100
AcDbSpline
 70
8
 71
3
 72
8
 73
4
 74
0
 40
0
 40
0
 40
0
 40
0
 40
1
 40
1
 40
1
 40
1
 10
74.363608
 20
112.043724
 30
0.0
 10
73.909820
 20
111.781729
 30
0.0
 10
73.630275
 20
111.297542
 30
0.0
 10
73.630275
 20
110.773553
 30
0.0
  0
SPLINE
  5
19a
100
AcDbEntity
  8
0
 62
7
100
AcDbSpline
 70
8
 71
3
 72
8
 73
4
 74
0
 40
0
 40
0
 40
0
 40
0
 40
1
 40
1
 40
1
 40
1
 10
73.630275
 20
110.773553
 30
0.0
 10
73.630275
 20
110.249563
 30
0.0
 10
73.909820
 20
109.765377
 30
0.0
 10
74.363608
 20
109.503382
 30
0.0
  0
SPLINE
  5
19b
100
AcDbEntity
  8
0
 62
7
100
AcDbSpline
 70
8
 71
3
 72
8
 73
4
 74
0
 40
0
 40
0
 40
0
 40
0
 40
1
 40
1
 40
1
 40
1
 10
74.363608
 20
109.503382
 30
0.0
 10
74.817396
 20
109.241387
 30
0.0
 10
75.376486
 20
109.241387
 30
0.0
 10
75.830275
 20
109.503382
 30
0.0
  0
SPLINE
  5
19c
100
AcDbEntity
  8
0
 62
7
100
AcDbSpline
 70
8
 71
3
 72
8
 73
4
 74
0
 40
0
 40
0
 40
0
 40
0
 40
1
 40
1
 40
1
 40
1
 10
75.830275
 20
109.503382
 30
0.0
 10
76.284063
 20
109.765377
 30
0.0
 10
76.563608
 20
110.249563
 30
0.0
 10
76.563608
 20
110.773553
 30
0.0
  0
LINE
  5
19d
100
AcDbEntity
  8
0
 62
7
100
AcDbLine
 10
76.563608
 20
110.773553
 30
0.0
 11
76.563608
 21
110.773553
 31
0.0
  0
SPLINE
  5
19e
100
AcDbEntity
  8
0
 62
7
100
AcDbSpline
 70
8
 71
3
 72
8
 73
4
 74
0
 40
0
 40
0
 40
0
 40
0
 40
1
 40
1
 40
1
 40
1
 10
14.696942
 20
110.773553
 30
0.0
 10
14.697172
 20
111.297696
 30
0.0
 10
14.417678
 20
111.782122
 30
0.0
 10
13.963795
 20
112.044260
 30
0.0
  0
SPLINE
  5
19f
100
AcDbEntity
  8
0
 62
7
100
AcDbSpline
 70
8
 71
3
 72
8
 73
4
 74
0
 40
0
 40
0
 40
0
 40
0
 40
1
 40
1
 40
1
 40
1
 10
13.963795
 20
112.044260
 30
0.0
 10
13.509912
 20
112.306397
 30
0.0
 10
12.950639
 20
112.306397
 30
0.0
 10
12.496757
 20
112.044260
 30
0.0
  0
SPLINE
  5
1a0
100
AcDbEntity
  8
0
 62
7
100
AcDbSpline
 70
8
 71
3
 72
8
 73
4
 74
0
 40
0
 40
0
 40
0
 40
0
 40
1
 40
1
 40
1
 40
1
 10
12.496757
 20
112.044260
 30
0.0
 10
12.042874
 20
111.782122
 30
0.0
 10
11.763379
 20
111.297696
 30
0.0
 10
11.763609
 20
110.773553
 30
0.0
  0
SPLINE
  5
1a1
100
AcDbEntity
  8
0
 62
7
100
AcDbSpline
 70
8
 71
3
 72
8
 73
4
 74
0
 40
0
 40
0
 40
0
 40
0
 40
1
 40
1
 40
1
 40
1
 10
11.763609
 20
110.773553
 30
0.0
 10
11.763379
 20
110.249410
 30
0.0
 10
12.042874
 20
109.764984
 30
0.0
 10
12.496757
 20
109.502846
 30
0.0
  0
SPLINE
  5
1a2
100
AcDbEntity
  8
0
 62
7
100
AcDbSpline
 70
8
 71
3
 72
8
 73
4
 74
0
 40
0
 40
0
 40
0
 40
0
 40
1
 40
1
 40
1
 40
1
 10
12.496757
 20
109.502846
 30
0.0
 10
12.950639
 20
109.240708
 30
0.0
 10
13.509912
 20
109.240708
 30
0.0
 10
13.963795
 20
109.502846
 30
0.0
  0
SPLINE
  5
1a3
100
AcDbEntity
  8
0
 62
7
100
AcDbSpline
 70
8
 71
3
 72
8
 73
4
 74
0
 40
0
 40
0
 40
0
 40
0
 40
1
 40
1
 40
1
 40
1
 10
13.963795
 20
109.502846
 30
0.0
 10
14.417678
 20
109.764984
 30
0.0
 10
14.697172
 20
110.249410
 30
0.0
 10
14.696942
 20
110.773553
 30
0.0
  0
LINE
  5
1a4
100
AcDbEntity
  8
0
 62
7
100
AcDbLine
 10
14.696942
 20
110.773553
 30
0.0
 11
14.696942
 21
110.773553
 31
0.0
  0
SPLINE
  5
1a5
100
AcDbEntity
  8
0
 62
7
100
AcDbSpline
 70
8
 71
3
 72
8
 73
4
 74
0
 40
0
 40
0
 40
0
 40
0
 40
1
 40
1
 40
1
 40
1
 10
14.715075
 20
188.659407
 30
0.0
 10
14.715075
 20
189.192924
 30
0.0
 10
14.430447
 20
189.685914
 30
0.0
 10
13.968408
 20
189.952672
 30
0.0
  0
SPLINE
  5
1a6
100
AcDbEntity
  8
0
 62
7
100
AcDbSpline
 70
8
 71
3
 72
8
 73
4
 74
0
 40
0
 40
0
 40
0
 40
0
 40
1
 40
1
 40
1
 40
1
 10
13.968408
 20
189.952672
 30
0.0
 10
13.506369
 20
190.219431
 30
0.0
 10
12.937114
 20
190.219431
 30
0.0
 10
12.475074
 20
189.952672
 30
0.0
  0
SPLINE
  5
1a7
100
AcDbEntity
  8
0
 62
7
100
AcDbSpline
 70
8
 71
3
 72
8
 73
4
 74
0
 40
0
 40
0
 40
0
 40
0
 40
1
 40
1
 40
1
 40
1
 10
12.475074
 20
189.952672
 30
0.0
 10
12.013035
 20
189.685914
 30
0.0
 10
11.728408
 20
189.192924
 30
0.0
 10
11.728408
 20
188.659407
 30
0.0
  0
SPLINE
  5
1a8
100
AcDbEntity
  8
0
 62
7
100
AcDbSpline
 70
8
 71
3
 72
8
 73
4
 74
0
 40
0
 40
0
 40
0
 40
0
 40
1
 40
1
 40
1
 40
1
 10
11.728408
 20
188.659407
 30
0.0
 10
11.728408
 20
188.125891
 30
0.0
 10
12.013035
 20
187.632901
 30
0.0
 10
12.475074
 20
187.366142
 30
0.0
  0
SPLINE
  5
1a9
100
AcDbEntity
  8
0
 62
7
100
AcDbSpline
 70
8
 71
3
 72
8
 73
4
 74
0
 40
0
 40
0
 40
0
 40
0
 40
1
 40
1
 40
1
 40
1
 10
12.475074
 20
187.366142
 30
0.0
 10
12.937114
 20
187.099384
 30
0.0
 10
13.506369
 20
187.099384
 30
0.0
 10
13.968408
 20
187.366142
 30
0.0
  0
SPLINE
  5
1aa
100
AcDbEntity
  8
0
 62
7
100
AcDbSpline
 70
8
 71
3
 72
8
 73
4
 74
0
 40
0
 40
0
 40
0
 40
0
 40
1
 40
1
 40
1
 40
1
 10
13.968408
 20
187.366142
 30
0.0
 10
14.430447
 20
187.632901
 30
0.0
 10
14.715075
 20
188.125891
 30
0.0
 10
14.715075
 20
188.659407
 30
0.0
  0
LINE
  5
1ab
100
AcDbEntity
  8
0
 62
7
100
AcDbLine
 10
14.715075
 20
188.659407
 30
0.0
 11
14.715075
 21
188.659407
 31
0.0
  0
SPLINE
  5
1ac
100
AcDbEntity
  8
0
 62
7
100
AcDbSpline
 70
8
 71
3
 72
8
 73
4
 74
0
 40
0
 40
0
 40
0
 40
0
 40
1
 40
1
 40
1
 40
1
 10
98.028141
 20
188.659407
 30
0.0
 10
98.028373
 20
189.193079
 30
0.0
 10
97.743796
 20
189.686310
 30
0.0
 10
97.281662
 20
189.953213
 30
0.0
  0
SPLINE
  5
1ad
100
AcDbEntity
  8
0
 62
7
100
AcDbSpline
 70
8
 71
3
 72
8
 73
4
 74
0
 40
0
 40
0
 40
0
 40
0
 40
1
 40
1
 40
1
 40
1
 10
97.281662
 20
189.953213
 30
0.0
 10
96.819528
 20
190.220116
 30
0.0
 10
96.250088
 20
190.220116
 30
0.0
 10
95.787954
 20
189.953213
 30
0.0
  0
SPLINE
  5
1ae
100
AcDbEntity
  8
0
 62
7
100
AcDbSpline
 70
8
 71
3
 72
8
 73
4
 74
0
 40
0
 40
0
 40
0
 40
0
 40
1
 40
1
 40
1
 40
1
 10
95.787954
 20
189.953213
 30
0.0
 10
95.325820
 20
189.686310
 30
0.0
 10
95.041243
 20
189.193079
 30
0.0
 10
95.041475
 20
188.659407
 30
0.0
  0
SPLINE
  5
1af
100
AcDbEntity
  8
0
 62
7
100
AcDbSpline
 70
8
 71
3
 72
8
 73
4
 74
0
 40
0
 40
0
 40
0
 40
0
 40
1
 40
1
 40
1
 40
1
 10
95.041475
 20
188.659407
 30
0.0
 10
95.041243
 20
188.125736
 30
0.0
 10
95.325820
 20
187.632504
 30
0.0
 10
95.787954
 20
187.365602
 30
0.0
  0
SPLINE
  5
1b0
100
AcDbEntity
  8
0
 62
7
100
AcDbSpline
 70
8
 71
3
 72
8
 73
4
 74
0
 40
0
 40
0
 40
0
 40
0
 40
1
 40
1
 40
1
 40
1
 10
95.787954
 20
187.365602
 30
0.0
 10
96.250088
 20
187.098699
 30
0.0
 10
96.819528
 20
187.098699
 30
0.0
 10
97.281662
 20
187.365602
 30
0.0
  0
SPLINE
  5
1b1
100
AcDbEntity
  8
0
 62
7
100
AcDbSpline
 70
8
 71
3
 72
8
 73
4
 74
0
 40
0
 40
0
 40
0
 40
0
 40
1
 40
1
 40
1
 40
1
 10
97.281662
 20
187.365602
 30
0.0
 10
97.743796
 20
187.632504
 30
0.0
 10
98.028373
 20
188.125736
 30
0.0
 10
98.028141
 20
188.659407
 30
0.0
  0
LINE
  5
1b2
100
AcDbEntity
  8
0
 62
7
100
AcDbLine
 10
98.028141
 20
188.659407
 30
0.0
 11
98.028141
 21
188.659407
 31
0.0
  0
SPLINE
  5
1b3
100
AcDbEntity
  8
0
 62
7
100
AcDbSpline
 70
8
 71
3
 72
8
 73
4
 74
0
 40
0
 40
0
 40
0
 40
0
 40
1
 40
1
 40
1
 40
1
 10
93.912941
 20
182.901538
 30
0.0
 10
93.913401
 20
184.997802
 30
0.0
 10
92.795321
 20
186.935027
 30
0.0
 10
90.979980
 20
187.983293
 30
0.0
  0
SPLINE
  5
1b4
100
AcDbEntity
  8
0
 62
7
100
AcDbSpline
 70
8
 71
3
 72
8
 73
4
 74
0
 40
0
 40
0
 40
0
 40
0
 40
1
 40
1
 40
1
 40
1
 10
90.979980
 20
187.983293
 30
0.0
 10
89.164638
 20
189.031558
 30
0.0
 10
86.927912
 20
189.031558
 30
0.0
 10
85.112570
 20
187.983293
 30
0.0
  0
SPLINE
  5
1b5
100
AcDbEntity
  8
0
 62
7
100
AcDbSpline
 70
8
 71
3
 72
8
 73
4
 74
0
 40
0
 40
0
 40
0
 40
0
 40
1
 40
1
 40
1
 40
1
 10
85.112570
 20
187.983293
 30
0.0
 10
83.297228
 20
186.935027
 30
0.0
 10
82.179148
 20
184.997802
 30
0.0
 10
82.179608
 20
182.901538
 30
0.0
  0
SPLINE
  5
1b6
100
AcDbEntity
  8
0
 62
7
100
AcDbSpline
 70
8
 71
3
 72
8
 73
4
 74
0
 40
0
 40
0
 40
0
 40
0
 40
1
 40
1
 40
1
 40
1
 10
82.179608
 20
182.901538
 30
0.0
 10
82.179148
 20
180.805273
 30
0.0
 10
83.297228
 20
178.868048
 30
0.0
 10
85.112570
 20
177.819783
 30
0.0
  0
SPLINE
  5
1b7
100
AcDbEntity
  8
0
 62
7
100
AcDbSpline
 70
8
 71
3
 72
8
 73
4
 74
0
 40
0
 40
0
 40
0
 40
0
 40
1
 40
1
 40
1
 40
1
 10
85.112570
 20
177.819783
 30
0.0
 10
86.927912
 20
176.771518
 30
0.0
 10
89.164638
 20
176.771518
 30
0.0
 10
90.979980
 20
177.819783
 30
0.0
  0
SPLINE
  5
1b8
100
AcDbEntity
  8
0
 62
7
100
AcDbSpline
 70
8
 71
3
 72
8
 73
4
 74
0
 40
0
 40
0
 40
0
 40
0
 40
1
 40
1
 40
1
 40
1
 10
90.979980
 20
177.819783
 30
0.0
 10
92.795321
 20
178.868048
 30
0.0
 10
93.913401
 20
180.805273
 30
0.0
 10
93.912941
 20
182.901538
 30
0.0
  0
LINE
  5
1b9
100
AcDbEntity
  8
0
 62
7
100
AcDbLine
 10
93.912941
 20
182.901538
 30
0.0
 11
93.912941
 21
182.901538
 31
0.0
  0
SPLINE
  5
1ba
100
AcDbEntity
  8
0
 62
7
100
AcDbSpline
 70
8
 71
3
 72
8
 73
4
 74
0
 40
0
 40
0
 40
0
 40
0
 40
1
 40
1
 40
1
 40
1
 10
77.656941
 20
182.901538
 30
0.0
 10
77.657738
 20
184.998027
 30
0.0
 10
76.539732
 20
186.935603
 30
0.0
 10
74.724252
 20
187.984077
 30
0.0
  0
SPLINE
  5
1bb
100
AcDbEntity
  8
0
 62
7
100
AcDbSpline
 70
8
 71
3
 72
8
 73
4
 74
0
 40
0
 40
0
 40
0
 40
0
 40
1
 40
1
 40
1
 40
1
 10
74.724252
 20
187.984077
 30
0.0
 10
72.908772
 20
189.032552
 30
0.0
 10
70.671778
 20
189.032552
 30
0.0
 10
68.856298
 20
187.984077
 30
0.0
  0
SPLINE
  5
1bc
100
AcDbEntity
  8
0
 62
7
100
AcDbSpline
 70
8
 71
3
 72
8
 73
4
 74
0
 40
0
 40
0
 40
0
 40
0
 40
1
 40
1
 40
1
 40
1
 10
68.856298
 20
187.984077
 30
0.0
 10
67.040818
 20
186.935603
 30
0.0
 10
65.922812
 20
184.998027
 30
0.0
 10
65.923609
 20
182.901538
 30
0.0
  0
SPLINE
  5
1bd
100
AcDbEntity
  8
0
 62
7
100
AcDbSpline
 70
8
 71
3
 72
8
 73
4
 74
0
 40
0
 40
0
 40
0
 40
0
 40
1
 40
1
 40
1
 40
1
 10
65.923609
 20
182.901538
 30
0.0
 10
65.922812
 20
180.805049
 30
0.0
 10
67.040818
 20
178.867473
 30
0.0
 10
68.856298
 20
177.818998
 30
0.0
  0
SPLINE
  5
1be
100
AcDbEntity
  8
0
 62
7
100
AcDbSpline
 70
8
 71
3
 72
8
 73
4
 74
0
 40
0
 40
0
 40
0
 40
0
 40
1
 40
1
 40
1
 40
1
 10
68.856298
 20
177.818998
 30
0.0
 10
70.671778
 20
176.770524
 30
0.0
 10
72.908772
 20
176.770524
 30
0.0
 10
74.724252
 20
177.818998
 30
0.0
  0
SPLINE
  5
1bf
100
AcDbEntity
  8
0
 62
7
100
AcDbSpline
 70
8
 71
3
 72
8
 73
4
 74
0
 40
0
 40
0
 40
0
 40
0
 40
1
 40
1
 40
1
 40
1
 10
74.724252
 20
177.818998
 30
0.0
 10
76.539732
 20
178.867473
 30
0.0
 10
77.657738
 20
180.805049
 30
0.0
 10
77.656941
 20
182.901538
 30
0.0
  0
LINE
  5
1c0
100
AcDbEntity
  8
0
 62
7
100
AcDbLine
 10
77.656941
 20
182.901538
 30
0.0
 11
77.656941
 21
182.901538
 31
0.0
  0
LINE
  5
1c1
100
AcDbEntity
  8
0
 62
7
100
AcDbLine
 10
14.771467
 20
170.778662
 30
0.0
 11
14.771467
 21
123.845437
 31
0.0
  0
SPLINE
  5
1c2
100
AcDbEntity
  8
0
 62
7
100
AcDbSpline
 70
8
 71
3
 72
8
 73
4
 74
0
 40
0
 40
0
 40
0
 40
0
 40
1
 40
1
 40
1
 40
1
 10
14.771467
 20
123.845437
 30
0.0
 10
14.771467
 20
123.845437
 30
0.0
 10
20.612144
 20
123.845437
 30
0.0
 10
20.612144
 20
123.845437
 30
0.0
  0
SPLINE
  5
1c3
100
AcDbEntity
  8
0
 62
7
100
AcDbSpline
 70
8
 71
3
 72
8
 73
4
 74
0
 40
0
 40
0
 40
0
 40
0
 40
1
 40
1
 40
1
 40
1
 10
20.612144
 20
123.845437
 30
0.0
 10
17.474702
 20
122.780962
 30
0.0
 10
15.363887
 20
119.836196
 30
0.0
 10
15.363472
 20
116.523094
 30
0.0
  0
SPLINE
  5
1c4
100
AcDbEntity
  8
0
 62
7
100
AcDbSpline
 70
8
 71
3
 72
8
 73
4
 74
0
 40
0
 40
0
 40
0
 40
0
 40
1
 40
1
 40
1
 40
1
 10
15.363472
 20
116.523094
 30
0.0
 10
15.352627
 20
113.753049
 30
0.0
 10
16.824205
 20
111.188769
 30
0.0
 10
19.221343
 20
109.800606
 30
0.0
  0
SPLINE
  5
1c5
100
AcDbEntity
  8
0
 62
7
100
AcDbSpline
 70
8
 71
3
 72
8
 73
4
 74
0
 40
0
 40
0
 40
0
 40
0
 40
1
 40
1
 40
1
 40
1
 10
19.221343
 20
109.800606
 30
0.0
 10
21.618481
 20
108.412444
 30
0.0
 10
24.575012
 20
108.412444
 30
0.0
 10
26.972150
 20
109.800606
 30
0.0
  0
SPLINE
  5
1c6
100
AcDbEntity
  8
0
 62
7
100
AcDbSpline
 70
8
 71
3
 72
8
 73
4
 74
0
 40
0
 40
0
 40
0
 40
0
 40
1
 40
1
 40
1
 40
1
 10
26.972150
 20
109.800606
 30
0.0
 10
29.369288
 20
111.188769
 30
0.0
 10
30.840865
 20
113.753049
 30
0.0
 10
30.830020
 20
116.523094
 30
0.0
  0
SPLINE
  5
1c7
100
AcDbEntity
  8
0
 62
7
100
AcDbSpline
 70
8
 71
3
 72
8
 73
4
 74
0
 40
0
 40
0
 40
0
 40
0
 40
1
 40
1
 40
1
 40
1
 10
30.830020
 20
116.523094
 30
0.0
 10
30.825693
 20
119.843329
 30
0.0
 10
28.702451
 20
122.790268
 30
0.0
 10
25.554340
 20
123.845437
 30
0.0
  0
LINE
  5
1c8
100
AcDbEntity
  8
0
 62
7
100
AcDbLine
 10
25.554340
 20
123.845437
 30
0.0
 11
94.771546
 21
123.845437
 31
0.0
  0
LINE
  5
1c9
100
AcDbEntity
  8
0
 62
7
100
AcDbLine
 10
94.771546
 20
123.845437
 30
0.0
 11
94.771546
 21
170.778662
 31
0.0
  0
LINE
  5
1ca
100
AcDbEntity
  8
0
 62
7
100
AcDbLine
 10
94.771546
 20
170.778662
 30
0.0
 11
14.771467
 21
170.778662
 31
0.0
  0
LINE
  5
1cb
100
AcDbEntity
  8
0
 62
7
100
AcDbLine
 10
14.771467
 20
170.778662
 30
0.0
 11
14.771467
 21
170.778662
 31
0.0
  0
SPLINE
  5
1cc
100
AcDbEntity
  8
0
 62
7
100
AcDbSpline
 70
8
 71
3
 72
8
 73
4
 74
0
 40
0
 40
0
 40
0
 40
0
 40
1
 40
1
 40
1
 40
1
 10
45.144941
 20
116.522871
 30
0.0
 10
45.145861
 20
118.619442
 30
0.0
 10
44.027882
 20
120.557147
 30
0.0
 10
42.212351
 20
121.605698
 30
0.0
  0
SPLINE
  5
1cd
100
AcDbEntity
  8
0
 62
7
100
AcDbSpline
 70
8
 71
3
 72
8
 73
4
 74
0
 40
0
 40
0
 40
0
 40
0
 40
1
 40
1
 40
1
 40
1
 10
42.212351
 20
121.605698
 30
0.0
 10
40.396821
 20
122.654249
 30
0.0
 10
38.159729
 20
122.654249
 30
0.0
 10
36.344199
 20
121.605698
 30
0.0
  0
SPLINE
  5
1ce
100
AcDbEntity
  8
0
 62
7
100
AcDbSpline
 70
8
 71
3
 72
8
 73
4
 74
0
 40
0
 40
0
 40
0
 40
0
 40
1
 40
1
 40
1
 40
1
 10
36.344199
 20
121.605698
 30
0.0
 10
34.528668
 20
120.557147
 30
0.0
 10
33.410689
 20
118.619442
 30
0.0
 10
33.411609
 20
116.522871
 30
0.0
  0
SPLINE
  5
1cf
100
AcDbEntity
  8
0
 62
7
100
AcDbSpline
 70
8
 71
3
 72
8
 73
4
 74
0
 40
0
 40
0
 40
0
 40
0
 40
1
 40
1
 40
1
 40
1
 10
33.411609
 20
116.522871
 30
0.0
 10
33.410689
 20
114.426300
 30
0.0
 10
34.528668
 20
112.488595
 30
0.0
 10
36.344199
 20
111.440044
 30
0.0
  0
SPLINE
  5
1d0
100
AcDbEntity
  8
0
 62
7
100
AcDbSpline
 70
8
 71
3
 72
8
 73
4
 74
0
 40
0
 40
0
 40
0
 40
0
 40
1
 40
1
 40
1
 40
1
 10
36.344199
 20
111.440044
 30
0.0
 10
38.159729
 20
110.391493
 30
0.0
 10
40.396821
 20
110.391493
 30
0.0
 10
42.212351
 20
111.440044
 30
0.0
  0
SPLINE
  5
1d1
100
AcDbEntity
  8
0
 62
7
100
AcDbSpline
 70
8
 71
3
 72
8
 73
4
 74
0
 40
0
 40
0
 40
0
 40
0
 40
1
 40
1
 40
1
 40
1
 10
42.212351
 20
111.440044
 30
0.0
 10
44.027882
 20
112.488595
 30
0.0
 10
45.145861
 20
114.426300
 30
0.0
 10
45.144941
 20
116.522871
 30
0.0
  0
LINE
  5
1d2
100
AcDbEntity
  8
0
 62
7
100
AcDbLine
 10
45.144941
 20
116.522871
 30
0.0
 11
45.144941
 21
116.522871
 31
0.0
  0
SPLINE
  5
1d3
100
AcDbEntity
  8
0
 62
7
100
AcDbSpline
 70
8
 71
3
 72
8
 73
4
 74
0
 40
0
 40
0
 40
0
 40
0
 40
1
 40
1
 40
1
 40
1
 10
7.888407
 20
191.859412
 30
0.0
 10
7.888416
 20
193.037614
 30
0.0
 10
8.843540
 20
193.992731
 30
0.0
 10
10.021742
 20
193.992730
 30
0.0
  0
SPLINE
  5
1d4
100
AcDbEntity
  8
0
 62
7
100
AcDbSpline
 70
8
 71
3
 72
8
 73
4
 74
0
 40
0
 40
0
 40
0
 40
0
 40
1
 40
1
 40
1
 40
1
 10
10.021742
 20
193.992730
 30
0.0
 10
10.021742
 20
193.992730
 30
0.0
 10
99.734808
 20
193.992730
 30
0.0
 10
99.734808
 20
193.992730
 30
0.0
  0
SPLINE
  5
1d5
100
AcDbEntity
  8
0
 62
7
100
AcDbSpline
 70
8
 71
3
 72
8
 73
4
 74
0
 40
0
 40
0
 40
0
 40
0
 40
1
 40
1
 40
1
 40
1
 10
99.734808
 20
193.992730
 30
0.0
 10
100.913010
 20
193.992730
 30
0.0
 10
101.868133
 20
193.037614
 30
0.0
 10
101.868142
 20
191.859412
 30
0.0
  0
SPLINE
  5
1d6
100
AcDbEntity
  8
0
 62
7
100
AcDbSpline
 70
8
 71
3
 72
8
 73
4
 74
0
 40
0
 40
0
 40
0
 40
0
 40
1
 40
1
 40
1
 40
1
 10
101.868142
 20
191.859412
 30
0.0
 10
101.868142
 20
191.859412
 30
0.0
 10
101.868142
 20
107.573548
 30
0.0
 10
101.868142
 20
107.573548
 30
0.0
  0
SPLINE
  5
1d7
100
AcDbEntity
  8
0
 62
7
100
AcDbSpline
 70
8
 71
3
 72
8
 73
4
 74
0
 40
0
 40
0
 40
0
 40
0
 40
1
 40
1
 40
1
 40
1
 10
101.868142
 20
107.573548
 30
0.0
 10
101.868145
 20
107.007751
 30
0.0
 10
101.643385
 20
106.465126
 30
0.0
 10
101.243307
 20
106.065045
 30
0.0
  0
SPLINE
  5
1d8
100
AcDbEntity
  8
0
 62
7
100
AcDbSpline
 70
8
 71
3
 72
8
 73
4
 74
0
 40
0
 40
0
 40
0
 40
0
 40
1
 40
1
 40
1
 40
1
 10
101.243307
 20
106.065045
 30
0.0
 10
100.843229
 20
105.664965
 30
0.0
 10
100.300605
 20
105.440202
 30
0.0
 10
99.734808
 20
105.440202
 30
0.0
  0
SPLINE
  5
1d9
100
AcDbEntity
  8
0
 62
7
100
AcDbSpline
 70
8
 71
3
 72
8
 73
4
 74
0
 40
0
 40
0
 40
0
 40
0
 40
1
 40
1
 40
1
 40
1
 10
99.734808
 20
105.440202
 30
0.0
 10
99.734808
 20
105.440202
 30
0.0
 10
10.021742
 20
105.440202
 30
0.0
 10
10.021742
 20
105.440202
 30
0.0
  0
SPLINE
  5
1da
100
AcDbEntity
  8
0
 62
7
100
AcDbSpline
 70
8
 71
3
 72
8
 73
4
 74
0
 40
0
 40
0
 40
0
 40
0
 40
1
 40
1
 40
1
 40
1
 10
10.021742
 20
105.440202
 30
0.0
 10
9.455945
 20
105.440202
 30
0.0
 10
8.913321
 20
105.664964
 30
0.0
 10
8.513242
 20
106.065045
 30
0.0
  0
SPLINE
  5
1db
100
AcDbEntity
  8
0
 62
7
100
AcDbSpline
 70
8
 71
3
 72
8
 73
4
 74
0
 40
0
 40
0
 40
0
 40
0
 40
1
 40
1
 40
1
 40
1
 10
8.513242
 20
106.065045
 30
0.0
 10
8.113164
 20
106.465125
 30
0.0
 10
7.888404
 20
107.007750
 30
0.0
 10
7.888407
 20
107.573548
 30
0.0
  0
LINE
  5
1dc
100
AcDbEntity
  8
0
 62
7
100
AcDbLine
 10
7.888407
 20
107.573548
 30
0.0
 11
7.888407
 21
191.859412
 31
0.0
  0
SPLINE
  5
1dd
100
AcDbEntity
  8
0
 62
7
100
AcDbSpline
 70
8
 71
3
 72
8
 73
4
 74
0
 40
0
 40
0
 40
0
 40
0
 40
1
 40
1
 40
1
 40
1
 10
52.504941
 20
182.901538
 30
0.0
 10
52.504941
 20
185.664392
 30
0.0
 10
51.030976
 20
188.217374
 30
0.0
 10
48.638274
 20
189.598801
 30
0.0
  0
SPLINE
  5
1de
100
AcDbEntity
  8
0
 62
7
100
AcDbSpline
 70
8
 71
3
 72
8
 73
4
 74
0
 40
0
 40
0
 40
0
 40
0
 40
1
 40
1
 40
1
 40
1
 10
48.638274
 20
189.598801
 30
0.0
 10
46.245573
 20
190.980228
 30
0.0
 10
43.297643
 20
190.980228
 30
0.0
 10
40.904941
 20
189.598801
 30
0.0
  0
SPLINE
  5
1df
100
AcDbEntity
  8
0
 62
7
100
AcDbSpline
 70
8
 71
3
 72
8
 73
4
 74
0
 40
0
 40
0
 40
0
 40
0
 40
1
 40
1
 40
1
 40
1
 10
40.904941
 20
189.598801
 30
0.0
 10
38.512239
 20
188.217374
 30
0.0
 10
37.038274
 20
185.664392
 30
0.0
 10
37.038274
 20
182.901538
 30
0.0
  0
SPLINE
  5
1e0
100
AcDbEntity
  8
0
 62
7
100
AcDbSpline
 70
8
 71
3
 72
8
 73
4
 74
0
 40
0
 40
0
 40
0
 40
0
 40
1
 40
1
 40
1
 40
1
 10
37.038274
 20
182.901538
 30
0.0
 10
37.038274
 20
180.138684
 30
0.0
 10
38.512239
 20
177.585702
 30
0.0
 10
40.904941
 20
176.204275
 30
0.0
  0
SPLINE
  5
1e1
100
AcDbEntity
  8
0
 62
7
100
AcDbSpline
 70
8
 71
3
 72
8
 73
4
 74
0
 40
0
 40
0
 40
0
 40
0
 40
1
 40
1
 40
1
 40
1
 10
40.904941
 20
176.204275
 30
0.0
 10
43.297643
 20
174.822848
 30
0.0
 10
46.245573
 20
174.822848
 30
0.0
 10
48.638274
 20
176.204275
 30
0.0
  0
SPLINE
  5
1e2
100
AcDbEntity
  8
0
 62
7
100
AcDbSpline
 70
8
 71
3
 72
8
 73
4
 74
0
 40
0
 40
0
 40
0
 40
0
 40
1
 40
1
 40
1
 40
1
 10
48.638274
 20
176.204275
 30
0.0
 10
51.030976
 20
177.585702
 30
0.0
 10
52.504941
 20
180.138684
 30
0.0
 10
52.504941
 20
182.901538
 30
0.0
  0
LINE
  5
1e3
100
AcDbEntity
  8
0
 62
7
100
AcDbLine
 10
52.504941
 20
182.901538
 30
0.0
 11
52.504941
 21
182.901538
 31
0.0
  0
SPLINE
  5
1e4
100
AcDbEntity
  8
0
 62
7
100
AcDbSpline
 70
8
 71
3
 72
8
 73
4
 74
0
 40
0
 40
0
 40
0
 40
0
 40
1
 40
1
 40
1
 40
1
 10
30.830274
 20
182.901538
 30
0.0
 10
30.830274
 20
185.664392
 30
0.0
 10
29.356309
 20
188.217374
 30
0.0
 10
26.963608
 20
189.598801
 30
0.0
  0
SPLINE
  5
1e5
100
AcDbEntity
  8
0
 62
7
100
AcDbSpline
 70
8
 71
3
 72
8
 73
4
 74
0
 40
0
 40
0
 40
0
 40
0
 40
1
 40
1
 40
1
 40
1
 10
26.963608
 20
189.598801
 30
0.0
 10
24.570906
 20
190.980228
 30
0.0
 10
21.622976
 20
190.980228
 30
0.0
 10
19.230274
 20
189.598801
 30
0.0
  0
SPLINE
  5
1e6
100
AcDbEntity
  8
0
 62
7
100
AcDbSpline
 70
8
 71
3
 72
8
 73
4
 74
0
 40
0
 40
0
 40
0
 40
0
 40
1
 40
1
 40
1
 40
1
 10
19.230274
 20
189.598801
 30
0.0
 10
16.837573
 20
188.217374
 30
0.0
 10
15.363608
 20
185.664392
 30
0.0
 10
15.363608
 20
182.901538
 30
0.0
  0
SPLINE
  5
1e7
100
AcDbEntity
  8
0
 62
7
100
AcDbSpline
 70
8
 71
3
 72
8
 73
4
 74
0
 40
0
 40
0
 40
0
 40
0
 40
1
 40
1
 40
1
 40
1
 10
15.363608
 20
182.901538
 30
0.0
 10
15.363608
 20
180.138684
 30
0.0
 10
16.837573
 20
177.585702
 30
0.0
 10
19.230274
 20
176.204275
 30
0.0
  0
SPLINE
  5
1e8
100
AcDbEntity
  8
0
 62
7
100
AcDbSpline
 70
8
 71
3
 72
8
 73
4
 74
0
 40
0
 40
0
 40
0
 40
0
 40
1
 40
1
 40
1
 40
1
 10
19.230274
 20
176.204275
 30
0.0
 10
21.622976
 20
174.822848
 30
0.0
 10
24.570906
 20
174.822848
 30
0.0
 10
26.963608
 20
176.204275
 30
0.0
  0
SPLINE
  5
1e9
100
AcDbEntity
  8
0
 62
7
100
AcDbSpline
 70
8
 71
3
 72
8
 73
4
 74
0
 40
0
 40
0
 40
0
 40
0
 40
1
 40
1
 40
1
 40
1
 10
26.963608
 20
176.204275
 30
0.0
 10
29.356309
 20
177.585702
 30
0.0
 10
30.830274
 20
180.138684
 30
0.0
 10
30.830274
 20
182.901538
 30
0.0
  0
LINE
  5
1ea
100
AcDbEntity
  8
0
 62
7
100
AcDbLine
 10
30.830274
 20
182.901538
 30
0.0
 11
30.830274
 21
182.901538
 31
0.0
  0
SPLINE
  5
1eb
100
AcDbEntity
  8
0
 62
7
100
AcDbSpline
 70
8
 71
3
 72
8
 73
4
 74
0
 40
0
 40
0
 40
0
 40
0
 40
1
 40
1
 40
1
 40
1
 10
37.164050
 20
156.243252
 30
0.0
 10
37.164050
 20
156.719606
 30
0.0
 10
36.909918
 20
157.159776
 30
0.0
 10
36.497383
 20
157.397953
 30
0.0
  0
SPLINE
  5
1ec
100
AcDbEntity
  8
0
 62
7
100
AcDbSpline
 70
8
 71
3
 72
8
 73
4
 74
0
 40
0
 40
0
 40
0
 40
0
 40
1
 40
1
 40
1
 40
1
 10
36.497383
 20
157.397953
 30
0.0
 10
36.084848
 20
157.636130
 30
0.0
 10
35.576584
 20
157.636130
 30
0.0
 10
35.164049
 20
157.397953
 30
0.0
  0
SPLINE
  5
1ed
100
AcDbEntity
  8
0
 62
7
100
AcDbSpline
 70
8
 71
3
 72
8
 73
4
 74
0
 40
0
 40
0
 40
0
 40
0
 40
1
 40
1
 40
1
 40
1
 10
35.164049
 20
157.397953
 30
0.0
 10
34.751514
 20
157.159776
 30
0.0
 10
34.497383
 20
156.719606
 30
0.0
 10
34.497383
 20
156.243252
 30
0.0
  0
SPLINE
  5
1ee
100
AcDbEntity
  8
0
 62
7
100
AcDbSpline
 70
8
 71
3
 72
8
 73
4
 74
0
 40
0
 40
0
 40
0
 40
0
 40
1
 40
1
 40
1
 40
1
 10
34.497383
 20
156.243252
 30
0.0
 10
34.497383
 20
155.766898
 30
0.0
 10
34.751514
 20
155.326729
 30
0.0
 10
35.164049
 20
155.088552
 30
0.0
  0
SPLINE
  5
1ef
100
AcDbEntity
  8
0
 62
7
100
AcDbSpline
 70
8
 71
3
 72
8
 73
4
 74
0
 40
0
 40
0
 40
0
 40
0
 40
1
 40
1
 40
1
 40
1
 10
35.164049
 20
155.088552
 30
0.0
 10
35.576584
 20
154.850375
 30
0.0
 10
36.084848
 20
154.850375
 30
0.0
 10
36.497383
 20
155.088552
 30
0.0
  0
SPLINE
  5
1f0
100
AcDbEntity
  8
0
 62
7
100
AcDbSpline
 70
8
 71
3
 72
8
 73
4
 74
0
 40
0
 40
0
 40
0
 40
0
 40
1
 40
1
 40
1
 40
1
 10
36.497383
 20
155.088552
 30
0.0
 10
36.909918
 20
155.326729
 30
0.0
 10
37.164050
 20
155.766898
 30
0.0
 10
37.164050
 20
156.243252
 30
0.0
  0
LINE
  5
1f1
100
AcDbEntity
  8
0
 62
7
100
AcDbLine
 10
37.164050
 20
156.243252
 30
0.0
 11
37.164050
 21
156.243252
 31
0.0
  0
SPLINE
  5
1f2
100
AcDbEntity
  8
0
 62
7
100
AcDbSpline
 70
8
 71
3
 72
8
 73
4
 74
0
 40
0
 40
0
 40
0
 40
0
 40
1
 40
1
 40
1
 40
1
 10
38.497383
 20
156.243252
 30
0.0
 10
38.498260
 20
157.196545
 30
0.0
 10
37.990189
 20
158.077798
 30
0.0
 10
37.164759
 20
158.554698
 30
0.0
  0
SPLINE
  5
1f3
100
AcDbEntity
  8
0
 62
7
100
AcDbSpline
 70
8
 71
3
 72
8
 73
4
 74
0
 40
0
 40
0
 40
0
 40
0
 40
1
 40
1
 40
1
 40
1
 10
37.164759
 20
158.554698
 30
0.0
 10
36.339330
 20
159.031598
 30
0.0
 10
35.322105
 20
159.031598
 30
0.0
 10
34.496676
 20
158.554698
 30
0.0
  0
SPLINE
  5
1f4
100
AcDbEntity
  8
0
 62
7
100
AcDbSpline
 70
8
 71
3
 72
8
 73
4
 74
0
 40
0
 40
0
 40
0
 40
0
 40
1
 40
1
 40
1
 40
1
 10
34.496676
 20
158.554698
 30
0.0
 10
33.671246
 20
158.077798
 30
0.0
 10
33.163175
 20
157.196545
 30
0.0
 10
33.164052
 20
156.243252
 30
0.0
  0
SPLINE
  5
1f5
100
AcDbEntity
  8
0
 62
7
100
AcDbSpline
 70
8
 71
3
 72
8
 73
4
 74
0
 40
0
 40
0
 40
0
 40
0
 40
1
 40
1
 40
1
 40
1
 10
33.164052
 20
156.243252
 30
0.0
 10
33.163175
 20
155.289960
 30
0.0
 10
33.671246
 20
154.408706
 30
0.0
 10
34.496676
 20
153.931807
 30
0.0
  0
SPLINE
  5
1f6
100
AcDbEntity
  8
0
 62
7
100
AcDbSpline
 70
8
 71
3
 72
8
 73
4
 74
0
 40
0
 40
0
 40
0
 40
0
 40
1
 40
1
 40
1
 40
1
 10
34.496676
 20
153.931807
 30
0.0
 10
35.322105
 20
153.454907
 30
0.0
 10
36.339330
 20
153.454907
 30
0.0
 10
37.164759
 20
153.931807
 30
0.0
  0
SPLINE
  5
1f7
100
AcDbEntity
  8
0
 62
7
100
AcDbSpline
 70
8
 71
3
 72
8
 73
4
 74
0
 40
0
 40
0
 40
0
 40
0
 40
1
 40
1
 40
1
 40
1
 10
37.164759
 20
153.931807
 30
0.0
 10
37.990189
 20
154.408706
 30
0.0
 10
38.498260
 20
155.289960
 30
0.0
 10
38.497383
 20
156.243252
 30
0.0
  0
LINE
  5
1f8
100
AcDbEntity
  8
0
 62
7
100
AcDbLine
 10
38.497383
 20
156.243252
 30
0.0
 11
38.497383
 21
156.243252
 31
0.0
  0
SPLINE
  5
1f9
100
AcDbEntity
  8
0
 62
7
100
AcDbSpline
 70
8
 71
3
 72
8
 73
4
 74
0
 40
0
 40
0
 40
0
 40
0
 40
1
 40
1
 40
1
 40
1
 10
36.764451
 20
147.318872
 30
0.0
 10
36.764451
 20
147.795226
 30
0.0
 10
36.510319
 20
148.235395
 30
0.0
 10
36.097784
 20
148.473572
 30
0.0
  0
SPLINE
  5
1fa
100
AcDbEntity
  8
0
 62
7
100
AcDbSpline
 70
8
 71
3
 72
8
 73
4
 74
0
 40
0
 40
0
 40
0
 40
0
 40
1
 40
1
 40
1
 40
1
 10
36.097784
 20
148.473572
 30
0.0
 10
35.685250
 20
148.711749
 30
0.0
 10
35.176986
 20
148.711749
 30
0.0
 10
34.764451
 20
148.473572
 30
0.0
  0
SPLINE
  5
1fb
100
AcDbEntity
  8
0
 62
7
100
AcDbSpline
 70
8
 71
3
 72
8
 73
4
 74
0
 40
0
 40
0
 40
0
 40
0
 40
1
 40
1
 40
1
 40
1
 10
34.764451
 20
148.473572
 30
0.0
 10
34.351916
 20
148.235395
 30
0.0
 10
34.097784
 20
147.795226
 30
0.0
 10
34.097784
 20
147.318872
 30
0.0
  0
SPLINE
  5
1fc
100
AcDbEntity
  8
0
 62
7
100
AcDbSpline
 70
8
 71
3
 72
8
 73
4
 74
0
 40
0
 40
0
 40
0
 40
0
 40
1
 40
1
 40
1
 40
1
 10
34.097784
 20
147.318872
 30
0.0
 10
34.097784
 20
146.842518
 30
0.0
 10
34.351916
 20
146.402348
 30
0.0
 10
34.764451
 20
146.164171
 30
0.0
  0
SPLINE
  5
1fd
100
AcDbEntity
  8
0
 62
7
100
AcDbSpline
 70
8
 71
3
 72
8
 73
4
 74
0
 40
0
 40
0
 40
0
 40
0
 40
1
 40
1
 40
1
 40
1
 10
34.764451
 20
146.164171
 30
0.0
 10
35.176986
 20
145.925994
 30
0.0
 10
35.685250
 20
145.925994
 30
0.0
 10
36.097784
 20
146.164171
 30
0.0
  0
SPLINE
  5
1fe
100
AcDbEntity
  8
0
 62
7
100
AcDbSpline
 70
8
 71
3
 72
8
 73
4
 74
0
 40
0
 40
0
 40
0
 40
0
 40
1
 40
1
 40
1
 40
1
 10
36.097784
 20
146.164171
 30
0.0
 10
36.510319
 20
146.402348
 30
0.0
 10
36.764451
 20
146.842518
 30
0.0
 10
36.764451
 20
147.318872
 30
0.0
  0
LINE
  5
1ff
100
AcDbEntity
  8
0
 62
7
100
AcDbLine
 10
36.764451
 20
147.318872
 30
0.0
 11
36.764451
 21
147.318872
 31
0.0
  0
SPLINE
  5
200
100
AcDbEntity
  8
0
 62
7
100
AcDbSpline
 70
8
 71
3
 72
8
 73
4
 74
0
 40
0
 40
0
 40
0
 40
0
 40
1
 40
1
 40
1
 40
1
 10
38.097785
 20
147.318872
 30
0.0
 10
38.098662
 20
148.272164
 30
0.0
 10
37.590590
 20
149.153418
 30
0.0
 10
36.765161
 20
149.630317
 30
0.0
  0
SPLINE
  5
201
100
AcDbEntity
  8
0
 62
7
100
AcDbSpline
 70
8
 71
3
 72
8
 73
4
 74
0
 40
0
 40
0
 40
0
 40
0
 40
1
 40
1
 40
1
 40
1
 10
36.765161
 20
149.630317
 30
0.0
 10
35.939731
 20
150.107217
 30
0.0
 10
34.922507
 20
150.107217
 30
0.0
 10
34.097077
 20
149.630317
 30
0.0
  0
SPLINE
  5
202
100
AcDbEntity
  8
0
 62
7
100
AcDbSpline
 70
8
 71
3
 72
8
 73
4
 74
0
 40
0
 40
0
 40
0
 40
0
 40
1
 40
1
 40
1
 40
1
 10
34.097077
 20
149.630317
 30
0.0
 10
33.271648
 20
149.153418
 30
0.0
 10
32.763576
 20
148.272164
 30
0.0
 10
32.764453
 20
147.318872
 30
0.0
  0
SPLINE
  5
203
100
AcDbEntity
  8
0
 62
7
100
AcDbSpline
 70
8
 71
3
 72
8
 73
4
 74
0
 40
0
 40
0
 40
0
 40
0
 40
1
 40
1
 40
1
 40
1
 10
32.764453
 20
147.318872
 30
0.0
 10
32.763576
 20
146.365579
 30
0.0
 10
33.271648
 20
145.484325
 30
0.0
 10
34.097077
 20
145.007426
 30
0.0
  0
SPLINE
  5
204
100
AcDbEntity
  8
0
 62
7
100
AcDbSpline
 70
8
 71
3
 72
8
 73
4
 74
0
 40
0
 40
0
 40
0
 40
0
 40
1
 40
1
 40
1
 40
1
 10
34.097077
 20
145.007426
 30
0.0
 10
34.922507
 20
144.530526
 30
0.0
 10
35.939731
 20
144.530526
 30
0.0
 10
36.765161
 20
145.007426
 30
0.0
  0
SPLINE
  5
205
100
AcDbEntity
  8
0
 62
7
100
AcDbSpline
 70
8
 71
3
 72
8
 73
4
 74
0
 40
0
 40
0
 40
0
 40
0
 40
1
 40
1
 40
1
 40
1
 10
36.765161
 20
145.007426
 30
0.0
 10
37.590590
 20
145.484325
 30
0.0
 10
38.098662
 20
146.365579
 30
0.0
 10
38.097785
 20
147.318872
 30
0.0
  0
LINE
  5
206
100
AcDbEntity
  8
0
 62
7
100
AcDbLine
 10
38.097785
 20
147.318872
 30
0.0
 11
38.097785
 21
147.318872
 31
0.0
  0
SPLINE
  5
207
100
AcDbEntity
  8
0
 62
7
100
AcDbSpline
 70
8
 71
3
 72
8
 73
4
 74
0
 40
0
 40
0
 40
0
 40
0
 40
1
 40
1
 40
1
 40
1
 10
46.354828
 20
141.990884
 30
0.0
 10
46.354828
 20
142.467239
 30
0.0
 10
46.100696
 20
142.907408
 30
0.0
 10
45.688161
 20
143.145585
 30
0.0
  0
SPLINE
  5
208
100
AcDbEntity
  8
0
 62
7
100
AcDbSpline
 70
8
 71
3
 72
8
 73
4
 74
0
 40
0
 40
0
 40
0
 40
0
 40
1
 40
1
 40
1
 40
1
 10
45.688161
 20
143.145585
 30
0.0
 10
45.275626
 20
143.383762
 30
0.0
 10
44.767362
 20
143.383762
 30
0.0
 10
44.354828
 20
143.145585
 30
0.0
  0
SPLINE
  5
209
100
AcDbEntity
  8
0
 62
7
100
AcDbSpline
 70
8
 71
3
 72
8
 73
4
 74
0
 40
0
 40
0
 40
0
 40
0
 40
1
 40
1
 40
1
 40
1
 10
44.354828
 20
143.145585
 30
0.0
 10
43.942293
 20
142.907408
 30
0.0
 10
43.688161
 20
142.467239
 30
0.0
 10
43.688161
 20
141.990884
 30
0.0
  0
SPLINE
  5
20a
100
AcDbEntity
  8
0
 62
7
100
AcDbSpline
 70
8
 71
3
 72
8
 73
4
 74
0
 40
0
 40
0
 40
0
 40
0
 40
1
 40
1
 40
1
 40
1
 10
43.688161
 20
141.990884
 30
0.0
 10
43.688161
 20
141.514530
 30
0.0
 10
43.942293
 20
141.074361
 30
0.0
 10
44.354828
 20
140.836184
 30
0.0
  0
SPLINE
  5
20b
100
AcDbEntity
  8
0
 62
7
100
AcDbSpline
 70
8
 71
3
 72
8
 73
4
 74
0
 40
0
 40
0
 40
0
 40
0
 40
1
 40
1
 40
1
 40
1
 10
44.354828
 20
140.836184
 30
0.0
 10
44.767362
 20
140.598007
 30
0.0
 10
45.275626
 20
140.598007
 30
0.0
 10
45.688161
 20
140.836184
 30
0.0
  0
SPLINE
  5
20c
100
AcDbEntity
  8
0
 62
7
100
AcDbSpline
 70
8
 71
3
 72
8
 73
4
 74
0
 40
0
 40
0
 40
0
 40
0
 40
1
 40
1
 40
1
 40
1
 10
45.688161
 20
140.836184
 30
0.0
 10
46.100696
 20
141.074361
 30
0.0
 10
46.354828
 20
141.514530
 30
0.0
 10
46.354828
 20
141.990884
 30
0.0
  0
LINE
  5
20d
100
AcDbEntity
  8
0
 62
7
100
AcDbLine
 10
46.354828
 20
141.990884
 30
0.0
 11
46.354828
 21
141.990884
 31
0.0
  0
SPLINE
  5
20e
100
AcDbEntity
  8
0
 62
7
100
AcDbSpline
 70
8
 71
3
 72
8
 73
4
 74
0
 40
0
 40
0
 40
0
 40
0
 40
1
 40
1
 40
1
 40
1
 10
47.688161
 20
141.990884
 30
0.0
 10
47.689039
 20
142.944177
 30
0.0
 10
47.180967
 20
143.825431
 30
0.0
 10
46.355537
 20
144.302330
 30
0.0
  0
SPLINE
  5
20f
100
AcDbEntity
  8
0
 62
7
100
AcDbSpline
 70
8
 71
3
 72
8
 73
4
 74
0
 40
0
 40
0
 40
0
 40
0
 40
1
 40
1
 40
1
 40
1
 10
46.355537
 20
144.302330
 30
0.0
 10
45.530108
 20
144.779230
 30
0.0
 10
44.512884
 20
144.779230
 30
0.0
 10
43.687454
 20
144.302330
 30
0.0
  0
SPLINE
  5
210
100
AcDbEntity
  8
0
 62
7
100
AcDbSpline
 70
8
 71
3
 72
8
 73
4
 74
0
 40
0
 40
0
 40
0
 40
0
 40
1
 40
1
 40
1
 40
1
 10
43.687454
 20
144.302330
 30
0.0
 10
42.862025
 20
143.825431
 30
0.0
 10
42.353953
 20
142.944177
 30
0.0
 10
42.354830
 20
141.990884
 30
0.0
  0
SPLINE
  5
211
100
AcDbEntity
  8
0
 62
7
100
AcDbSpline
 70
8
 71
3
 72
8
 73
4
 74
0
 40
0
 40
0
 40
0
 40
0
 40
1
 40
1
 40
1
 40
1
 10
42.354830
 20
141.990884
 30
0.0
 10
42.353953
 20
141.037592
 30
0.0
 10
42.862025
 20
140.156338
 30
0.0
 10
43.687454
 20
139.679439
 30
0.0
  0
SPLINE
  5
212
100
AcDbEntity
  8
0
 62
7
100
AcDbSpline
 70
8
 71
3
 72
8
 73
4
 74
0
 40
0
 40
0
 40
0
 40
0
 40
1
 40
1
 40
1
 40
1
 10
43.687454
 20
139.679439
 30
0.0
 10
44.512884
 20
139.202539
 30
0.0
 10
45.530108
 20
139.202539
 30
0.0
 10
46.355537
 20
139.679439
 30
0.0
  0
SPLINE
  5
213
100
AcDbEntity
  8
0
 62
7
100
AcDbSpline
 70
8
 71
3
 72
8
 73
4
 74
0
 40
0
 40
0
 40
0
 40
0
 40
1
 40
1
 40
1
 40
1
 10
46.355537
 20
139.679439
 30
0.0
 10
47.180967
 20
140.156338
 30
0.0
 10
47.689039
 20
141.037592
 30
0.0
 10
47.688161
 20
141.990884
 30
0.0
  0
LINE
  5
214
100
AcDbEntity
  8
0
 62
7
100
AcDbLine
 10
47.688161
 20
141.990884
 30
0.0
 11
47.688161
 21
141.990884
 31
0.0
  0
ENDSEC
  0
SECTION
  2
OBJECTS
  0
DICTIONARY
  5
C
330
0
100
AcDbDictionary
  3
ACAD_GROUP
350
D
  3
ACAD_MLINESTYLE
350
17
  0
DICTIONARY
  5
D
330
C
100
AcDbDictionary
  0
DICTIONARY
  5
1A
330
C
100
AcDbDictionary
  0
DICTIONARY
  5
17
330
C
100
AcDbDictionary
  3
STANDARD
350
18
  0
DICTIONARY
  5
19
330
C
100
AcDbDictionary
  0
ENDSEC
  0
EOF
