  0
SECTION
  2
HEADER
  9
$ACADVER
  1
AC1014
  9
$HANDSEED
  5
FFFF
  9
$MEASUREMENT
 70
     1
  0
ENDSEC
  0
SECTION
  2
TABLES
  0
TABLE
  2
VPORT
  5
8
330
0
100
AcDbSymbolTable
 70
     4
  0
VPORT
  5
2E
330
8
100
AcDbSymbolTableRecord
100
AcDbViewportTableRecord
  2
*ACTIVE
 70
     0
 10
0.0
 20
0.0
 11
1.0
 21
1.0
 12
210.0
 22
148.5
 13
0.0
 23
0.0
 14
10.0
 24
10.0
 15
10.0
 25
10.0
 16
0.0
 26
0.0
 36
1.0
 17
0.0
 27
0.0
 37
0.0
 40
341.0
 41
1.24
 42
50.0
 43
0.0
 44
0.0
 50
0.0
 51
0.0
 71
     0
 72
   100
 73
     1
 74
     3
 75
     0
 76
     0
 77
     0
 78
     0
  0
ENDTAB
  0
TABLE
  2
LTYPE
  5
5
330
0
100
AcDbSymbolTable
 70
     1
  0
LTYPE
  5
14
330
5
100
AcDbSymbolTableRecord
100
AcDbLinetypeTableRecord
  2
BYBLOCK
 70
     0
  3

 72
    65
 73
     0
 40
0.0
  0
LTYPE
  5
15
330
5
100
AcDbSymbolTableRecord
100
AcDbLinetypeTableRecord
  2
BYLAYER
 70
     0
  3

 72
    65
 73
     0
 40
0.0
  0
LTYPE
  5
16
330
5
100
AcDbSymbolTableRecord
100
AcDbLinetypeTableRecord
  2
CONTINUOUS
 70
     0
  3
Solid line
 72
    65
 73
     0
 40
0.0
  0
ENDTAB
  0
TABLE
  2
LAYER
  5
2
100
AcDbSymbolTable
 70
1
  0
LAYER
  5
50
100
AcDbSymbolTableRecord
100
AcDbLayerTableRecord
  2
0
 70
0
  6
CONTINUOUS
  0
ENDTAB
  0
TABLE
  2
STYLE
  5
3
330
0
100
AcDbSymbolTable
 70
     1
  0
STYLE
  5
11
330
3
100
AcDbSymbolTableRecord
100
AcDbTextStyleTableRecord
  2
STANDARD
 70
     0
 40
0.0
 41
1.0
 50
0.0
 71
     0
 42
2.5
  3
txt
  4

  0
ENDTAB
  0
TABLE
  2
VIEW
  5
6
330
0
100
AcDbSymbolTable
 70
     0
  0
ENDTAB
  0
TABLE
  2
UCS
  5
7
330
0
100
AcDbSymbolTable
 70
     0
  0
ENDTAB
  0
TABLE
  2
APPID
  5
9
330
0
100
AcDbSymbolTable
 70
     2
  0
APPID
  5
12
330
9
100
AcDbSymbolTableRecord
100
AcDbRegAppTableRecord
  2
ACAD
 70
     0
  0
ENDTAB
  0
TABLE
  2
DIMSTYLE
  5
A
330
0
100
AcDbSymbolTable
 70
     1
  0
DIMSTYLE
105
27
330
A
100
AcDbSymbolTableRecord
100
AcDbDimStyleTableRecord
  2
ISO-25
 70
     0
  3

  4

  5

  6

  7

 40
1.0
 41
2.5
 42
0.625
 43
3.75
 44
1.25
 45
0.0
 46
0.0
 47
0.0
 48
0.0
140
2.5
141
2.5
142
0.0
143
0.03937007874016
144
1.0
145
0.0
146
1.0
147
0.625
 71
     0
 72
     0
 73
     0
 74
     0
 75
     0
 76
     0
 77
     1
 78
     8
170
     0
171
     3
172
     1
173
     0
174
     0
175
     0
176
     0
177
     0
178
     0
270
     2
271
     2
272
     2
273
     2
274
     3
340
11
275
     0
280
     0
281
     0
282
     0
283
     0
284
     8
285
     0
286
     0
287
     3
288
     0
  0
ENDTAB
  0
TABLE
  2
BLOCK_RECORD
  5
1
330
0
100
AcDbSymbolTable
 70
     1
  0
BLOCK_RECORD
  5
1F
330
1
100
AcDbSymbolTableRecord
100
AcDbBlockTableRecord
  2
*MODEL_SPACE
  0
BLOCK_RECORD
  5
1B
330
1
100
AcDbSymbolTableRecord
100
AcDbBlockTableRecord
  2
*PAPER_SPACE
  0
ENDTAB
  0
ENDSEC
  0
SECTION
  2
BLOCKS
  0
BLOCK
  5
20
330
1F
100
AcDbEntity
  8
0
100
AcDbBlockBegin
  2
*MODEL_SPACE
 70
     0
 10
0.0
 20
0.0
 30
0.0
  3
*MODEL_SPACE
  1

  0
ENDBLK
  5
21
330
1F
100
AcDbEntity
  8
0
100
AcDbBlockEnd
  0
BLOCK
  5
1C
330
1B
100
AcDbEntity
 67
     1
  8
0
100
AcDbBlockBegin
  2
*PAPER_SPACE
  1

  0
ENDBLK
  5
1D
330
1B
100
AcDbEntity
 67
     1
  8
0
100
AcDbBlockEnd
  0
ENDSEC
  0
SECTION
  2
ENTITIES
  0
SPLINE
  5
100
100
AcDbEntity
  8
0
 62
7
100
AcDbSpline
 70
8
 71
3
 72
8
 73
4
 74
0
 40
0
 40
0
 40
0
 40
0
 40
1
 40
1
 40
1
 40
1
 10
46.559487
 20
71.316414
 30
0.0
 10
46.559716
 20
71.839087
 30
0.0
 10
46.281004
 20
72.322152
 30
0.0
 10
45.828396
 20
72.583555
 30
0.0
  0
SPLINE
  5
101
100
AcDbEntity
  8
0
 62
7
100
AcDbSpline
 70
8
 71
3
 72
8
 73
4
 74
0
 40
0
 40
0
 40
0
 40
0
 40
1
 40
1
 40
1
 40
1
 10
45.828396
 20
72.583555
 30
0.0
 10
45.375788
 20
72.844958
 30
0.0
 10
44.818086
 20
72.844958
 30
0.0
 10
44.365477
 20
72.583555
 30
0.0
  0
SPLINE
  5
102
100
AcDbEntity
  8
0
 62
7
100
AcDbSpline
 70
8
 71
3
 72
8
 73
4
 74
0
 40
0
 40
0
 40
0
 40
0
 40
1
 40
1
 40
1
 40
1
 10
44.365477
 20
72.583555
 30
0.0
 10
43.912869
 20
72.322152
 30
0.0
 10
43.634158
 20
71.839087
 30
0.0
 10
43.634389
 20
71.316414
 30
0.0
  0
SPLINE
  5
103
100
AcDbEntity
  8
0
 62
7
100
AcDbSpline
 70
8
 71
3
 72
8
 73
4
 74
0
 40
0
 40
0
 40
0
 40
0
 40
1
 40
1
 40
1
 40
1
 10
43.634389
 20
71.316414
 30
0.0
 10
43.634158
 20
70.793744
 30
0.0
 10
43.912869
 20
70.310678
 30
0.0
 10
44.365477
 20
70.049276
 30
0.0
  0
SPLINE
  5
104
100
AcDbEntity
  8
0
 62
7
100
AcDbSpline
 70
8
 71
3
 72
8
 73
4
 74
0
 40
0
 40
0
 40
0
 40
0
 40
1
 40
1
 40
1
 40
1
 10
44.365477
 20
70.049276
 30
0.0
 10
44.818086
 20
69.787876
 30
0.0
 10
45.375788
 20
69.787876
 30
0.0
 10
45.828396
 20
70.049276
 30
0.0
  0
SPLINE
  5
105
100
AcDbEntity
  8
0
 62
7
100
AcDbSpline
 70
8
 71
3
 72
8
 73
4
 74
0
 40
0
 40
0
 40
0
 40
0
 40
1
 40
1
 40
1
 40
1
 10
45.828396
 20
70.049276
 30
0.0
 10
46.281004
 20
70.310678
 30
0.0
 10
46.559716
 20
70.793744
 30
0.0
 10
46.559487
 20
71.316414
 30
0.0
  0
LINE
  5
106
100
AcDbEntity
  8
0
 62
7
100
AcDbLine
 10
46.559487
 20
71.316414
 30
0.0
 11
46.559487
 21
71.316414
 31
0.0
  0
SPLINE
  5
107
100
AcDbEntity
  8
0
 62
7
100
AcDbSpline
 70
8
 71
3
 72
8
 73
4
 74
0
 40
0
 40
0
 40
0
 40
0
 40
1
 40
1
 40
1
 40
1
 10
108.252466
 20
71.316414
 30
0.0
 10
108.252697
 20
71.839087
 30
0.0
 10
107.973986
 20
72.322152
 30
0.0
 10
107.521378
 20
72.583555
 30
0.0
  0
SPLINE
  5
108
100
AcDbEntity
  8
0
 62
7
100
AcDbSpline
 70
8
 71
3
 72
8
 73
4
 74
0
 40
0
 40
0
 40
0
 40
0
 40
1
 40
1
 40
1
 40
1
 10
107.521378
 20
72.583555
 30
0.0
 10
107.068770
 20
72.844958
 30
0.0
 10
106.511067
 20
72.844958
 30
0.0
 10
106.058459
 20
72.583555
 30
0.0
  0
SPLINE
  5
109
100
AcDbEntity
  8
0
 62
7
100
AcDbSpline
 70
8
 71
3
 72
8
 73
4
 74
0
 40
0
 40
0
 40
0
 40
0
 40
1
 40
1
 40
1
 40
1
 10
106.058459
 20
72.583555
 30
0.0
 10
105.605851
 20
72.322152
 30
0.0
 10
105.327140
 20
71.839087
 30
0.0
 10
105.327368
 20
71.316414
 30
0.0
  0
SPLINE
  5
10a
100
AcDbEntity
  8
0
 62
7
100
AcDbSpline
 70
8
 71
3
 72
8
 73
4
 74
0
 40
0
 40
0
 40
0
 40
0
 40
1
 40
1
 40
1
 40
1
 10
105.327368
 20
71.316414
 30
0.0
 10
105.327140
 20
70.793744
 30
0.0
 10
105.605851
 20
70.310678
 30
0.0
 10
106.058459
 20
70.049276
 30
0.0
  0
SPLINE
  5
10b
100
AcDbEntity
  8
0
 62
7
100
AcDbSpline
 70
8
 71
3
 72
8
 73
4
 74
0
 40
0
 40
0
 40
0
 40
0
 40
1
 40
1
 40
1
 40
1
 10
106.058459
 20
70.049276
 30
0.0
 10
106.511067
 20
69.787876
 30
0.0
 10
107.068770
 20
69.787876
 30
0.0
 10
107.521378
 20
70.049276
 30
0.0
  0
SPLINE
  5
10c
100
AcDbEntity
  8
0
 62
7
100
AcDbSpline
 70
8
 71
3
 72
8
 73
4
 74
0
 40
0
 40
0
 40
0
 40
0
 40
1
 40
1
 40
1
 40
1
 10
107.521378
 20
70.049276
 30
0.0
 10
107.973986
 20
70.310678
 30
0.0
 10
108.252697
 20
70.793744
 30
0.0
 10
108.252466
 20
71.316414
 30
0.0
  0
LINE
  5
10d
100
AcDbEntity
  8
0
 62
7
100
AcDbLine
 10
108.252466
 20
71.316414
 30
0.0
 11
108.252466
 21
71.316414
 31
0.0
  0
SPLINE
  5
10e
100
AcDbEntity
  8
0
 62
7
100
AcDbSpline
 70
8
 71
3
 72
8
 73
4
 74
0
 40
0
 40
0
 40
0
 40
0
 40
1
 40
1
 40
1
 40
1
 10
46.559487
 20
19.196497
 30
0.0
 10
46.559716
 20
19.719173
 30
0.0
 10
46.281004
 20
20.202224
 30
0.0
 10
45.828396
 20
20.463647
 30
0.0
  0
SPLINE
  5
10f
100
AcDbEntity
  8
0
 62
7
100
AcDbSpline
 70
8
 71
3
 72
8
 73
4
 74
0
 40
0
 40
0
 40
0
 40
0
 40
1
 40
1
 40
1
 40
1
 10
45.828396
 20
20.463647
 30
0.0
 10
45.375788
 20
20.725041
 30
0.0
 10
44.818086
 20
20.725041
 30
0.0
 10
44.365477
 20
20.463647
 30
0.0
  0
SPLINE
  5
110
100
AcDbEntity
  8
0
 62
7
100
AcDbSpline
 70
8
 71
3
 72
8
 73
4
 74
0
 40
0
 40
0
 40
0
 40
0
 40
1
 40
1
 40
1
 40
1
 10
44.365477
 20
20.463647
 30
0.0
 10
43.912869
 20
20.202224
 30
0.0
 10
43.634158
 20
19.719173
 30
0.0
 10
43.634389
 20
19.196497
 30
0.0
  0
SPLINE
  5
111
100
AcDbEntity
  8
0
 62
7
100
AcDbSpline
 70
8
 71
3
 72
8
 73
4
 74
0
 40
0
 40
0
 40
0
 40
0
 40
1
 40
1
 40
1
 40
1
 10
43.634389
 20
19.196497
 30
0.0
 10
43.634158
 20
18.673822
 30
0.0
 10
43.912869
 20
18.190770
 30
0.0
 10
44.365477
 20
17.929348
 30
0.0
  0
SPLINE
  5
112
100
AcDbEntity
  8
0
 62
7
100
AcDbSpline
 70
8
 71
3
 72
8
 73
4
 74
0
 40
0
 40
0
 40
0
 40
0
 40
1
 40
1
 40
1
 40
1
 10
44.365477
 20
17.929348
 30
0.0
 10
44.818086
 20
17.667954
 30
0.0
 10
45.375788
 20
17.667954
 30
0.0
 10
45.828396
 20
17.929348
 30
0.0
  0
SPLINE
  5
113
100
AcDbEntity
  8
0
 62
7
100
AcDbSpline
 70
8
 71
3
 72
8
 73
4
 74
0
 40
0
 40
0
 40
0
 40
0
 40
1
 40
1
 40
1
 40
1
 10
45.828396
 20
17.929348
 30
0.0
 10
46.281004
 20
18.190770
 30
0.0
 10
46.559716
 20
18.673822
 30
0.0
 10
46.559487
 20
19.196497
 30
0.0
  0
LINE
  5
114
100
AcDbEntity
  8
0
 62
7
100
AcDbLine
 10
46.559487
 20
19.196497
 30
0.0
 11
46.559487
 21
19.196497
 31
0.0
  0
SPLINE
  5
115
100
AcDbEntity
  8
0
 62
7
100
AcDbSpline
 70
8
 71
3
 72
8
 73
4
 74
0
 40
0
 40
0
 40
0
 40
0
 40
1
 40
1
 40
1
 40
1
 10
25.208397
 20
96.863692
 30
0.0
 10
25.208628
 20
97.395864
 30
0.0
 10
24.924850
 20
97.887710
 30
0.0
 10
24.464014
 20
98.153865
 30
0.0
  0
SPLINE
  5
116
100
AcDbEntity
  8
0
 62
7
100
AcDbSpline
 70
8
 71
3
 72
8
 73
4
 74
0
 40
0
 40
0
 40
0
 40
0
 40
1
 40
1
 40
1
 40
1
 10
24.464014
 20
98.153865
 30
0.0
 10
24.003176
 20
98.420017
 30
0.0
 10
23.435336
 20
98.420017
 30
0.0
 10
22.974498
 20
98.153865
 30
0.0
  0
SPLINE
  5
117
100
AcDbEntity
  8
0
 62
7
100
AcDbSpline
 70
8
 71
3
 72
8
 73
4
 74
0
 40
0
 40
0
 40
0
 40
0
 40
1
 40
1
 40
1
 40
1
 10
22.974498
 20
98.153865
 30
0.0
 10
22.513661
 20
97.887710
 30
0.0
 10
22.229884
 20
97.395864
 30
0.0
 10
22.230115
 20
96.863692
 30
0.0
  0
SPLINE
  5
118
100
AcDbEntity
  8
0
 62
7
100
AcDbSpline
 70
8
 71
3
 72
8
 73
4
 74
0
 40
0
 40
0
 40
0
 40
0
 40
1
 40
1
 40
1
 40
1
 10
22.230115
 20
96.863692
 30
0.0
 10
22.229884
 20
96.331516
 30
0.0
 10
22.513661
 20
95.839671
 30
0.0
 10
22.974498
 20
95.573518
 30
0.0
  0
SPLINE
  5
119
100
AcDbEntity
  8
0
 62
7
100
AcDbSpline
 70
8
 71
3
 72
8
 73
4
 74
0
 40
0
 40
0
 40
0
 40
0
 40
1
 40
1
 40
1
 40
1
 10
22.974498
 20
95.573518
 30
0.0
 10
23.435336
 20
95.307363
 30
0.0
 10
24.003176
 20
95.307363
 30
0.0
 10
24.464014
 20
95.573518
 30
0.0
  0
SPLINE
  5
11a
100
AcDbEntity
  8
0
 62
7
100
AcDbSpline
 70
8
 71
3
 72
8
 73
4
 74
0
 40
0
 40
0
 40
0
 40
0
 40
1
 40
1
 40
1
 40
1
 10
24.464014
 20
95.573518
 30
0.0
 10
24.924850
 20
95.839671
 30
0.0
 10
25.208628
 20
96.331516
 30
0.0
 10
25.208397
 20
96.863692
 30
0.0
  0
LINE
  5
11b
100
AcDbEntity
  8
0
 62
7
100
AcDbLine
 10
25.208397
 20
96.863692
 30
0.0
 11
25.208397
 21
96.863692
 31
0.0
  0
SPLINE
  5
11c
100
AcDbEntity
  8
0
 62
7
100
AcDbSpline
 70
8
 71
3
 72
8
 73
4
 74
0
 40
0
 40
0
 40
0
 40
0
 40
1
 40
1
 40
1
 40
1
 10
108.287569
 20
96.863692
 30
0.0
 10
108.288133
 20
97.396146
 30
0.0
 10
108.004537
 20
97.888435
 30
0.0
 10
107.543527
 20
98.154850
 30
0.0
  0
SPLINE
  5
11d
100
AcDbEntity
  8
0
 62
7
100
AcDbSpline
 70
8
 71
3
 72
8
 73
4
 74
0
 40
0
 40
0
 40
0
 40
0
 40
1
 40
1
 40
1
 40
1
 10
107.543527
 20
98.154850
 30
0.0
 10
107.082517
 20
98.421268
 30
0.0
 10
106.514338
 20
98.421268
 30
0.0
 10
106.053328
 20
98.154850
 30
0.0
  0
SPLINE
  5
11e
100
AcDbEntity
  8
0
 62
7
100
AcDbSpline
 70
8
 71
3
 72
8
 73
4
 74
0
 40
0
 40
0
 40
0
 40
0
 40
1
 40
1
 40
1
 40
1
 10
106.053328
 20
98.154850
 30
0.0
 10
105.592318
 20
97.888435
 30
0.0
 10
105.308631
 20
97.396146
 30
0.0
 10
105.309286
 20
96.863692
 30
0.0
  0
SPLINE
  5
11f
100
AcDbEntity
  8
0
 62
7
100
AcDbSpline
 70
8
 71
3
 72
8
 73
4
 74
0
 40
0
 40
0
 40
0
 40
0
 40
1
 40
1
 40
1
 40
1
 10
105.309286
 20
96.863692
 30
0.0
 10
105.308722
 20
96.331237
 30
0.0
 10
105.592318
 20
95.838948
 30
0.0
 10
106.053328
 20
95.572531
 30
0.0
  0
SPLINE
  5
120
100
AcDbEntity
  8
0
 62
7
100
AcDbSpline
 70
8
 71
3
 72
8
 73
4
 74
0
 40
0
 40
0
 40
0
 40
0
 40
1
 40
1
 40
1
 40
1
 10
106.053328
 20
95.572531
 30
0.0
 10
106.514338
 20
95.306116
 30
0.0
 10
107.082517
 20
95.306116
 30
0.0
 10
107.543527
 20
95.572531
 30
0.0
  0
SPLINE
  5
121
100
AcDbEntity
  8
0
 62
7
100
AcDbSpline
 70
8
 71
3
 72
8
 73
4
 74
0
 40
0
 40
0
 40
0
 40
0
 40
1
 40
1
 40
1
 40
1
 10
107.543527
 20
95.572531
 30
0.0
 10
108.004537
 20
95.838948
 30
0.0
 10
108.288221
 20
96.331237
 30
0.0
 10
108.287569
 20
96.863692
 30
0.0
  0
LINE
  5
122
100
AcDbEntity
  8
0
 62
7
100
AcDbLine
 10
108.287569
 20
96.863692
 30
0.0
 11
108.287569
 21
96.863692
 31
0.0
  0
SPLINE
  5
123
100
AcDbEntity
  8
0
 62
7
100
AcDbSpline
 70
8
 71
3
 72
8
 73
4
 74
0
 40
0
 40
0
 40
0
 40
0
 40
1
 40
1
 40
1
 40
1
 10
108.252466
 20
19.196497
 30
0.0
 10
108.252697
 20
19.719173
 30
0.0
 10
107.973986
 20
20.202224
 30
0.0
 10
107.521378
 20
20.463647
 30
0.0
  0
SPLINE
  5
124
100
AcDbEntity
  8
0
 62
7
100
AcDbSpline
 70
8
 71
3
 72
8
 73
4
 74
0
 40
0
 40
0
 40
0
 40
0
 40
1
 40
1
 40
1
 40
1
 10
107.521378
 20
20.463647
 30
0.0
 10
107.068770
 20
20.725041
 30
0.0
 10
106.511067
 20
20.725041
 30
0.0
 10
106.058459
 20
20.463647
 30
0.0
  0
SPLINE
  5
125
100
AcDbEntity
  8
0
 62
7
100
AcDbSpline
 70
8
 71
3
 72
8
 73
4
 74
0
 40
0
 40
0
 40
0
 40
0
 40
1
 40
1
 40
1
 40
1
 10
106.058459
 20
20.463647
 30
0.0
 10
105.605851
 20
20.202224
 30
0.0
 10
105.327140
 20
19.719173
 30
0.0
 10
105.327368
 20
19.196497
 30
0.0
  0
SPLINE
  5
126
100
AcDbEntity
  8
0
 62
7
100
AcDbSpline
 70
8
 71
3
 72
8
 73
4
 74
0
 40
0
 40
0
 40
0
 40
0
 40
1
 40
1
 40
1
 40
1
 10
105.327368
 20
19.196497
 30
0.0
 10
105.327140
 20
18.673822
 30
0.0
 10
105.605851
 20
18.190770
 30
0.0
 10
106.058459
 20
17.929348
 30
0.0
  0
SPLINE
  5
127
100
AcDbEntity
  8
0
 62
7
100
AcDbSpline
 70
8
 71
3
 72
8
 73
4
 74
0
 40
0
 40
0
 40
0
 40
0
 40
1
 40
1
 40
1
 40
1
 10
106.058459
 20
17.929348
 30
0.0
 10
106.511067
 20
17.667954
 30
0.0
 10
107.068770
 20
17.667954
 30
0.0
 10
107.521378
 20
17.929348
 30
0.0
  0
SPLINE
  5
128
100
AcDbEntity
  8
0
 62
7
100
AcDbSpline
 70
8
 71
3
 72
8
 73
4
 74
0
 40
0
 40
0
 40
0
 40
0
 40
1
 40
1
 40
1
 40
1
 10
107.521378
 20
17.929348
 30
0.0
 10
107.973986
 20
18.190770
 30
0.0
 10
108.252697
 20
18.673822
 30
0.0
 10
108.252466
 20
19.196497
 30
0.0
  0
LINE
  5
129
100
AcDbEntity
  8
0
 62
7
100
AcDbLine
 10
108.252466
 20
19.196497
 30
0.0
 11
108.252466
 21
19.196497
 31
0.0
  0
SPLINE
  5
12a
100
AcDbEntity
  8
0
 62
7
100
AcDbSpline
 70
8
 71
3
 72
8
 73
4
 74
0
 40
0
 40
0
 40
0
 40
0
 40
1
 40
1
 40
1
 40
1
 10
109.989445
 20
102.182051
 30
0.0
 10
111.164345
 20
102.182051
 30
0.0
 10
112.116788
 20
101.229607
 30
0.0
 10
112.116788
 20
100.054708
 30
0.0
  0
LINE
  5
12b
100
AcDbEntity
  8
0
 62
7
100
AcDbLine
 10
112.116788
 20
100.054708
 30
0.0
 11
112.116788
 21
16.005467
 31
0.0
  0
SPLINE
  5
12c
100
AcDbEntity
  8
0
 62
7
100
AcDbSpline
 70
8
 71
3
 72
8
 73
4
 74
0
 40
0
 40
0
 40
0
 40
0
 40
1
 40
1
 40
1
 40
1
 10
112.116788
 20
16.005467
 30
0.0
 10
112.116791
 20
15.441277
 30
0.0
 10
111.892661
 20
14.900172
 30
0.0
 10
111.493706
 20
14.501223
 30
0.0
  0
SPLINE
  5
12d
100
AcDbEntity
  8
0
 62
7
100
AcDbSpline
 70
8
 71
3
 72
8
 73
4
 74
0
 40
0
 40
0
 40
0
 40
0
 40
1
 40
1
 40
1
 40
1
 10
111.493706
 20
14.501223
 30
0.0
 10
111.094751
 20
14.102245
 30
0.0
 10
110.553652
 20
13.878132
 30
0.0
 10
109.989445
 20
13.878132
 30
0.0
  0
LINE
  5
12e
100
AcDbEntity
  8
0
 62
7
100
AcDbLine
 10
109.989445
 20
13.878132
 30
0.0
 11
20.528240
 21
13.878132
 31
0.0
  0
SPLINE
  5
12f
100
AcDbEntity
  8
0
 62
7
100
AcDbSpline
 70
8
 71
3
 72
8
 73
4
 74
0
 40
0
 40
0
 40
0
 40
0
 40
1
 40
1
 40
1
 40
1
 10
20.528240
 20
13.878132
 30
0.0
 10
19.964031
 20
13.878132
 30
0.0
 10
19.422931
 20
14.102245
 30
0.0
 10
19.023975
 20
14.501194
 30
0.0
  0
SPLINE
  5
130
100
AcDbEntity
  8
0
 62
7
100
AcDbSpline
 70
8
 71
3
 72
8
 73
4
 74
0
 40
0
 40
0
 40
0
 40
0
 40
1
 40
1
 40
1
 40
1
 10
19.023975
 20
14.501194
 30
0.0
 10
18.625020
 20
14.900172
 30
0.0
 10
18.400892
 20
15.441277
 30
0.0
 10
18.400895
 20
16.005467
 30
0.0
  0
LINE
  5
131
100
AcDbEntity
  8
0
 62
7
100
AcDbLine
 10
18.400895
 20
16.005467
 30
0.0
 11
18.400895
 21
100.054708
 31
0.0
  0
SPLINE
  5
132
100
AcDbEntity
  8
0
 62
7
100
AcDbSpline
 70
8
 71
3
 72
8
 73
4
 74
0
 40
0
 40
0
 40
0
 40
0
 40
1
 40
1
 40
1
 40
1
 10
18.400895
 20
100.054708
 30
0.0
 10
18.400895
 20
100.618912
 30
0.0
 10
18.625025
 20
101.160011
 30
0.0
 10
19.023979
 20
101.558966
 30
0.0
  0
SPLINE
  5
133
100
AcDbEntity
  8
0
 62
7
100
AcDbSpline
 70
8
 71
3
 72
8
 73
4
 74
0
 40
0
 40
0
 40
0
 40
0
 40
1
 40
1
 40
1
 40
1
 10
19.023979
 20
101.558966
 30
0.0
 10
19.422934
 20
101.957921
 30
0.0
 10
19.964033
 20
102.182051
 30
0.0
 10
20.528240
 20
102.182051
 30
0.0
  0
LINE
  5
134
100
AcDbEntity
  8
0
 62
7
100
AcDbLine
 10
20.528240
 20
102.182051
 30
0.0
 11
109.989445
 21
102.182051
 31
0.0
  0
SPLINE
  5
135
100
AcDbEntity
  8
0
 62
7
100
AcDbSpline
 70
8
 71
3
 72
8
 73
4
 74
0
 40
0
 40
0
 40
0
 40
0
 40
1
 40
1
 40
1
 40
1
 10
144.882427
 20
92.017141
 30
0.0
 10
144.882427
 20
94.961694
 30
0.0
 10
143.311527
 20
97.682573
 30
0.0
 10
140.761469
 20
99.154850
 30
0.0
  0
SPLINE
  5
136
100
AcDbEntity
  8
0
 62
7
100
AcDbSpline
 70
8
 71
3
 72
8
 73
4
 74
0
 40
0
 40
0
 40
0
 40
0
 40
1
 40
1
 40
1
 40
1
 10
140.761469
 20
99.154850
 30
0.0
 10
138.211411
 20
100.627126
 30
0.0
 10
135.069611
 20
100.627126
 30
0.0
 10
132.519553
 20
99.154850
 30
0.0
  0
SPLINE
  5
137
100
AcDbEntity
  8
0
 62
7
100
AcDbSpline
 70
8
 71
3
 72
8
 73
4
 74
0
 40
0
 40
0
 40
0
 40
0
 40
1
 40
1
 40
1
 40
1
 10
132.519553
 20
99.154850
 30
0.0
 10
129.969495
 20
97.682573
 30
0.0
 10
128.398595
 20
94.961694
 30
0.0
 10
128.398595
 20
92.017141
 30
0.0
  0
SPLINE
  5
138
100
AcDbEntity
  8
0
 62
7
100
AcDbSpline
 70
8
 71
3
 72
8
 73
4
 74
0
 40
0
 40
0
 40
0
 40
0
 40
1
 40
1
 40
1
 40
1
 10
128.398595
 20
92.017141
 30
0.0
 10
128.398595
 20
89.072588
 30
0.0
 10
129.969495
 20
86.351708
 30
0.0
 10
132.519553
 20
84.879432
 30
0.0
  0
SPLINE
  5
139
100
AcDbEntity
  8
0
 62
7
100
AcDbSpline
 70
8
 71
3
 72
8
 73
4
 74
0
 40
0
 40
0
 40
0
 40
0
 40
1
 40
1
 40
1
 40
1
 10
132.519553
 20
84.879432
 30
0.0
 10
135.069611
 20
83.407155
 30
0.0
 10
138.211411
 20
83.407155
 30
0.0
 10
140.761469
 20
84.879432
 30
0.0
  0
SPLINE
  5
13a
100
AcDbEntity
  8
0
 62
7
100
AcDbSpline
 70
8
 71
3
 72
8
 73
4
 74
0
 40
0
 40
0
 40
0
 40
0
 40
1
 40
1
 40
1
 40
1
 10
140.761469
 20
84.879432
 30
0.0
 10
143.311527
 20
86.351708
 30
0.0
 10
144.882427
 20
89.072588
 30
0.0
 10
144.882427
 20
92.017141
 30
0.0
  0
LINE
  5
13b
100
AcDbEntity
  8
0
 62
7
100
AcDbLine
 10
144.882427
 20
92.017141
 30
0.0
 11
144.882427
 21
92.017141
 31
0.0
  0
SPLINE
  5
13c
100
AcDbEntity
  8
0
 62
7
100
AcDbSpline
 70
8
 71
3
 72
8
 73
4
 74
0
 40
0
 40
0
 40
0
 40
0
 40
1
 40
1
 40
1
 40
1
 10
166.492199
 20
92.017141
 30
0.0
 10
166.492199
 20
94.961694
 30
0.0
 10
164.921299
 20
97.682573
 30
0.0
 10
162.371241
 20
99.154850
 30
0.0
  0
SPLINE
  5
13d
100
AcDbEntity
  8
0
 62
7
100
AcDbSpline
 70
8
 71
3
 72
8
 73
4
 74
0
 40
0
 40
0
 40
0
 40
0
 40
1
 40
1
 40
1
 40
1
 10
162.371241
 20
99.154850
 30
0.0
 10
159.821183
 20
100.627126
 30
0.0
 10
156.679383
 20
100.627126
 30
0.0
 10
154.129325
 20
99.154850
 30
0.0
  0
SPLINE
  5
13e
100
AcDbEntity
  8
0
 62
7
100
AcDbSpline
 70
8
 71
3
 72
8
 73
4
 74
0
 40
0
 40
0
 40
0
 40
0
 40
1
 40
1
 40
1
 40
1
 10
154.129325
 20
99.154850
 30
0.0
 10
151.579267
 20
97.682573
 30
0.0
 10
150.008367
 20
94.961694
 30
0.0
 10
150.008367
 20
92.017141
 30
0.0
  0
SPLINE
  5
13f
100
AcDbEntity
  8
0
 62
7
100
AcDbSpline
 70
8
 71
3
 72
8
 73
4
 74
0
 40
0
 40
0
 40
0
 40
0
 40
1
 40
1
 40
1
 40
1
 10
150.008367
 20
92.017141
 30
0.0
 10
150.008367
 20
89.072588
 30
0.0
 10
151.579267
 20
86.351708
 30
0.0
 10
154.129325
 20
84.879432
 30
0.0
  0
SPLINE
  5
140
100
AcDbEntity
  8
0
 62
7
100
AcDbSpline
 70
8
 71
3
 72
8
 73
4
 74
0
 40
0
 40
0
 40
0
 40
0
 40
1
 40
1
 40
1
 40
1
 10
154.129325
 20
84.879432
 30
0.0
 10
156.679383
 20
83.407155
 30
0.0
 10
159.821183
 20
83.407155
 30
0.0
 10
162.371241
 20
84.879432
 30
0.0
  0
SPLINE
  5
141
100
AcDbEntity
  8
0
 62
7
100
AcDbSpline
 70
8
 71
3
 72
8
 73
4
 74
0
 40
0
 40
0
 40
0
 40
0
 40
1
 40
1
 40
1
 40
1
 10
162.371241
 20
84.879432
 30
0.0
 10
164.921299
 20
86.351708
 30
0.0
 10
166.492199
 20
89.072588
 30
0.0
 10
166.492199
 20
92.017141
 30
0.0
  0
LINE
  5
142
100
AcDbEntity
  8
0
 62
7
100
AcDbLine
 10
166.492199
 20
92.017141
 30
0.0
 11
166.492199
 21
92.017141
 31
0.0
  0
SPLINE
  5
143
100
AcDbEntity
  8
0
 62
7
100
AcDbSpline
 70
8
 71
3
 72
8
 73
4
 74
0
 40
0
 40
0
 40
0
 40
0
 40
1
 40
1
 40
1
 40
1
 10
144.882427
 20
25.837214
 30
0.0
 10
144.882427
 20
28.781767
 30
0.0
 10
143.311527
 20
31.502646
 30
0.0
 10
140.761469
 20
32.974923
 30
0.0
  0
SPLINE
  5
144
100
AcDbEntity
  8
0
 62
7
100
AcDbSpline
 70
8
 71
3
 72
8
 73
4
 74
0
 40
0
 40
0
 40
0
 40
0
 40
1
 40
1
 40
1
 40
1
 10
140.761469
 20
32.974923
 30
0.0
 10
138.211411
 20
34.447199
 30
0.0
 10
135.069611
 20
34.447199
 30
0.0
 10
132.519553
 20
32.974923
 30
0.0
  0
SPLINE
  5
145
100
AcDbEntity
  8
0
 62
7
100
AcDbSpline
 70
8
 71
3
 72
8
 73
4
 74
0
 40
0
 40
0
 40
0
 40
0
 40
1
 40
1
 40
1
 40
1
 10
132.519553
 20
32.974923
 30
0.0
 10
129.969495
 20
31.502646
 30
0.0
 10
128.398595
 20
28.781767
 30
0.0
 10
128.398595
 20
25.837214
 30
0.0
  0
SPLINE
  5
146
100
AcDbEntity
  8
0
 62
7
100
AcDbSpline
 70
8
 71
3
 72
8
 73
4
 74
0
 40
0
 40
0
 40
0
 40
0
 40
1
 40
1
 40
1
 40
1
 10
128.398595
 20
25.837214
 30
0.0
 10
128.398595
 20
22.892661
 30
0.0
 10
129.969495
 20
20.171781
 30
0.0
 10
132.519553
 20
18.699505
 30
0.0
  0
SPLINE
  5
147
100
AcDbEntity
  8
0
 62
7
100
AcDbSpline
 70
8
 71
3
 72
8
 73
4
 74
0
 40
0
 40
0
 40
0
 40
0
 40
1
 40
1
 40
1
 40
1
 10
132.519553
 20
18.699505
 30
0.0
 10
135.069611
 20
17.227228
 30
0.0
 10
138.211411
 20
17.227228
 30
0.0
 10
140.761469
 20
18.699505
 30
0.0
  0
SPLINE
  5
148
100
AcDbEntity
  8
0
 62
7
100
AcDbSpline
 70
8
 71
3
 72
8
 73
4
 74
0
 40
0
 40
0
 40
0
 40
0
 40
1
 40
1
 40
1
 40
1
 10
140.761469
 20
18.699505
 30
0.0
 10
143.311527
 20
20.171781
 30
0.0
 10
144.882427
 20
22.892661
 30
0.0
 10
144.882427
 20
25.837214
 30
0.0
  0
LINE
  5
149
100
AcDbEntity
  8
0
 62
7
100
AcDbLine
 10
144.882427
 20
25.837214
 30
0.0
 11
144.882427
 21
25.837214
 31
0.0
  0
SPLINE
  5
14a
100
AcDbEntity
  8
0
 62
7
100
AcDbSpline
 70
8
 71
3
 72
8
 73
4
 74
0
 40
0
 40
0
 40
0
 40
0
 40
1
 40
1
 40
1
 40
1
 10
128.265661
 20
20.105109
 30
0.0
 10
128.265890
 20
20.627683
 30
0.0
 10
127.987232
 20
21.110658
 30
0.0
 10
127.534708
 20
21.372011
 30
0.0
  0
SPLINE
  5
14b
100
AcDbEntity
  8
0
 62
7
100
AcDbSpline
 70
8
 71
3
 72
8
 73
4
 74
0
 40
0
 40
0
 40
0
 40
0
 40
1
 40
1
 40
1
 40
1
 10
127.534708
 20
21.372011
 30
0.0
 10
127.082185
 20
21.633364
 30
0.0
 10
126.524586
 20
21.633364
 30
0.0
 10
126.072062
 20
21.372011
 30
0.0
  0
SPLINE
  5
14c
100
AcDbEntity
  8
0
 62
7
100
AcDbSpline
 70
8
 71
3
 72
8
 73
4
 74
0
 40
0
 40
0
 40
0
 40
0
 40
1
 40
1
 40
1
 40
1
 10
126.072062
 20
21.372011
 30
0.0
 10
125.619539
 20
21.110658
 30
0.0
 10
125.340881
 20
20.627683
 30
0.0
 10
125.341110
 20
20.105109
 30
0.0
  0
SPLINE
  5
14d
100
AcDbEntity
  8
0
 62
7
100
AcDbSpline
 70
8
 71
3
 72
8
 73
4
 74
0
 40
0
 40
0
 40
0
 40
0
 40
1
 40
1
 40
1
 40
1
 10
125.341110
 20
20.105109
 30
0.0
 10
125.340881
 20
19.582536
 30
0.0
 10
125.619539
 20
19.099560
 30
0.0
 10
126.072062
 20
18.838207
 30
0.0
  0
SPLINE
  5
14e
100
AcDbEntity
  8
0
 62
7
100
AcDbSpline
 70
8
 71
3
 72
8
 73
4
 74
0
 40
0
 40
0
 40
0
 40
0
 40
1
 40
1
 40
1
 40
1
 10
126.072062
 20
18.838207
 30
0.0
 10
126.524586
 20
18.576854
 30
0.0
 10
127.082185
 20
18.576854
 30
0.0
 10
127.534708
 20
18.838207
 30
0.0
  0
SPLINE
  5
14f
100
AcDbEntity
  8
0
 62
7
100
AcDbSpline
 70
8
 71
3
 72
8
 73
4
 74
0
 40
0
 40
0
 40
0
 40
0
 40
1
 40
1
 40
1
 40
1
 10
127.534708
 20
18.838207
 30
0.0
 10
127.987232
 20
19.099560
 30
0.0
 10
128.265890
 20
19.582536
 30
0.0
 10
128.265661
 20
20.105109
 30
0.0
  0
LINE
  5
150
100
AcDbEntity
  8
0
 62
7
100
AcDbLine
 10
128.265661
 20
20.105109
 30
0.0
 11
128.265661
 21
20.105109
 31
0.0
  0
SPLINE
  5
151
100
AcDbEntity
  8
0
 62
7
100
AcDbSpline
 70
8
 71
3
 72
8
 73
4
 74
0
 40
0
 40
0
 40
0
 40
0
 40
1
 40
1
 40
1
 40
1
 10
128.283739
 20
97.757771
 30
0.0
 10
128.283739
 20
98.289690
 30
0.0
 10
127.999964
 20
98.781204
 30
0.0
 10
127.539308
 20
99.047164
 30
0.0
  0
SPLINE
  5
152
100
AcDbEntity
  8
0
 62
7
100
AcDbSpline
 70
8
 71
3
 72
8
 73
4
 74
0
 40
0
 40
0
 40
0
 40
0
 40
1
 40
1
 40
1
 40
1
 10
127.539308
 20
99.047164
 30
0.0
 10
127.078652
 20
99.313124
 30
0.0
 10
126.511101
 20
99.313124
 30
0.0
 10
126.050445
 20
99.047164
 30
0.0
  0
SPLINE
  5
153
100
AcDbEntity
  8
0
 62
7
100
AcDbSpline
 70
8
 71
3
 72
8
 73
4
 74
0
 40
0
 40
0
 40
0
 40
0
 40
1
 40
1
 40
1
 40
1
 10
126.050445
 20
99.047164
 30
0.0
 10
125.589789
 20
98.781204
 30
0.0
 10
125.306014
 20
98.289690
 30
0.0
 10
125.306014
 20
97.757771
 30
0.0
  0
SPLINE
  5
154
100
AcDbEntity
  8
0
 62
7
100
AcDbSpline
 70
8
 71
3
 72
8
 73
4
 74
0
 40
0
 40
0
 40
0
 40
0
 40
1
 40
1
 40
1
 40
1
 10
125.306014
 20
97.757771
 30
0.0
 10
125.306014
 20
97.225852
 30
0.0
 10
125.589789
 20
96.734338
 30
0.0
 10
126.050445
 20
96.468378
 30
0.0
  0
SPLINE
  5
155
100
AcDbEntity
  8
0
 62
7
100
AcDbSpline
 70
8
 71
3
 72
8
 73
4
 74
0
 40
0
 40
0
 40
0
 40
0
 40
1
 40
1
 40
1
 40
1
 10
126.050445
 20
96.468378
 30
0.0
 10
126.511101
 20
96.202418
 30
0.0
 10
127.078652
 20
96.202418
 30
0.0
 10
127.539308
 20
96.468378
 30
0.0
  0
SPLINE
  5
156
100
AcDbEntity
  8
0
 62
7
100
AcDbSpline
 70
8
 71
3
 72
8
 73
4
 74
0
 40
0
 40
0
 40
0
 40
0
 40
1
 40
1
 40
1
 40
1
 10
127.539308
 20
96.468378
 30
0.0
 10
127.999964
 20
96.734338
 30
0.0
 10
128.283739
 20
97.225852
 30
0.0
 10
128.283739
 20
97.757771
 30
0.0
  0
LINE
  5
157
100
AcDbEntity
  8
0
 62
7
100
AcDbLine
 10
128.283739
 20
97.757771
 30
0.0
 11
128.283739
 21
97.757771
 31
0.0
  0
SPLINE
  5
158
100
AcDbEntity
  8
0
 62
7
100
AcDbSpline
 70
8
 71
3
 72
8
 73
4
 74
0
 40
0
 40
0
 40
0
 40
0
 40
1
 40
1
 40
1
 40
1
 10
191.037156
 20
92.017141
 30
0.0
 10
191.037950
 20
94.107353
 30
0.0
 10
189.923291
 20
96.039128
 30
0.0
 10
188.113247
 20
97.084463
 30
0.0
  0
SPLINE
  5
159
100
AcDbEntity
  8
0
 62
7
100
AcDbSpline
 70
8
 71
3
 72
8
 73
4
 74
0
 40
0
 40
0
 40
0
 40
0
 40
1
 40
1
 40
1
 40
1
 10
188.113247
 20
97.084463
 30
0.0
 10
186.303202
 20
98.129798
 30
0.0
 10
184.072906
 20
98.129798
 30
0.0
 10
182.262862
 20
97.084463
 30
0.0
  0
SPLINE
  5
15a
100
AcDbEntity
  8
0
 62
7
100
AcDbSpline
 70
8
 71
3
 72
8
 73
4
 74
0
 40
0
 40
0
 40
0
 40
0
 40
1
 40
1
 40
1
 40
1
 10
182.262862
 20
97.084463
 30
0.0
 10
180.452818
 20
96.039128
 30
0.0
 10
179.338159
 20
94.107353
 30
0.0
 10
179.338953
 20
92.017141
 30
0.0
  0
SPLINE
  5
15b
100
AcDbEntity
  8
0
 62
7
100
AcDbSpline
 70
8
 71
3
 72
8
 73
4
 74
0
 40
0
 40
0
 40
0
 40
0
 40
1
 40
1
 40
1
 40
1
 10
179.338953
 20
92.017141
 30
0.0
 10
179.338159
 20
89.926929
 30
0.0
 10
180.452818
 20
87.995153
 30
0.0
 10
182.262862
 20
86.949818
 30
0.0
  0
SPLINE
  5
15c
100
AcDbEntity
  8
0
 62
7
100
AcDbSpline
 70
8
 71
3
 72
8
 73
4
 74
0
 40
0
 40
0
 40
0
 40
0
 40
1
 40
1
 40
1
 40
1
 10
182.262862
 20
86.949818
 30
0.0
 10
184.072906
 20
85.904483
 30
0.0
 10
186.303202
 20
85.904483
 30
0.0
 10
188.113247
 20
86.949818
 30
0.0
  0
SPLINE
  5
15d
100
AcDbEntity
  8
0
 62
7
100
AcDbSpline
 70
8
 71
3
 72
8
 73
4
 74
0
 40
0
 40
0
 40
0
 40
0
 40
1
 40
1
 40
1
 40
1
 10
188.113247
 20
86.949818
 30
0.0
 10
189.923291
 20
87.995153
 30
0.0
 10
191.037950
 20
89.926929
 30
0.0
 10
191.037156
 20
92.017141
 30
0.0
  0
LINE
  5
15e
100
AcDbEntity
  8
0
 62
7
100
AcDbLine
 10
191.037156
 20
92.017141
 30
0.0
 11
191.037156
 21
92.017141
 31
0.0
  0
SPLINE
  5
15f
100
AcDbEntity
  8
0
 62
7
100
AcDbSpline
 70
8
 71
3
 72
8
 73
4
 74
0
 40
0
 40
0
 40
0
 40
0
 40
1
 40
1
 40
1
 40
1
 10
211.347364
 20
97.757771
 30
0.0
 10
211.347595
 20
98.289844
 30
0.0
 10
211.063870
 20
98.781599
 30
0.0
 10
210.603119
 20
99.047703
 30
0.0
  0
SPLINE
  5
160
100
AcDbEntity
  8
0
 62
7
100
AcDbSpline
 70
8
 71
3
 72
8
 73
4
 74
0
 40
0
 40
0
 40
0
 40
0
 40
1
 40
1
 40
1
 40
1
 10
210.603119
 20
99.047703
 30
0.0
 10
210.142369
 20
99.313806
 30
0.0
 10
209.574634
 20
99.313806
 30
0.0
 10
209.113883
 20
99.047703
 30
0.0
  0
SPLINE
  5
161
100
AcDbEntity
  8
0
 62
7
100
AcDbSpline
 70
8
 71
3
 72
8
 73
4
 74
0
 40
0
 40
0
 40
0
 40
0
 40
1
 40
1
 40
1
 40
1
 10
209.113883
 20
99.047703
 30
0.0
 10
208.653133
 20
98.781599
 30
0.0
 10
208.369408
 20
98.289844
 30
0.0
 10
208.369639
 20
97.757771
 30
0.0
  0
SPLINE
  5
162
100
AcDbEntity
  8
0
 62
7
100
AcDbSpline
 70
8
 71
3
 72
8
 73
4
 74
0
 40
0
 40
0
 40
0
 40
0
 40
1
 40
1
 40
1
 40
1
 10
208.369639
 20
97.757771
 30
0.0
 10
208.369408
 20
97.225698
 30
0.0
 10
208.653133
 20
96.733942
 30
0.0
 10
209.113883
 20
96.467839
 30
0.0
  0
SPLINE
  5
163
100
AcDbEntity
  8
0
 62
7
100
AcDbSpline
 70
8
 71
3
 72
8
 73
4
 74
0
 40
0
 40
0
 40
0
 40
0
 40
1
 40
1
 40
1
 40
1
 10
209.113883
 20
96.467839
 30
0.0
 10
209.574634
 20
96.201735
 30
0.0
 10
210.142369
 20
96.201735
 30
0.0
 10
210.603119
 20
96.467839
 30
0.0
  0
SPLINE
  5
164
100
AcDbEntity
  8
0
 62
7
100
AcDbSpline
 70
8
 71
3
 72
8
 73
4
 74
0
 40
0
 40
0
 40
0
 40
0
 40
1
 40
1
 40
1
 40
1
 10
210.603119
 20
96.467839
 30
0.0
 10
211.063870
 20
96.733942
 30
0.0
 10
211.347595
 20
97.225698
 30
0.0
 10
211.347364
 20
97.757771
 30
0.0
  0
LINE
  5
165
100
AcDbEntity
  8
0
 62
7
100
AcDbLine
 10
211.347364
 20
97.757771
 30
0.0
 11
211.347364
 21
97.757771
 31
0.0
  0
SPLINE
  5
166
100
AcDbEntity
  8
0
 62
7
100
AcDbSpline
 70
8
 71
3
 72
8
 73
4
 74
0
 40
0
 40
0
 40
0
 40
0
 40
1
 40
1
 40
1
 40
1
 10
207.244485
 20
92.017141
 30
0.0
 10
207.244943
 20
94.107129
 30
0.0
 10
206.130211
 20
96.038554
 30
0.0
 10
204.320304
 20
97.083680
 30
0.0
  0
SPLINE
  5
167
100
AcDbEntity
  8
0
 62
7
100
AcDbSpline
 70
8
 71
3
 72
8
 73
4
 74
0
 40
0
 40
0
 40
0
 40
0
 40
1
 40
1
 40
1
 40
1
 10
204.320304
 20
97.083680
 30
0.0
 10
202.510398
 20
98.128807
 30
0.0
 10
200.280368
 20
98.128807
 30
0.0
 10
198.470462
 20
97.083680
 30
0.0
  0
SPLINE
  5
168
100
AcDbEntity
  8
0
 62
7
100
AcDbSpline
 70
8
 71
3
 72
8
 73
4
 74
0
 40
0
 40
0
 40
0
 40
0
 40
1
 40
1
 40
1
 40
1
 10
198.470462
 20
97.083680
 30
0.0
 10
196.660555
 20
96.038554
 30
0.0
 10
195.545823
 20
94.107129
 30
0.0
 10
195.546281
 20
92.017141
 30
0.0
  0
SPLINE
  5
169
100
AcDbEntity
  8
0
 62
7
100
AcDbSpline
 70
8
 71
3
 72
8
 73
4
 74
0
 40
0
 40
0
 40
0
 40
0
 40
1
 40
1
 40
1
 40
1
 10
195.546281
 20
92.017141
 30
0.0
 10
195.545823
 20
89.927152
 30
0.0
 10
196.660555
 20
87.995727
 30
0.0
 10
198.470462
 20
86.950601
 30
0.0
  0
SPLINE
  5
16a
100
AcDbEntity
  8
0
 62
7
100
AcDbSpline
 70
8
 71
3
 72
8
 73
4
 74
0
 40
0
 40
0
 40
0
 40
0
 40
1
 40
1
 40
1
 40
1
 10
198.470462
 20
86.950601
 30
0.0
 10
200.280368
 20
85.905474
 30
0.0
 10
202.510398
 20
85.905474
 30
0.0
 10
204.320304
 20
86.950601
 30
0.0
  0
SPLINE
  5
16b
100
AcDbEntity
  8
0
 62
7
100
AcDbSpline
 70
8
 71
3
 72
8
 73
4
 74
0
 40
0
 40
0
 40
0
 40
0
 40
1
 40
1
 40
1
 40
1
 10
204.320304
 20
86.950601
 30
0.0
 10
206.130211
 20
87.995727
 30
0.0
 10
207.244943
 20
89.927152
 30
0.0
 10
207.244485
 20
92.017141
 30
0.0
  0
LINE
  5
16c
100
AcDbEntity
  8
0
 62
7
100
AcDbLine
 10
207.244485
 20
92.017141
 30
0.0
 11
207.244485
 21
92.017141
 31
0.0
  0
SPLINE
  5
16d
100
AcDbEntity
  8
0
 62
7
100
AcDbSpline
 70
8
 71
3
 72
8
 73
4
 74
0
 40
0
 40
0
 40
0
 40
0
 40
1
 40
1
 40
1
 40
1
 10
158.622497
 20
25.837214
 30
0.0
 10
158.623414
 20
27.927507
 30
0.0
 10
157.508782
 20
29.859411
 30
0.0
 10
155.698688
 20
30.904823
 30
0.0
  0
SPLINE
  5
16e
100
AcDbEntity
  8
0
 62
7
100
AcDbSpline
 70
8
 71
3
 72
8
 73
4
 74
0
 40
0
 40
0
 40
0
 40
0
 40
1
 40
1
 40
1
 40
1
 10
155.698688
 20
30.904823
 30
0.0
 10
153.888593
 20
31.950234
 30
0.0
 10
151.658199
 20
31.950234
 30
0.0
 10
149.848104
 20
30.904823
 30
0.0
  0
SPLINE
  5
16f
100
AcDbEntity
  8
0
 62
7
100
AcDbSpline
 70
8
 71
3
 72
8
 73
4
 74
0
 40
0
 40
0
 40
0
 40
0
 40
1
 40
1
 40
1
 40
1
 10
149.848104
 20
30.904823
 30
0.0
 10
148.038010
 20
29.859411
 30
0.0
 10
146.923378
 20
27.927507
 30
0.0
 10
146.924295
 20
25.837214
 30
0.0
  0
SPLINE
  5
170
100
AcDbEntity
  8
0
 62
7
100
AcDbSpline
 70
8
 71
3
 72
8
 73
4
 74
0
 40
0
 40
0
 40
0
 40
0
 40
1
 40
1
 40
1
 40
1
 10
146.924295
 20
25.837214
 30
0.0
 10
146.923378
 20
23.746920
 30
0.0
 10
148.038010
 20
21.815017
 30
0.0
 10
149.848104
 20
20.769605
 30
0.0
  0
SPLINE
  5
171
100
AcDbEntity
  8
0
 62
7
100
AcDbSpline
 70
8
 71
3
 72
8
 73
4
 74
0
 40
0
 40
0
 40
0
 40
0
 40
1
 40
1
 40
1
 40
1
 10
149.848104
 20
20.769605
 30
0.0
 10
151.658199
 20
19.724193
 30
0.0
 10
153.888593
 20
19.724193
 30
0.0
 10
155.698688
 20
20.769605
 30
0.0
  0
SPLINE
  5
172
100
AcDbEntity
  8
0
 62
7
100
AcDbSpline
 70
8
 71
3
 72
8
 73
4
 74
0
 40
0
 40
0
 40
0
 40
0
 40
1
 40
1
 40
1
 40
1
 10
155.698688
 20
20.769605
 30
0.0
 10
157.508782
 20
21.815017
 30
0.0
 10
158.623414
 20
23.746920
 30
0.0
 10
158.622497
 20
25.837214
 30
0.0
  0
LINE
  5
173
100
AcDbEntity
  8
0
 62
7
100
AcDbLine
 10
158.622497
 20
25.837214
 30
0.0
 11
158.622497
 21
25.837214
 31
0.0
  0
SPLINE
  5
174
100
AcDbEntity
  8
0
 62
7
100
AcDbSpline
 70
8
 71
3
 72
8
 73
4
 74
0
 40
0
 40
0
 40
0
 40
0
 40
1
 40
1
 40
1
 40
1
 10
189.947096
 20
20.105109
 30
0.0
 10
189.947096
 20
20.627530
 30
0.0
 10
189.668388
 20
21.110266
 30
0.0
 10
189.215958
 20
21.371477
 30
0.0
  0
SPLINE
  5
175
100
AcDbEntity
  8
0
 62
7
100
AcDbSpline
 70
8
 71
3
 72
8
 73
4
 74
0
 40
0
 40
0
 40
0
 40
0
 40
1
 40
1
 40
1
 40
1
 10
189.215958
 20
21.371477
 30
0.0
 10
188.763528
 20
21.632687
 30
0.0
 10
188.206112
 20
21.632687
 30
0.0
 10
187.753683
 20
21.371477
 30
0.0
  0
SPLINE
  5
176
100
AcDbEntity
  8
0
 62
7
100
AcDbSpline
 70
8
 71
3
 72
8
 73
4
 74
0
 40
0
 40
0
 40
0
 40
0
 40
1
 40
1
 40
1
 40
1
 10
187.753683
 20
21.371477
 30
0.0
 10
187.301253
 20
21.110266
 30
0.0
 10
187.022545
 20
20.627530
 30
0.0
 10
187.022545
 20
20.105109
 30
0.0
  0
SPLINE
  5
177
100
AcDbEntity
  8
0
 62
7
100
AcDbSpline
 70
8
 71
3
 72
8
 73
4
 74
0
 40
0
 40
0
 40
0
 40
0
 40
1
 40
1
 40
1
 40
1
 10
187.022545
 20
20.105109
 30
0.0
 10
187.022545
 20
19.582688
 30
0.0
 10
187.301253
 20
19.099952
 30
0.0
 10
187.753683
 20
18.838741
 30
0.0
  0
SPLINE
  5
178
100
AcDbEntity
  8
0
 62
7
100
AcDbSpline
 70
8
 71
3
 72
8
 73
4
 74
0
 40
0
 40
0
 40
0
 40
0
 40
1
 40
1
 40
1
 40
1
 10
187.753683
 20
18.838741
 30
0.0
 10
188.206112
 20
18.577531
 30
0.0
 10
188.763528
 20
18.577531
 30
0.0
 10
189.215958
 20
18.838741
 30
0.0
  0
SPLINE
  5
179
100
AcDbEntity
  8
0
 62
7
100
AcDbSpline
 70
8
 71
3
 72
8
 73
4
 74
0
 40
0
 40
0
 40
0
 40
0
 40
1
 40
1
 40
1
 40
1
 10
189.215958
 20
18.838741
 30
0.0
 10
189.668388
 20
19.099952
 30
0.0
 10
189.947096
 20
19.582688
 30
0.0
 10
189.947096
 20
20.105109
 30
0.0
  0
LINE
  5
17a
100
AcDbEntity
  8
0
 62
7
100
AcDbLine
 10
189.947096
 20
20.105109
 30
0.0
 11
189.947096
 21
20.105109
 31
0.0
  0
SPLINE
  5
17b
100
AcDbEntity
  8
0
 62
7
100
AcDbSpline
 70
8
 71
3
 72
8
 73
4
 74
0
 40
0
 40
0
 40
0
 40
0
 40
1
 40
1
 40
1
 40
1
 10
123.604458
 20
14.787726
 30
0.0
 10
123.040355
 20
14.787726
 30
0.0
 10
122.499355
 20
15.011816
 30
0.0
 10
122.100475
 20
15.410698
 30
0.0
  0
SPLINE
  5
17c
100
AcDbEntity
  8
0
 62
7
100
AcDbSpline
 70
8
 71
3
 72
8
 73
4
 74
0
 40
0
 40
0
 40
0
 40
0
 40
1
 40
1
 40
1
 40
1
 10
122.100475
 20
15.410698
 30
0.0
 10
121.701594
 20
15.809581
 30
0.0
 10
121.477507
 20
16.350582
 30
0.0
 10
121.477511
 20
16.914685
 30
0.0
  0
SPLINE
  5
17d
100
AcDbEntity
  8
0
 62
7
100
AcDbSpline
 70
8
 71
3
 72
8
 73
4
 74
0
 40
0
 40
0
 40
0
 40
0
 40
1
 40
1
 40
1
 40
1
 10
121.477511
 20
16.914685
 30
0.0
 10
121.477511
 20
16.914685
 30
0.0
 10
121.477511
 20
100.948195
 30
0.0
 10
121.477511
 20
100.948195
 30
0.0
  0
SPLINE
  5
17e
100
AcDbEntity
  8
0
 62
7
100
AcDbSpline
 70
8
 71
3
 72
8
 73
4
 74
0
 40
0
 40
0
 40
0
 40
0
 40
1
 40
1
 40
1
 40
1
 10
121.477511
 20
100.948195
 30
0.0
 10
121.477519
 20
102.122869
 30
0.0
 10
122.429784
 20
103.075126
 30
0.0
 10
123.604458
 20
103.075126
 30
0.0
  0
SPLINE
  5
17f
100
AcDbEntity
  8
0
 62
7
100
AcDbSpline
 70
8
 71
3
 72
8
 73
4
 74
0
 40
0
 40
0
 40
0
 40
0
 40
1
 40
1
 40
1
 40
1
 10
123.604458
 20
103.075126
 30
0.0
 10
123.604458
 20
103.075126
 30
0.0
 10
213.048920
 20
103.075126
 30
0.0
 10
213.048920
 20
103.075126
 30
0.0
  0
SPLINE
  5
180
100
AcDbEntity
  8
0
 62
7
100
AcDbSpline
 70
8
 71
3
 72
8
 73
4
 74
0
 40
0
 40
0
 40
0
 40
0
 40
1
 40
1
 40
1
 40
1
 10
213.048920
 20
103.075126
 30
0.0
 10
214.223594
 20
103.075126
 30
0.0
 10
215.175858
 20
102.122869
 30
0.0
 10
215.175867
 20
100.948195
 30
0.0
  0
SPLINE
  5
181
100
AcDbEntity
  8
0
 62
7
100
AcDbSpline
 70
8
 71
3
 72
8
 73
4
 74
0
 40
0
 40
0
 40
0
 40
0
 40
1
 40
1
 40
1
 40
1
 10
215.175867
 20
100.948195
 30
0.0
 10
215.175867
 20
100.948195
 30
0.0
 10
215.175867
 20
16.914685
 30
0.0
 10
215.175867
 20
16.914685
 30
0.0
  0
SPLINE
  5
182
100
AcDbEntity
  8
0
 62
7
100
AcDbSpline
 70
8
 71
3
 72
8
 73
4
 74
0
 40
0
 40
0
 40
0
 40
0
 40
1
 40
1
 40
1
 40
1
 10
215.175867
 20
16.914685
 30
0.0
 10
215.175870
 20
16.350582
 30
0.0
 10
214.951783
 20
15.809581
 30
0.0
 10
214.552903
 20
15.410699
 30
0.0
  0
SPLINE
  5
183
100
AcDbEntity
  8
0
 62
7
100
AcDbSpline
 70
8
 71
3
 72
8
 73
4
 74
0
 40
0
 40
0
 40
0
 40
0
 40
1
 40
1
 40
1
 40
1
 10
214.552903
 20
15.410699
 30
0.0
 10
214.154023
 20
15.011816
 30
0.0
 10
213.613024
 20
14.787726
 30
0.0
 10
213.048920
 20
14.787726
 30
0.0
  0
LINE
  5
184
100
AcDbEntity
  8
0
 62
7
100
AcDbLine
 10
213.048920
 20
14.787726
 30
0.0
 11
123.604458
 21
14.787726
 31
0.0
  0
SPLINE
  5
185
100
AcDbEntity
  8
0
 62
7
100
AcDbSpline
 70
8
 71
3
 72
8
 73
4
 74
0
 40
0
 40
0
 40
0
 40
0
 40
1
 40
1
 40
1
 40
1
 10
25.647367
 20
111.218143
 30
0.0
 10
25.647367
 20
111.670557
 30
0.0
 10
25.406007
 20
112.088604
 30
0.0
 10
25.014205
 20
112.314811
 30
0.0
  0
SPLINE
  5
186
100
AcDbEntity
  8
0
 62
7
100
AcDbSpline
 70
8
 71
3
 72
8
 73
4
 74
0
 40
0
 40
0
 40
0
 40
0
 40
1
 40
1
 40
1
 40
1
 10
25.014205
 20
112.314811
 30
0.0
 10
24.622403
 20
112.541018
 30
0.0
 10
24.139683
 20
112.541018
 30
0.0
 10
23.747881
 20
112.314811
 30
0.0
  0
SPLINE
  5
187
100
AcDbEntity
  8
0
 62
7
100
AcDbSpline
 70
8
 71
3
 72
8
 73
4
 74
0
 40
0
 40
0
 40
0
 40
0
 40
1
 40
1
 40
1
 40
1
 10
23.747881
 20
112.314811
 30
0.0
 10
23.356079
 20
112.088604
 30
0.0
 10
23.114719
 20
111.670557
 30
0.0
 10
23.114719
 20
111.218143
 30
0.0
  0
SPLINE
  5
188
100
AcDbEntity
  8
0
 62
7
100
AcDbSpline
 70
8
 71
3
 72
8
 73
4
 74
0
 40
0
 40
0
 40
0
 40
0
 40
1
 40
1
 40
1
 40
1
 10
23.114719
 20
111.218143
 30
0.0
 10
23.114719
 20
110.765729
 30
0.0
 10
23.356079
 20
110.347681
 30
0.0
 10
23.747881
 20
110.121474
 30
0.0
  0
SPLINE
  5
189
100
AcDbEntity
  8
0
 62
7
100
AcDbSpline
 70
8
 71
3
 72
8
 73
4
 74
0
 40
0
 40
0
 40
0
 40
0
 40
1
 40
1
 40
1
 40
1
 10
23.747881
 20
110.121474
 30
0.0
 10
24.139683
 20
109.895267
 30
0.0
 10
24.622403
 20
109.895267
 30
0.0
 10
25.014205
 20
110.121474
 30
0.0
  0
SPLINE
  5
18a
100
AcDbEntity
  8
0
 62
7
100
AcDbSpline
 70
8
 71
3
 72
8
 73
4
 74
0
 40
0
 40
0
 40
0
 40
0
 40
1
 40
1
 40
1
 40
1
 10
25.014205
 20
110.121474
 30
0.0
 10
25.406007
 20
110.347681
 30
0.0
 10
25.647367
 20
110.765729
 30
0.0
 10
25.647367
 20
111.218143
 30
0.0
  0
LINE
  5
18b
100
AcDbEntity
  8
0
 62
7
100
AcDbLine
 10
25.647367
 20
111.218143
 30
0.0
 11
25.647367
 21
111.218143
 31
0.0
  0
SPLINE
  5
18c
100
AcDbEntity
  8
0
 62
7
100
AcDbSpline
 70
8
 71
3
 72
8
 73
4
 74
0
 40
0
 40
0
 40
0
 40
0
 40
1
 40
1
 40
1
 40
1
 10
26.913691
 20
111.218143
 30
0.0
 10
26.914524
 20
112.123525
 30
0.0
 10
26.431986
 20
112.960490
 30
0.0
 10
25.648041
 20
113.413422
 30
0.0
  0
SPLINE
  5
18d
100
AcDbEntity
  8
0
 62
7
100
AcDbSpline
 70
8
 71
3
 72
8
 73
4
 74
0
 40
0
 40
0
 40
0
 40
0
 40
1
 40
1
 40
1
 40
1
 10
25.648041
 20
113.413422
 30
0.0
 10
24.864095
 20
113.866353
 30
0.0
 10
23.897993
 20
113.866353
 30
0.0
 10
23.114048
 20
113.413422
 30
0.0
  0
SPLINE
  5
18e
100
AcDbEntity
  8
0
 62
7
100
AcDbSpline
 70
8
 71
3
 72
8
 73
4
 74
0
 40
0
 40
0
 40
0
 40
0
 40
1
 40
1
 40
1
 40
1
 10
23.114048
 20
113.413422
 30
0.0
 10
22.330102
 20
112.960490
 30
0.0
 10
21.847565
 20
112.123525
 30
0.0
 10
21.848398
 20
111.218143
 30
0.0
  0
SPLINE
  5
18f
100
AcDbEntity
  8
0
 62
7
100
AcDbSpline
 70
8
 71
3
 72
8
 73
4
 74
0
 40
0
 40
0
 40
0
 40
0
 40
1
 40
1
 40
1
 40
1
 10
21.848398
 20
111.218143
 30
0.0
 10
21.847565
 20
110.312760
 30
0.0
 10
22.330102
 20
109.475796
 30
0.0
 10
23.114048
 20
109.022864
 30
0.0
  0
SPLINE
  5
190
100
AcDbEntity
  8
0
 62
7
100
AcDbSpline
 70
8
 71
3
 72
8
 73
4
 74
0
 40
0
 40
0
 40
0
 40
0
 40
1
 40
1
 40
1
 40
1
 10
23.114048
 20
109.022864
 30
0.0
 10
23.897993
 20
108.569932
 30
0.0
 10
24.864095
 20
108.569932
 30
0.0
 10
25.648041
 20
109.022864
 30
0.0
  0
SPLINE
  5
191
100
AcDbEntity
  8
0
 62
7
100
AcDbSpline
 70
8
 71
3
 72
8
 73
4
 74
0
 40
0
 40
0
 40
0
 40
0
 40
1
 40
1
 40
1
 40
1
 10
25.648041
 20
109.022864
 30
0.0
 10
26.431986
 20
109.475796
 30
0.0
 10
26.914524
 20
110.312760
 30
0.0
 10
26.913691
 20
111.218143
 30
0.0
  0
LINE
  5
192
100
AcDbEntity
  8
0
 62
7
100
AcDbLine
 10
26.913691
 20
111.218143
 30
0.0
 11
26.913691
 21
111.218143
 31
0.0
  0
SPLINE
  5
193
100
AcDbEntity
  8
0
 62
7
100
AcDbSpline
 70
8
 71
3
 72
8
 73
4
 74
0
 40
0
 40
0
 40
0
 40
0
 40
1
 40
1
 40
1
 40
1
 10
35.138644
 20
111.262485
 30
0.0
 10
35.138644
 20
111.714899
 30
0.0
 10
34.897284
 20
112.132947
 30
0.0
 10
34.505482
 20
112.359154
 30
0.0
  0
SPLINE
  5
194
100
AcDbEntity
  8
0
 62
7
100
AcDbSpline
 70
8
 71
3
 72
8
 73
4
 74
0
 40
0
 40
0
 40
0
 40
0
 40
1
 40
1
 40
1
 40
1
 10
34.505482
 20
112.359154
 30
0.0
 10
34.113680
 20
112.585361
 30
0.0
 10
33.630960
 20
112.585361
 30
0.0
 10
33.239158
 20
112.359154
 30
0.0
  0
SPLINE
  5
195
100
AcDbEntity
  8
0
 62
7
100
AcDbSpline
 70
8
 71
3
 72
8
 73
4
 74
0
 40
0
 40
0
 40
0
 40
0
 40
1
 40
1
 40
1
 40
1
 10
33.239158
 20
112.359154
 30
0.0
 10
32.847356
 20
112.132947
 30
0.0
 10
32.605996
 20
111.714899
 30
0.0
 10
32.605996
 20
111.262485
 30
0.0
  0
SPLINE
  5
196
100
AcDbEntity
  8
0
 62
7
100
AcDbSpline
 70
8
 71
3
 72
8
 73
4
 74
0
 40
0
 40
0
 40
0
 40
0
 40
1
 40
1
 40
1
 40
1
 10
32.605996
 20
111.262485
 30
0.0
 10
32.605996
 20
110.810072
 30
0.0
 10
32.847356
 20
110.392024
 30
0.0
 10
33.239158
 20
110.165817
 30
0.0
  0
SPLINE
  5
197
100
AcDbEntity
  8
0
 62
7
100
AcDbSpline
 70
8
 71
3
 72
8
 73
4
 74
0
 40
0
 40
0
 40
0
 40
0
 40
1
 40
1
 40
1
 40
1
 10
33.239158
 20
110.165817
 30
0.0
 10
33.630960
 20
109.939610
 30
0.0
 10
34.113680
 20
109.939610
 30
0.0
 10
34.505482
 20
110.165817
 30
0.0
  0
SPLINE
  5
198
100
AcDbEntity
  8
0
 62
7
100
AcDbSpline
 70
8
 71
3
 72
8
 73
4
 74
0
 40
0
 40
0
 40
0
 40
0
 40
1
 40
1
 40
1
 40
1
 10
34.505482
 20
110.165817
 30
0.0
 10
34.897284
 20
110.392024
 30
0.0
 10
35.138644
 20
110.810072
 30
0.0
 10
35.138644
 20
111.262485
 30
0.0
  0
LINE
  5
199
100
AcDbEntity
  8
0
 62
7
100
AcDbLine
 10
35.138644
 20
111.262485
 30
0.0
 11
35.138644
 21
111.262485
 31
0.0
  0
SPLINE
  5
19a
100
AcDbEntity
  8
0
 62
7
100
AcDbSpline
 70
8
 71
3
 72
8
 73
4
 74
0
 40
0
 40
0
 40
0
 40
0
 40
1
 40
1
 40
1
 40
1
 10
36.404968
 20
111.262485
 30
0.0
 10
36.405801
 20
112.167868
 30
0.0
 10
35.923263
 20
113.004832
 30
0.0
 10
35.139318
 20
113.457764
 30
0.0
  0
SPLINE
  5
19b
100
AcDbEntity
  8
0
 62
7
100
AcDbSpline
 70
8
 71
3
 72
8
 73
4
 74
0
 40
0
 40
0
 40
0
 40
0
 40
1
 40
1
 40
1
 40
1
 10
35.139318
 20
113.457764
 30
0.0
 10
34.355372
 20
113.910696
 30
0.0
 10
33.389271
 20
113.910696
 30
0.0
 10
32.605325
 20
113.457764
 30
0.0
  0
SPLINE
  5
19c
100
AcDbEntity
  8
0
 62
7
100
AcDbSpline
 70
8
 71
3
 72
8
 73
4
 74
0
 40
0
 40
0
 40
0
 40
0
 40
1
 40
1
 40
1
 40
1
 10
32.605325
 20
113.457764
 30
0.0
 10
31.821379
 20
113.004832
 30
0.0
 10
31.338842
 20
112.167868
 30
0.0
 10
31.339675
 20
111.262485
 30
0.0
  0
SPLINE
  5
19d
100
AcDbEntity
  8
0
 62
7
100
AcDbSpline
 70
8
 71
3
 72
8
 73
4
 74
0
 40
0
 40
0
 40
0
 40
0
 40
1
 40
1
 40
1
 40
1
 10
31.339675
 20
111.262485
 30
0.0
 10
31.338842
 20
110.357103
 30
0.0
 10
31.821379
 20
109.520138
 30
0.0
 10
32.605325
 20
109.067207
 30
0.0
  0
SPLINE
  5
19e
100
AcDbEntity
  8
0
 62
7
100
AcDbSpline
 70
8
 71
3
 72
8
 73
4
 74
0
 40
0
 40
0
 40
0
 40
0
 40
1
 40
1
 40
1
 40
1
 10
32.605325
 20
109.067207
 30
0.0
 10
33.389271
 20
108.614275
 30
0.0
 10
34.355372
 20
108.614275
 30
0.0
 10
35.139318
 20
109.067207
 30
0.0
  0
SPLINE
  5
19f
100
AcDbEntity
  8
0
 62
7
100
AcDbSpline
 70
8
 71
3
 72
8
 73
4
 74
0
 40
0
 40
0
 40
0
 40
0
 40
1
 40
1
 40
1
 40
1
 10
35.139318
 20
109.067207
 30
0.0
 10
35.923263
 20
109.520138
 30
0.0
 10
36.405801
 20
110.357103
 30
0.0
 10
36.404968
 20
111.262485
 30
0.0
  0
LINE
  5
1a0
100
AcDbEntity
  8
0
 62
7
100
AcDbLine
 10
36.404968
 20
111.262485
 30
0.0
 11
36.404968
 21
111.262485
 31
0.0
  0
SPLINE
  5
1a1
100
AcDbEntity
  8
0
 62
7
100
AcDbSpline
 70
8
 71
3
 72
8
 73
4
 74
0
 40
0
 40
0
 40
0
 40
0
 40
1
 40
1
 40
1
 40
1
 10
45.894345
 20
111.224781
 30
0.0
 10
45.894345
 20
111.677194
 30
0.0
 10
45.652985
 20
112.095242
 30
0.0
 10
45.261183
 20
112.321449
 30
0.0
  0
SPLINE
  5
1a2
100
AcDbEntity
  8
0
 62
7
100
AcDbSpline
 70
8
 71
3
 72
8
 73
4
 74
0
 40
0
 40
0
 40
0
 40
0
 40
1
 40
1
 40
1
 40
1
 10
45.261183
 20
112.321449
 30
0.0
 10
44.869381
 20
112.547656
 30
0.0
 10
44.386661
 20
112.547656
 30
0.0
 10
43.994859
 20
112.321449
 30
0.0
  0
SPLINE
  5
1a3
100
AcDbEntity
  8
0
 62
7
100
AcDbSpline
 70
8
 71
3
 72
8
 73
4
 74
0
 40
0
 40
0
 40
0
 40
0
 40
1
 40
1
 40
1
 40
1
 10
43.994859
 20
112.321449
 30
0.0
 10
43.603057
 20
112.095242
 30
0.0
 10
43.361697
 20
111.677194
 30
0.0
 10
43.361697
 20
111.224781
 30
0.0
  0
SPLINE
  5
1a4
100
AcDbEntity
  8
0
 62
7
100
AcDbSpline
 70
8
 71
3
 72
8
 73
4
 74
0
 40
0
 40
0
 40
0
 40
0
 40
1
 40
1
 40
1
 40
1
 10
43.361697
 20
111.224781
 30
0.0
 10
43.361697
 20
110.772367
 30
0.0
 10
43.603057
 20
110.354319
 30
0.0
 10
43.994859
 20
110.128112
 30
0.0
  0
SPLINE
  5
1a5
100
AcDbEntity
  8
0
 62
7
100
AcDbSpline
 70
8
 71
3
 72
8
 73
4
 74
0
 40
0
 40
0
 40
0
 40
0
 40
1
 40
1
 40
1
 40
1
 10
43.994859
 20
110.128112
 30
0.0
 10
44.386661
 20
109.901905
 30
0.0
 10
44.869381
 20
109.901905
 30
0.0
 10
45.261183
 20
110.128112
 30
0.0
  0
SPLINE
  5
1a6
100
AcDbEntity
  8
0
 62
7
100
AcDbSpline
 70
8
 71
3
 72
8
 73
4
 74
0
 40
0
 40
0
 40
0
 40
0
 40
1
 40
1
 40
1
 40
1
 10
45.261183
 20
110.128112
 30
0.0
 10
45.652985
 20
110.354319
 30
0.0
 10
45.894345
 20
110.772367
 30
0.0
 10
45.894345
 20
111.224781
 30
0.0
  0
LINE
  5
1a7
100
AcDbEntity
  8
0
 62
7
100
AcDbLine
 10
45.894345
 20
111.224781
 30
0.0
 11
45.894345
 21
111.224781
 31
0.0
  0
SPLINE
  5
1a8
100
AcDbEntity
  8
0
 62
7
100
AcDbSpline
 70
8
 71
3
 72
8
 73
4
 74
0
 40
0
 40
0
 40
0
 40
0
 40
1
 40
1
 40
1
 40
1
 10
47.160668
 20
111.224781
 30
0.0
 10
47.161501
 20
112.130163
 30
0.0
 10
46.678964
 20
112.967128
 30
0.0
 10
45.895018
 20
113.420059
 30
0.0
  0
SPLINE
  5
1a9
100
AcDbEntity
  8
0
 62
7
100
AcDbSpline
 70
8
 71
3
 72
8
 73
4
 74
0
 40
0
 40
0
 40
0
 40
0
 40
1
 40
1
 40
1
 40
1
 10
45.895018
 20
113.420059
 30
0.0
 10
45.111073
 20
113.872991
 30
0.0
 10
44.144971
 20
113.872991
 30
0.0
 10
43.361026
 20
113.420059
 30
0.0
  0
SPLINE
  5
1aa
100
AcDbEntity
  8
0
 62
7
100
AcDbSpline
 70
8
 71
3
 72
8
 73
4
 74
0
 40
0
 40
0
 40
0
 40
0
 40
1
 40
1
 40
1
 40
1
 10
43.361026
 20
113.420059
 30
0.0
 10
42.577080
 20
112.967128
 30
0.0
 10
42.094543
 20
112.130163
 30
0.0
 10
42.095376
 20
111.224781
 30
0.0
  0
SPLINE
  5
1ab
100
AcDbEntity
  8
0
 62
7
100
AcDbSpline
 70
8
 71
3
 72
8
 73
4
 74
0
 40
0
 40
0
 40
0
 40
0
 40
1
 40
1
 40
1
 40
1
 10
42.095376
 20
111.224781
 30
0.0
 10
42.094543
 20
110.319398
 30
0.0
 10
42.577080
 20
109.482434
 30
0.0
 10
43.361026
 20
109.029502
 30
0.0
  0
SPLINE
  5
1ac
100
AcDbEntity
  8
0
 62
7
100
AcDbSpline
 70
8
 71
3
 72
8
 73
4
 74
0
 40
0
 40
0
 40
0
 40
0
 40
1
 40
1
 40
1
 40
1
 10
43.361026
 20
109.029502
 30
0.0
 10
44.144971
 20
108.576570
 30
0.0
 10
45.111073
 20
108.576570
 30
0.0
 10
45.895018
 20
109.029502
 30
0.0
  0
SPLINE
  5
1ad
100
AcDbEntity
  8
0
 62
7
100
AcDbSpline
 70
8
 71
3
 72
8
 73
4
 74
0
 40
0
 40
0
 40
0
 40
0
 40
1
 40
1
 40
1
 40
1
 10
45.895018
 20
109.029502
 30
0.0
 10
46.678964
 20
109.482434
 30
0.0
 10
47.161501
 20
110.319398
 30
0.0
 10
47.160668
 20
111.224781
 30
0.0
  0
LINE
  5
1ae
100
AcDbEntity
  8
0
 62
7
100
AcDbLine
 10
47.160668
 20
111.224781
 30
0.0
 11
47.160668
 21
111.224781
 31
0.0
  0
SPLINE
  5
1af
100
AcDbEntity
  8
0
 62
7
100
AcDbSpline
 70
8
 71
3
 72
8
 73
4
 74
0
 40
0
 40
0
 40
0
 40
0
 40
1
 40
1
 40
1
 40
1
 10
57.030946
 20
110.779318
 30
0.0
 10
57.030946
 20
111.231732
 30
0.0
 10
56.789586
 20
111.649780
 30
0.0
 10
56.397784
 20
111.875987
 30
0.0
  0
SPLINE
  5
1b0
100
AcDbEntity
  8
0
 62
7
100
AcDbSpline
 70
8
 71
3
 72
8
 73
4
 74
0
 40
0
 40
0
 40
0
 40
0
 40
1
 40
1
 40
1
 40
1
 10
56.397784
 20
111.875987
 30
0.0
 10
56.005982
 20
112.102194
 30
0.0
 10
55.523262
 20
112.102194
 30
0.0
 10
55.131460
 20
111.875987
 30
0.0
  0
SPLINE
  5
1b1
100
AcDbEntity
  8
0
 62
7
100
AcDbSpline
 70
8
 71
3
 72
8
 73
4
 74
0
 40
0
 40
0
 40
0
 40
0
 40
1
 40
1
 40
1
 40
1
 10
55.131460
 20
111.875987
 30
0.0
 10
54.739658
 20
111.649780
 30
0.0
 10
54.498298
 20
111.231732
 30
0.0
 10
54.498298
 20
110.779318
 30
0.0
  0
SPLINE
  5
1b2
100
AcDbEntity
  8
0
 62
7
100
AcDbSpline
 70
8
 71
3
 72
8
 73
4
 74
0
 40
0
 40
0
 40
0
 40
0
 40
1
 40
1
 40
1
 40
1
 10
54.498298
 20
110.779318
 30
0.0
 10
54.498298
 20
110.326904
 30
0.0
 10
54.739658
 20
109.908857
 30
0.0
 10
55.131460
 20
109.682650
 30
0.0
  0
SPLINE
  5
1b3
100
AcDbEntity
  8
0
 62
7
100
AcDbSpline
 70
8
 71
3
 72
8
 73
4
 74
0
 40
0
 40
0
 40
0
 40
0
 40
1
 40
1
 40
1
 40
1
 10
55.131460
 20
109.682650
 30
0.0
 10
55.523262
 20
109.456443
 30
0.0
 10
56.005982
 20
109.456443
 30
0.0
 10
56.397784
 20
109.682650
 30
0.0
  0
SPLINE
  5
1b4
100
AcDbEntity
  8
0
 62
7
100
AcDbSpline
 70
8
 71
3
 72
8
 73
4
 74
0
 40
0
 40
0
 40
0
 40
0
 40
1
 40
1
 40
1
 40
1
 10
56.397784
 20
109.682650
 30
0.0
 10
56.789586
 20
109.908857
 30
0.0
 10
57.030946
 20
110.326904
 30
0.0
 10
57.030946
 20
110.779318
 30
0.0
  0
LINE
  5
1b5
100
AcDbEntity
  8
0
 62
7
100
AcDbLine
 10
57.030946
 20
110.779318
 30
0.0
 11
57.030946
 21
110.779318
 31
0.0
  0
SPLINE
  5
1b6
100
AcDbEntity
  8
0
 62
7
100
AcDbSpline
 70
8
 71
3
 72
8
 73
4
 74
0
 40
0
 40
0
 40
0
 40
0
 40
1
 40
1
 40
1
 40
1
 10
58.297270
 20
110.779318
 30
0.0
 10
58.298103
 20
111.684701
 30
0.0
 10
57.815565
 20
112.521665
 30
0.0
 10
57.031620
 20
112.974597
 30
0.0
  0
SPLINE
  5
1b7
100
AcDbEntity
  8
0
 62
7
100
AcDbSpline
 70
8
 71
3
 72
8
 73
4
 74
0
 40
0
 40
0
 40
0
 40
0
 40
1
 40
1
 40
1
 40
1
 10
57.031620
 20
112.974597
 30
0.0
 10
56.247674
 20
113.427529
 30
0.0
 10
55.281573
 20
113.427529
 30
0.0
 10
54.497627
 20
112.974597
 30
0.0
  0
SPLINE
  5
1b8
100
AcDbEntity
  8
0
 62
7
100
AcDbSpline
 70
8
 71
3
 72
8
 73
4
 74
0
 40
0
 40
0
 40
0
 40
0
 40
1
 40
1
 40
1
 40
1
 10
54.497627
 20
112.974597
 30
0.0
 10
53.713681
 20
112.521665
 30
0.0
 10
53.231144
 20
111.684701
 30
0.0
 10
53.231977
 20
110.779318
 30
0.0
  0
SPLINE
  5
1b9
100
AcDbEntity
  8
0
 62
7
100
AcDbSpline
 70
8
 71
3
 72
8
 73
4
 74
0
 40
0
 40
0
 40
0
 40
0
 40
1
 40
1
 40
1
 40
1
 10
53.231977
 20
110.779318
 30
0.0
 10
53.231144
 20
109.873936
 30
0.0
 10
53.713681
 20
109.036971
 30
0.0
 10
54.497627
 20
108.584039
 30
0.0
  0
SPLINE
  5
1ba
100
AcDbEntity
  8
0
 62
7
100
AcDbSpline
 70
8
 71
3
 72
8
 73
4
 74
0
 40
0
 40
0
 40
0
 40
0
 40
1
 40
1
 40
1
 40
1
 10
54.497627
 20
108.584039
 30
0.0
 10
55.281573
 20
108.131107
 30
0.0
 10
56.247674
 20
108.131107
 30
0.0
 10
57.031620
 20
108.584039
 30
0.0
  0
SPLINE
  5
1bb
100
AcDbEntity
  8
0
 62
7
100
AcDbSpline
 70
8
 71
3
 72
8
 73
4
 74
0
 40
0
 40
0
 40
0
 40
0
 40
1
 40
1
 40
1
 40
1
 10
57.031620
 20
108.584039
 30
0.0
 10
57.815565
 20
109.036971
 30
0.0
 10
58.298103
 20
109.873936
 30
0.0
 10
58.297270
 20
110.779318
 30
0.0
  0
LINE
  5
1bc
100
AcDbEntity
  8
0
 62
7
100
AcDbLine
 10
58.297270
 20
110.779318
 30
0.0
 11
58.297270
 21
110.779318
 31
0.0
  0
ENDSEC
  0
SECTION
  2
OBJECTS
  0
DICTIONARY
  5
C
330
0
100
AcDbDictionary
  3
ACAD_GROUP
350
D
  3
ACAD_MLINESTYLE
350
17
  0
DICTIONARY
  5
D
330
C
100
AcDbDictionary
  0
DICTIONARY
  5
1A
330
C
100
AcDbDictionary
  0
DICTIONARY
  5
17
330
C
100
AcDbDictionary
  3
STANDARD
350
18
  0
DICTIONARY
  5
19
330
C
100
AcDbDictionary
  0
ENDSEC
  0
EOF
